<svg width="623" height="684" viewBox="0 0 623 684" fill="none" xmlns="http://www.w3.org/2000/svg">
<ellipse cx="306.764" cy="349.991" rx="223.71" ry="207.4" transform="rotate(25.2394 306.764 349.991)" fill="#8992DE"/>
<path d="M503.71 446.066C457.128 544.881 331.426 585.283 221.94 533.67C112.454 482.058 63.6281 359.384 110.21 260.568C156.793 161.752 282.494 121.351 391.98 172.963C501.466 224.576 550.292 347.25 503.71 446.066Z" stroke="white" stroke-width="23"/>
<path d="M162.096 438.796C171.151 442.503 233.34 363.381 263.303 323.357L361.733 361.863C364.487 403.621 373.154 489.33 385.791 498.111C401.587 509.086 399.667 503.713 399.953 507.95C400.24 512.188 382.912 513.878 367.947 507.519C352.982 501.159 194.583 452.484 173.231 452.993C151.878 453.502 139.7 436.157 142.728 431.8C145.756 427.442 150.778 434.162 162.096 438.796Z" fill="#17D3C8"/>
<path d="M259.737 422.642C268.792 426.349 233.34 363.381 263.303 323.357L361.733 361.863C364.487 403.621 373.154 489.33 385.791 498.111C401.587 509.086 399.667 503.713 399.953 507.95C400.24 512.188 382.912 513.878 367.947 507.519C352.982 501.159 194.583 452.484 173.231 452.993C151.878 453.502 139.223 427.816 142.728 431.8C179.279 473.348 248.419 418.009 259.737 422.642Z" fill="#189BB7"/>
<path d="M466.317 357.803C446.379 411.716 363.979 398.153 307.359 366.889C224.776 336.349 166.378 285.896 188.263 245.374C213.637 198.393 284.688 175.397 367.272 205.937C449.855 236.477 486.254 303.89 466.317 357.803Z" fill="#543CEB"/>
<path d="M403.281 449.69C384.974 460.23 357.398 453.346 345.898 448.586C339.648 448.282 330.852 450.247 345.668 460.541C364.187 473.409 427.793 466.72 443.412 458.189C459.031 449.658 455.947 437.823 437.926 427.725C419.905 417.627 426.166 436.515 403.281 449.69Z" fill="#543CEB"/>
<path d="M404.778 457.998C386.47 468.538 357.398 453.346 345.898 448.586C339.648 448.282 330.852 450.247 345.668 460.541C364.188 473.408 427.793 466.72 443.412 458.189C459.031 449.658 456.735 435.043 436.108 436.154C428.557 436.561 427.662 444.823 404.778 457.998Z" fill="#3B28CE"/>
<path d="M483.425 262.273L428.822 279.254L460.591 320.711L483.425 262.273Z" fill="#543CEB"/>
<path d="M245.438 171.222L275.813 218.171L204.186 230.593L245.438 171.222Z" fill="#543CEB"/>
<path d="M355.826 458.728C352.455 468.633 347.853 478.762 338.753 483.926C323.701 492.469 297.529 494.584 256.667 477.044C184.748 446.173 194.405 406.245 220.103 369.259C245.8 332.274 301.734 316.946 338.736 342.654C372.464 366.089 372.866 408.646 355.826 458.728Z" fill="#543CEB"/>
<path d="M355.826 458.728C352.456 468.633 347.853 478.762 338.753 483.926C323.701 492.469 297.529 494.584 256.668 477.044C184.749 446.173 306.593 494.693 332.291 457.708C357.989 420.722 301.734 316.946 338.736 342.654C372.464 366.089 372.866 408.646 355.826 458.728Z" fill="#3B28CE"/>
<ellipse cx="219.241" cy="363.273" rx="16.5815" ry="27.857" transform="rotate(90.4688 219.241 363.273)" fill="#543CEB"/>
<ellipse cx="365.609" cy="416.916" rx="16.5815" ry="27.857" transform="rotate(119.409 365.609 416.916)" fill="#543CEB"/>
<path d="M357.467 431.36C344.064 423.806 336.845 411.214 341.342 403.237C356.937 419.912 360.251 419.792 367.844 421.65C381.786 425.063 394.373 422.617 389.876 430.594C385.379 438.572 370.869 438.915 357.467 431.36Z" fill="#3B28CE"/>
<ellipse cx="330.664" cy="492.784" rx="16.5815" ry="27.857" transform="rotate(99.566 330.664 492.784)" fill="#543CEB"/>
<path d="M327.908 509.135C312.737 506.578 301.672 497.185 303.194 488.154C304.716 479.124 316.31 487.702 331.481 490.258C346.652 492.815 359.655 488.383 358.133 497.413C356.611 506.443 343.079 511.691 327.908 509.135Z" fill="#3B28CE"/>
<path d="M208.182 467.704C194.231 461.22 186.05 449.231 189.909 440.926C193.769 432.622 208.208 431.146 222.16 437.631C236.112 444.115 244.293 456.104 240.433 464.409C236.573 472.713 222.134 474.189 208.182 467.704Z" fill="#543CEB"/>
<path d="M208.183 467.704C194.231 461.22 195.219 456.643 199.079 448.338C202.939 440.034 210.155 451.167 224.106 457.651C238.058 464.136 244.293 456.104 240.433 464.409C236.573 472.713 222.134 474.189 208.183 467.704Z" fill="#3B28CE"/>
<path d="M304.302 233.927C280.072 217.092 264.064 215.123 262.361 204.786C261.635 204.282 260.873 201.814 263.635 195.979C267.087 188.686 261.27 185.632 273.005 191.991C283.566 197.713 331.318 159.011 345.303 149.345C359.288 139.678 376.587 129.891 387.951 132.134C399.316 134.376 412.876 127.645 425.33 130.645C435.293 133.044 441.877 144.026 443.924 149.217L477.1 127.041C477.008 131.823 476.576 144.767 475.58 158.29C474.584 171.812 457.508 169.963 449.095 167.348L416.894 157.897L456.728 267.953C451.712 273.622 439.469 260.821 404.052 261.236C344.61 261.933 337.529 257.013 304.302 233.927Z" fill="#18D9CE"/>
<path d="M304.303 233.928C280.072 217.092 264.064 215.123 262.362 204.787C261.635 204.282 313.658 242.471 344.72 246.664C370.688 250.17 377.015 249.346 387.896 245.165C397.625 241.426 400.699 239.524 414.684 229.857C428.67 220.191 398.45 150.735 409.814 152.977C421.178 155.22 424.658 156.023 437.112 159.022C447.075 161.422 460.764 168.187 464.927 162.195C469.175 156.081 472.19 149.196 473.801 141.927L477.101 127.041C477.009 131.823 476.576 144.767 475.58 158.29C474.584 171.812 457.508 169.963 449.095 167.348L416.895 157.897L456.728 267.953C451.713 273.622 439.47 260.821 404.052 261.237C344.61 261.933 337.529 257.013 304.303 233.928Z" fill="#189BB7"/>
<rect x="400.393" y="306.222" width="22.5509" height="50.0422" transform="rotate(21.4465 400.393 306.222)" fill="#9779F8"/>
<rect x="398.971" y="303.619" width="22.5509" height="50.0422" transform="rotate(21.4465 398.971 303.619)" fill="#D0BAFF"/>
<rect x="254.253" y="251.527" width="22.5509" height="50.0422" transform="rotate(21.4465 254.253 251.527)" fill="#9779F8"/>
<rect x="252.831" y="248.923" width="22.5509" height="50.0422" transform="rotate(21.4465 252.831 248.923)" fill="#D0BAFF"/>
<path d="M457.192 296.543L483.425 262.273L468.131 301.721C476.266 328.372 473.066 360.877 448.742 381.936C429.283 398.783 383.799 394.425 363.95 390.057C379.225 386.671 405.829 391.855 424.379 376.316C442.93 360.776 456.845 311.378 457.192 296.543Z" fill="#3B28CE"/>
<path d="M263.721 340.203C277.515 319.42 310.025 327.417 324.556 334.013C378.35 349.583 370.82 387.156 362.872 398.595C354.924 410.033 318.441 403.26 314.656 408.707C310.872 414.154 311.519 428.333 315.83 433.752C319.28 438.087 327.466 441.029 331.128 441.958C328.131 444.721 319.931 450.169 311.105 449.852C302.28 449.535 294.749 439.296 292.087 434.215C286.94 441.623 292.128 451.205 295.366 455.069C287.771 448.177 271.092 431.42 265.139 419.53C259.185 407.64 264.854 389.718 268.432 382.243C267.872 382.662 265.895 384.035 262.468 386.176C256.221 389.589 255.989 397.827 256.654 401.52C255.826 403.098 253.36 404.4 250.117 396.978C246.064 387.701 246.478 366.182 263.721 340.203Z" fill="#C5D9FE"/>
<path d="M261.966 335.754C275.76 314.97 308.271 322.968 322.802 329.564C376.595 345.134 369.065 382.707 361.118 394.145C353.17 405.584 316.686 398.81 312.902 404.257C309.117 409.704 309.765 423.884 314.076 429.303C317.525 433.637 325.712 436.579 329.374 437.508C326.377 440.272 318.176 445.72 309.351 445.403C300.525 445.086 292.995 434.846 290.333 429.766C285.186 437.174 290.374 446.755 293.611 450.62C286.016 443.727 269.338 426.97 263.385 415.08C257.431 403.191 263.099 385.269 266.677 377.794C266.117 378.212 264.141 379.585 260.714 381.727C254.466 385.139 254.234 393.378 254.899 397.07C254.072 398.649 251.606 399.951 248.363 392.529C244.31 383.251 244.724 361.733 261.966 335.754Z" fill="#E1F1FE"/>
<path d="M345.958 329.934C337.11 323.14 327.199 326.323 323.35 328.763C330.201 345.638 342.711 364.83 352.516 371.642C360.359 377.092 370.21 376.398 374.155 375.37C373.444 374.068 371.562 370.5 369.723 366.637C367.424 361.809 357.018 338.426 345.958 329.934Z" fill="#C5D9FE"/>
<path d="M296.081 315.201C307.221 314.611 313.588 322.847 315.379 327.038C300.176 337.067 278.997 345.801 267.059 345.864C257.508 345.914 249.782 339.764 247.112 336.683C248.435 336.013 252.007 334.137 255.71 331.995C260.339 329.318 282.157 315.937 296.081 315.201Z" fill="#C5D9FE"/>
<path d="M350.74 330.026C341.892 323.232 331.981 326.415 328.132 328.855C334.983 345.73 347.493 364.922 357.298 371.734C365.141 377.184 374.992 376.49 378.937 375.462C378.226 374.16 376.344 370.592 374.505 366.729C372.206 361.901 361.8 338.518 350.74 330.026Z" fill="#E1F1FE"/>
<path d="M301.62 314.203C312.76 313.614 319.127 321.849 320.917 326.04C305.715 336.07 284.536 344.804 272.598 344.867C263.047 344.917 255.321 338.767 252.651 335.686C253.974 335.016 257.546 333.14 261.249 330.998C265.878 328.32 287.695 314.94 301.62 314.203Z" fill="#E1F1FE"/>
<rect x="393.9" y="301.618" width="35.6787" height="18.5713" transform="rotate(20.0016 393.9 301.618)" fill="#C5D9FE"/>
<rect x="247.76" y="246.922" width="35.6787" height="18.5713" transform="rotate(20.0016 247.76 246.922)" fill="#C5D9FE"/>
<ellipse cx="325.425" cy="323.418" rx="10.6122" ry="6.63262" transform="rotate(20.5327 325.425 323.418)" fill="#8BB6B9"/>
<rect x="392.478" y="299.015" width="35.6787" height="18.5713" transform="rotate(20.0016 392.478 299.015)" fill="#E1F1FE"/>
<rect x="246.338" y="244.319" width="35.6787" height="18.5713" transform="rotate(20.0016 246.338 244.319)" fill="#E1F1FE"/>
<path d="M475.312 272.789L456.286 286.222L466.165 298.739L475.312 272.789Z" fill="#6D3CFF"/>
<path d="M475.312 272.789L461.733 290.007L460.598 291.641L466.165 298.739L475.312 272.789Z" fill="#5B37E4"/>
<path d="M287.326 199.518C289.384 197.717 344.027 147.651 386.226 140.627C344.653 184.429 334.142 218.155 322.702 216.021C308.402 213.354 308.568 214.277 295.949 210.355C283.329 206.433 285.267 201.318 287.326 199.518Z" fill="#8CECE6"/>
<path d="M470.449 133.834C461.172 139.596 443.628 151.474 447.666 152.885C452.714 154.65 465.754 150.755 470.449 133.834Z" fill="#8CECE6"/>
<path d="M427.768 133.146C418.628 130.027 404.947 133.443 405.825 135.668C406.702 137.893 421.621 146.643 427.768 133.146Z" fill="#8CECE6"/>
<path d="M241.845 184.036L241.539 207.106L225.387 207.101L241.845 184.036Z" fill="#6D3CFF"/>
<path fill-rule="evenodd" clip-rule="evenodd" d="M462.376 484.002C466.406 473.16 450.218 452.869 363.5 451.5C309.947 450.654 284.12 465.382 264.665 476.476C244.741 487.838 231.498 495.389 202 478.5C172.917 461.848 162.53 453.86 158.431 448.667C157.099 445.579 155.842 442.491 154.659 439.414C154.609 439.278 154.556 439.14 154.5 439C154.553 439.138 154.606 439.276 154.659 439.414C155.008 440.369 155.215 441.247 155.419 442.115C155.885 444.091 156.338 446.015 158.431 448.667C186.688 514.163 248.968 579.524 372.116 541.348C374.707 541.348 450.283 514.815 462.376 484.002ZM411 500.625C405.779 491.41 386.801 475.746 352.656 486.803C309.974 500.625 263.377 514.028 256.329 510.677C249.28 507.326 357.354 562.195 411 500.625Z" fill="#D0BAFF"/>
<path fill-rule="evenodd" clip-rule="evenodd" d="M473.5 484C478.167 471.333 462.4 445.6 362 444C309.048 443.156 276.569 449.967 251.642 455.195C217.492 462.356 197.52 466.545 158.5 444C125.27 424.8 109.221 406.616 100.903 392.734C97.1651 384.796 93.9407 377.202 91.2404 370.131C91.1595 369.91 91.0797 369.7 91.0002 369.5C91.0798 369.71 91.1599 369.92 91.2404 370.131C91.5424 370.957 91.8583 371.932 92.2191 373.044C93.685 377.566 95.8903 384.369 100.903 392.734C139.529 474.774 232.956 593.559 369 551C372 551 459.5 520 473.5 484ZM432 487.5C425.333 476.5 401.1 457.8 357.5 471C303 487.5 243.5 503.5 234.5 499.5C225.5 495.5 363.5 561 432 487.5Z" fill="white"/>
<path fill-rule="evenodd" clip-rule="evenodd" d="M469.208 672.433C475.656 674.073 486.269 663.57 481.734 613.887C478.934 583.205 468.926 569.336 461.388 558.889C453.667 548.19 448.536 541.079 456.387 523.171C464.128 505.516 468.06 499.085 470.779 496.422C472.463 495.471 474.152 494.563 475.84 493.697C475.915 493.661 475.99 493.622 476.067 493.581L475.84 493.697C475.315 493.956 474.825 494.128 474.341 494.298C473.24 494.686 472.167 495.063 470.779 496.422C435.051 516.6 401.486 556.231 430.873 624.325C431.032 625.807 450.843 667.406 469.208 672.433ZM456.549 644.067C461.5 640.516 469.295 628.701 460.877 609.849C450.354 586.285 439.831 560.455 441.315 556.218C442.799 551.982 418.044 617.16 456.549 644.067Z" fill="#D0BAFF"/>
<path fill-rule="evenodd" clip-rule="evenodd" d="M469.891 678.796C477.422 680.688 491.173 670.092 485.932 612.569C483.167 582.231 477.28 564.072 472.761 550.136C466.571 531.042 462.951 519.876 473.452 496.176C482.396 475.992 491.812 465.698 499.242 460.089C503.553 457.464 507.699 455.154 511.577 453.176C511.699 453.116 511.815 453.058 511.924 453C511.809 453.058 511.693 453.117 511.577 453.176C511.124 453.399 510.586 453.64 509.971 453.915C507.475 455.03 503.719 456.709 499.242 460.089C454.687 487.212 392.477 547.933 425.161 623.135C425.345 624.85 448.442 672.996 469.891 678.796ZM465.344 655.274C471.227 650.786 480.436 635.779 470.213 611.651C457.433 581.491 444.633 548.441 446.369 543.048C448.105 537.655 419.105 620.602 465.344 655.274Z" fill="white"/>
<path fill-rule="evenodd" clip-rule="evenodd" d="M251.991 614.427C249.841 620.724 259.464 632.141 309.351 631.583C340.158 631.239 354.781 622.369 365.796 615.688C377.077 608.846 384.575 604.298 401.799 613.552C418.781 622.676 424.878 627.108 427.315 630.031C428.129 631.786 428.899 633.542 429.628 635.293C429.658 635.371 429.691 635.449 429.725 635.529L429.628 635.293C429.412 634.75 429.279 634.248 429.148 633.752C428.85 632.623 428.56 631.524 427.315 630.031C410.051 592.807 373.224 556.189 303.003 580.052C301.513 580.092 258.466 596.521 251.991 614.427ZM281.275 604.072C284.42 609.289 295.576 618.002 315.039 611.115C339.368 602.505 365.954 594.075 370.059 595.892C374.164 597.71 311.168 567.835 281.275 604.072Z" fill="#D0BAFF"/>
<path fill-rule="evenodd" clip-rule="evenodd" d="M245.594 614.601C243.107 621.957 252.572 636.51 310.33 635.872C340.792 635.536 359.363 631.116 373.615 627.723C393.141 623.076 404.561 620.357 427.348 632.716C446.754 643.241 456.264 653.448 461.263 661.302C463.535 665.808 465.507 670.125 467.17 674.149C467.22 674.275 467.269 674.395 467.318 674.508C467.268 674.389 467.219 674.269 467.17 674.149C466.983 673.679 466.786 673.123 466.562 672.489C465.649 669.912 464.275 666.034 461.263 661.302C437.779 614.725 382.213 547.87 304.645 574.453C302.92 574.5 253.086 593.683 245.594 614.601ZM269.403 611.945C273.407 618.166 287.632 628.544 312.499 620.277C343.582 609.944 377.547 599.82 382.785 601.981C388.022 604.141 307.652 568.618 269.403 611.945Z" fill="white"/>
<path fill-rule="evenodd" clip-rule="evenodd" d="M581.097 581.819C583.665 577.978 579.248 568.596 545.671 560.05C524.935 554.773 513.537 558.11 504.95 560.625C496.156 563.199 490.312 564.911 480.408 555.621C470.643 546.461 467.344 542.397 466.231 540C465.999 538.677 465.796 537.36 465.62 536.055C465.613 535.997 465.606 535.939 465.597 535.879L465.62 536.055C465.668 536.458 465.667 536.819 465.666 537.175C465.664 537.986 465.663 538.776 466.231 540C471.161 568.066 489.327 599.225 540.717 595.767C541.725 596.006 573.55 592.677 581.097 581.819ZM559.593 583.532C558.415 579.469 552.487 571.627 538.194 572.769C520.329 574.197 500.98 575.1 498.55 573.147C496.12 571.193 533.054 602.505 559.593 583.532Z" fill="#D0BAFF"/>
<path fill-rule="evenodd" clip-rule="evenodd" d="M585.42 582.846C588.405 578.354 584.655 566.896 545.781 556.997C525.279 551.776 512.026 551.422 501.855 551.15C487.921 550.778 479.771 550.56 466.689 538.192C455.548 527.66 450.991 519.109 449.041 512.945C448.322 509.515 447.77 506.265 447.374 503.268C447.363 503.174 447.352 503.085 447.339 503C447.351 503.089 447.362 503.178 447.374 503.268C447.415 503.616 447.448 504.024 447.485 504.49C447.637 506.383 447.866 509.231 449.041 512.945C456.472 548.4 481.807 603.2 538.615 599.23C539.781 599.507 576.653 595.544 585.42 582.846ZM568.968 580.372C567.393 575.48 559.703 565.973 541.537 567.075C518.831 568.451 494.227 569.172 491.099 566.786C487.971 564.399 535.553 602.608 568.968 580.372Z" fill="white"/>
<path fill-rule="evenodd" clip-rule="evenodd" d="M52.4035 370.026C49.8014 369.09 44.9918 373.012 44.8856 393.747C44.82 406.551 48.4066 412.688 51.1085 417.311C53.8755 422.045 55.7146 425.191 51.7522 432.286C47.8456 439.282 45.9624 441.785 44.7313 442.778C43.9966 443.105 43.2615 443.413 42.5289 443.704C42.4964 443.716 42.4636 443.729 42.4303 443.743L42.5289 443.704C42.7562 443.618 42.9657 443.566 43.1727 443.515C43.6439 443.399 44.1026 443.286 44.7313 442.778C60.317 435.856 75.7837 420.8 66.343 391.458C66.3364 390.838 59.8005 372.838 52.4035 370.026ZM56.5085 382.266C54.3189 383.537 50.6224 388.114 53.353 396.249C56.7661 406.417 60.0891 417.523 59.3061 419.216C58.523 420.91 71.3644 394.933 56.5085 382.266Z" fill="#D0BAFF"/>
<path fill-rule="evenodd" clip-rule="evenodd" d="M52.3747 367.367C49.3346 366.283 43.2229 370.118 43.0965 394.124C43.0298 406.785 44.7409 414.533 46.0542 420.478C47.8533 428.624 48.9056 433.388 43.6155 442.774C39.1103 450.767 34.804 454.65 31.5065 456.674C29.6183 457.588 27.8111 458.378 26.1277 459.041C26.075 459.061 26.0249 459.081 25.9774 459.101L26.1277 459.041C26.3243 458.967 26.5565 458.889 26.8216 458.8C27.8989 458.438 29.5196 457.894 31.5065 456.674C51.0209 447.23 79.1798 424.593 68.6585 392.178C68.6508 391.461 61.0167 370.622 52.3747 367.367ZM53.3172 377.279C50.7045 378.901 46.2958 384.742 49.5626 395.131C53.6462 408.118 57.623 422.302 56.6897 424.463C55.7563 426.625 71.0631 393.467 53.3172 377.279Z" fill="white"/>
<path fill-rule="evenodd" clip-rule="evenodd" d="M29.5878 463.487C28.967 467.855 36.649 474.1 69.0766 467.562C89.1022 463.524 97.5296 455.936 103.878 450.22C110.379 444.367 114.7 440.476 127.066 444.372C139.258 448.213 143.778 450.346 145.727 451.948C146.475 452.99 147.194 454.039 147.885 455.09C147.915 455.136 147.946 455.184 147.978 455.231L147.885 455.09C147.678 454.762 147.529 454.452 147.382 454.145C147.048 453.446 146.723 452.766 145.727 451.948C129.873 429.837 101.351 410.543 58.5623 434.78C57.5967 434.99 31.5894 451.021 29.5878 463.487ZM47.3821 453.116C50.0768 456.125 58.4225 460.42 70.2481 453.524C85.0302 444.904 101.306 436.122 104.205 436.797C107.103 437.473 62.3687 425.811 47.3821 453.116Z" fill="#D0BAFF"/>
<path fill-rule="evenodd" clip-rule="evenodd" d="M25.4423 464.392C24.7328 469.492 32.7002 477.8 70.2451 470.235C90.0468 466.245 101.597 461.066 110.461 457.092C122.605 451.648 129.707 448.463 146.081 453.693C160.025 458.147 167.484 463.619 171.712 468.116C173.75 470.77 175.569 473.338 177.15 475.753C177.199 475.829 177.245 475.901 177.291 475.969C177.245 475.897 177.198 475.825 177.15 475.753C176.971 475.47 176.774 475.133 176.549 474.747C175.635 473.181 174.26 470.825 171.712 468.116C150.649 440.683 106.177 404.011 58.9388 430.929C57.8209 431.173 27.7332 449.838 25.4423 464.392ZM40.6232 459.714C44.0017 463.271 54.5525 468.27 69.7274 459.807C88.6961 449.228 109.569 438.429 113.248 439.188C116.927 439.947 60.1757 426.756 40.6232 459.714Z" fill="white"/>
</svg>
