<svg width="6812" height="2243" viewBox="0 0 6812 2243" fill="none" xmlns="http://www.w3.org/2000/svg">
<path d="M3151.85 572.814C3399.75 -81.5921 3872.52 -122.454 4131.26 185.371C4358.52 455.737 4464.67 1047.12 4489.34 1309.02C4658.51 1137.3 5070.45 853.757 5364.8 1093.38C5419.89 1138.23 5465.75 1189.95 5503.77 1245.63C5526.12 1219.04 5550.6 1195.02 5577.34 1174.8C5788.97 1014.73 6192.8 1053.73 6356.12 1457.8C6519.43 1861.88 7257.77 1844.2 6417.56 2013.78C6048.86 2088.19 5624.48 2114.44 5262.94 2112.94C5136.27 2133.54 4985.55 2149.38 4818.98 2158.24C4418.97 2256.9 3324.41 2302.42 2426.7 2107.76C1885.15 2122.87 1148.67 2107.84 529.289 2028.58C-598.167 1884.29 392.585 1899.33 611.734 1555.51C769.628 1307.79 1095.05 1221.33 1370.85 1243.28C1618.75 902.512 2091.52 881.234 2350.26 1041.53C2375.43 1057.12 2399.11 1074.76 2421.36 1093.99C2587.6 678.425 2891.79 533.054 3151.85 572.814Z" fill="#7379E9"/>
</svg>
