<svg xmlns="http://www.w3.org/2000/svg" viewBox="0 0 3461 1957.55"><defs><style>.cls-1{fill:#1c0040;}.cls-2{fill:#18dcd0;}.cls-3{fill:#0e0029;}.cls-4{fill:#3b28ce;}.cls-5{fill:#6fefd0;}.cls-6{fill:#189bb7;}.cls-7{fill:#15002e;}.cls-8{fill:none;}.cls-9{fill:#18bcd0;}.cls-10{fill:#5488eb;}.cls-11{fill:#543ceb;}.cls-12{fill:#719fba;}.cls-13{fill:#8cb7ba;}.cls-14{fill:#c2d6fe;}.cls-15{fill:#e1f1fe;}.cls-16{fill:#abdad8;}.cls-17{fill:#c09fff;}.cls-18{fill:#d0baff;}.cls-19{fill:#d1e2fe;}.cls-20{fill:#a4a1ff;}.cls-21{fill:#deccff;}.cls-22{fill:#6d3cff;}.cls-23{fill:#4432c2;}.cls-24{fill:#fff;}.cls-25{fill:#ffbfb3;}.cls-26{fill:#99f3fe;}</style></defs><g id="Layer_2" data-name="Layer 2"><g id="Layer_1-2" data-name="Layer 1"><path class="cls-1" d="M787,1605.55s1249.22,174,1659.11,72c36.78-10,42.14-72.5,42.14-72.5Z"/><path class="cls-2" d="M3124.8,1750.05H326.37c-36.91,0-45.29-51.74-10.26-63.39l54.27-18.05a1243.82,1243.82,0,0,1,392.53-63.56H2488.25a1413,1413,0,0,1,209.33,15.6l432,64.71C3169.44,1691.33,3165.06,1750.05,3124.8,1750.05Z"/><path class="cls-2" d="M1064,1629.55l-277-17-10-368.5a143.5,143.5,0,0,1,143.5-143.5h0a143.5,143.5,0,0,1,143.5,143.5Z"/><path class="cls-3" d="M1230.15,1563.48c7.73,46.5-26.48,42.18-68.4,49.15s-52.15,4.29-59.87-42.22-3.55-71.55,38.37-78.52S1222.43,1517,1230.15,1563.48Z"/><rect class="cls-3" x="1166.9" y="1430.27" width="43.3" height="126.1" rx="21.65" transform="translate(-228.61 214.91) rotate(-9.43)"/><rect class="cls-3" x="1091.92" y="1439.84" width="43.3" height="126.1" rx="21.65" transform="translate(-231.19 202.76) rotate(-9.43)"/><ellipse class="cls-3" cx="1096.34" cy="1597.86" rx="16.59" ry="12.96" transform="translate(-246.98 201.22) rotate(-9.43)"/><ellipse class="cls-3" cx="1239.73" cy="1576.77" rx="19.59" ry="15.64" transform="translate(-241.59 224.43) rotate(-9.43)"/><ellipse class="cls-3" cx="1153.66" cy="1617.97" rx="20.54" ry="16.28" transform="matrix(0.99, -0.16, 0.16, 0.99, -249.5, 210.88)"/><ellipse class="cls-3" cx="1208.27" cy="1612.11" rx="21.33" ry="14.7" transform="matrix(0.99, -0.16, 0.16, 0.99, -247.8, 219.75)"/><ellipse class="cls-4" cx="1166.22" cy="1561.43" rx="42.19" ry="37.45" transform="translate(-240.07 212.18) rotate(-9.43)"/><path class="cls-2" d="M1291,1641.55H1148l2-306.5a71.5,71.5,0,0,1,71.5-71.5h0a71.5,71.5,0,0,1,71.5,71.5Z"/><circle class="cls-5" cx="1254" cy="1318.55" r="24"/><path class="cls-5" d="M867.14,1143.19s17.06-16,74.46-17.82,89.89,61.09,96.65,87.13,7,65,7,65-13.38,46.85-50.83,16.43,7.14-106.11-55.15-118.77S867.14,1143.19,867.14,1143.19Z"/><path class="cls-5" d="M864,1126.89c-.71-3.57-71.09-359-82.73-511.07-11.84-154.64,33.94-215.47,35.89-218l12.63,9.82-6.31-4.91,6.33,4.88c-.11.15-11.08,14.75-20.54,47.35-8.76,30.19-18,82.4-12,159.62,11.57,151.11,81.75,505.61,82.46,509.17Z"/><path class="cls-5" d="M1244.72,1279.64l-15.44-4.17c27.13-100.33,33-207.15,33.23-279.1.2-78.13-6.12-133.16-6.18-133.71l15.89-1.86c.06.55,6.48,56.34,6.29,135.36C1278.33,1069.14,1272.33,1177.56,1244.72,1279.64Z"/><path class="cls-5" d="M2582.49,1040.53l-14.69-7.85c51-95.73,81.94-203,98.95-276.18,18.47-79.43,24.92-136.89,25-137.46l16.55,1.82c-.06.57-6.6,58.82-25.26,139.16C2665.79,834.22,2634.35,943.11,2582.49,1040.53Z"/><path class="cls-5" d="M1295.36,1197.21s106.25,22.5,105.44-46.08S1295.36,1197.21,1295.36,1197.21Z"/><path class="cls-5" d="M1235.19,1100.55s-100.19-18.81-85.19-55.4S1235.19,1100.55,1235.19,1100.55Z"/><path class="cls-5" d="M867.14,809.45s121.86-53.9,53.36-88.9S867.14,809.45,867.14,809.45Z"/><path class="cls-5" d="M824.49,998.21s-110.83-128-97.16-49.84S824.49,998.21,824.49,998.21Z"/><path class="cls-2" d="M2480,1682.55l178.86-18.29,6.46-263.73c0-58-41.49-105-92.66-105h0c-51.18,0-92.66,47-92.66,105Z"/><path class="cls-5" d="M2607.11,1326.75s-11-11.71-48.08-13-58,44.69-62.4,63.74-4.54,47.59-4.54,47.59,8.64,34.27,32.82,12-4.61-77.63,35.61-86.89S2607.11,1326.75,2607.11,1326.75Z"/><path class="cls-5" d="M2574.56,1298.65c.22-5.84,21.28-586.78,11.9-833.74-9.54-251.16-63.55-345.66-65.84-349.56l-11.23,17,5.61-8.48-5.64,8.44c.13.22,13.09,22.91,27,74.84,12.89,48.09,29.26,131.76,34,257.18,9.32,245.42-11.69,824.83-11.9,830.65Z"/><path class="cls-5" d="M2504,483.45s-121.86-53.9-53.36-88.9S2504,483.45,2504,483.45Z"/><path class="cls-5" d="M2612.67,574.21s110.83-128,97.16-49.84S2612.67,574.21,2612.67,574.21Z"/><path class="cls-5" d="M2655.67,919.21s110.83-128,97.16-49.84S2655.67,919.21,2655.67,919.21Z"/><path class="cls-6" d="M1586.38,1605.1l823.21.42c5.3,0,5.86,7.76.61,8.51-99.44,14.16-311.14,41.31-486.2,43.52-139.46,1.76-262.09-16.61-339.63-32.1C1572.19,1623,1574,1605.09,1586.38,1605.1Z"/><rect class="cls-6" x="285" y="1684.55" width="2883" height="72" rx="36"/><path class="cls-1" d="M3461,1957.55H0l196.65-94.41a635.15,635.15,0,0,1,274.94-62.59H2984.53a635.24,635.24,0,0,1,269.57,60Z"/><path class="cls-7" d="M418.69,1878.55H3043.31a88.72,88.72,0,0,0,84.48-61.62,635.35,635.35,0,0,0-143.26-16.38H471.59a635.2,635.2,0,0,0-137.77,15.14A88.73,88.73,0,0,0,418.69,1878.55Z"/><path id="SVGID" class="cls-8" d="M3461,1957.55H0l196.65-94.41a635.15,635.15,0,0,1,274.94-62.59H2984.53a635.24,635.24,0,0,1,269.57,60Z"/><path id="SVGID-2" data-name="SVGID" class="cls-8" d="M3461,1957.55H0l196.65-94.41a635.15,635.15,0,0,1,274.94-62.59H2984.53a635.24,635.24,0,0,1,269.57,60Z"/><polygon class="cls-4" points="1537 745.55 1531.14 747.2 1489.09 729.16 1534.09 740.16 1537 745.55"/><path class="cls-9" d="M1992.68,470.69l45,4.42c45,4.42,65.14-12.89,94.38-25.93s0-113.63,0-113.63h-18l3.4,14.93a220.34,220.34,0,0,0-34.09,52.42c-19.44,42.37-73.77,0-90.72,0S1874,453.74,1865.56,470.69s-228.81,305.08-228.81,305.08,67.79,67.8,127.12,76.28S1933.36,835.1,2018,809.67s178.08,0,178.08,0Z"/><path class="cls-6" d="M2114,1209.65s142.07,278,184.44,269.51,50.85-33.9,50.85-33.9,17,129.72-127.12,111.47-525.42-14.44-559.32-20.58-127.11-82.42-127.11-82.42,50.84,25.43,67.79,0,190.54-278.87,190.54-278.87Z"/><path class="cls-4" d="M2315,789.55l7.62,122.67c32.05,39.6,48.75,82.71,48.75,124.55,0,102-59.57,176.7-250.25,196.85,8.32,15,17.8,33,25.88,50.76,0-.83,20,47.17,22.45,79.72a465.66,465.66,0,0,1,3.49,63.18c37.83-13.64,151.15-95.48,158.06-150.73,3.1-24.77,7.39-31.28,24-29,10.63,1.46,39.19,13.47,46,23,10,14,16,37,1,67-40.24,80.48-181.36,110.74-230.44,118.92-2.31,27.33-7.6,53.81-17,75.48,34.07,12.08,26.42,45.64,26.42,64.6,0,25.43-49,33.66-122,24-32.62-4.31-26.17-6.43-28.77-19-47.39,5.14-99.86,3.06-141.91,3.06-49,0-83.91,2.8-120.49-15.76-12.08,10.15-21.81,9.59-42.83,14.75-22.61,5.55-80.77,6-95,2-49.78-14-19.45-66-12.86-85.73,4.57-13.72,33.81-17.51,59.76-18.11-24.26-34.72-24.68-81.39-13.84-129-74.45-34.29-10.65-82.87.69-92.69,7.3-6.32,24.35-10.13,37.57-12.23,10-20.7,20.23-39.55,29.43-55.4-162.07-36.24-274.63-109.23-274.63-209.5,0-41.91,19.66-82.52,54.35-118.4-2.68-33.2-1.32-87.14,23.62-144.3,3.91,0,87.61,35.93,126,52.51,70.25-26,154.27-41.1,245.15-39.8,115.94,1.65,212.35,25.07,286.91,60.87l91.82-84.2"/><path class="cls-10" d="M1614.77,1491.63c-20.39,1.8-39,6.46-42.63,17.19-5.86,17.56-3.61,67,31.86,87.72C1606.4,1565.87,1609.84,1530.36,1614.77,1491.63Z"/><path class="cls-10" d="M1860.27,741.88c-90.88-1.3-174.9,13.77-245.15,39.8-38.42-16.58-122.12-52.51-126-52.51-24.94,57.16-26.3,111.1-23.62,144.3-34.69,35.88-54.35,76.49-54.35,118.4,0,98.22,108,170.25,264.72,207.22,38.78-125.71,97-248.17,184.35-332.29,50.56-48.68,102.62-83.66,153.7-108.43C1967.38,748.53,1916.1,742.67,1860.27,741.88Z"/><path class="cls-10" d="M1656.32,1256.77c-13.22,2.1-30.27,5.91-37.57,12.23-11.34,9.82-75.14,58.4-.69,92.69-8.26,36.28-10,72,.4,102.31,9.57-68.08,23.71-144.33,44.61-220.89Q1659.68,1249.78,1656.32,1256.77Z"/><path class="cls-11" d="M2275.52,1305.43c-6.9,55.25-109.75,97.21-147.58,110.85a465.66,465.66,0,0,0-3.49-63.18c-2.45-32.55-22.45-80.55-22.45-79.72-8.08-17.8-17.56-35.79-25.88-50.76,190.68-20.15,250.25-94.9,250.25-196.85,0-41.84-16.7-84.95-48.75-124.55L2284,729.17l-136.82,73.58c-74.56-35.8-171-59.22-286.91-60.87-90.88-1.3-174.9,13.77-245.15,39.8-38.42-16.59-122.12-52.51-126-52.51-24.94,57.16-26.3,111.1-23.62,144.3-34.69,35.88-54.35,76.49-54.35,118.4,0,100.27,112.56,173.26,274.63,209.5-9.2,15.85-19.48,34.7-29.43,55.4-13.22,2.1-30.27,5.91-37.57,12.23-11.34,9.82-75.14,58.4-.69,92.69-10.84,47.63-10.42,94.3,13.84,129-26,.6-55.19,4.39-59.76,18.11-8.48,25.42,0,117.72,101.69,92.76,21-5.16,36.92-13.63,49-23.78,36.58,18.56,71.44,15.76,120.49,15.76,42,0,94.52,2.08,141.91-3.06,2.6,12.62,15.15,23,47.77,27.31,73,9.65,115.4-7.3,115.4-32.72,0-19-4.75-52.06-38.82-64.14,9.38-21.67,14.67-48.15,17-75.48,49.08-8.18,228.51-43.86,249.05-131.46C2399.42,1212.42,2284,1237.63,2275.52,1305.43Z"/><path class="cls-2" d="M2178.06,809.67s-93.45-25.42-178.08,0-194.79,50.85-254.11,42.38-127.12-76.28-127.12-76.28,220.34-288.13,228.81-305.08,110.17-67.79,127.12-67.79,71.28,42.37,90.72,0,48.69-67.35,48.69-67.35,29.24,100.58,0,113.63-49.34,30.35-94.38,25.93l-45-4.42Z"/><ellipse class="cls-12" cx="1665.04" cy="1082.62" rx="33.9" ry="21.19"/><ellipse class="cls-13" cx="1660.04" cy="1077.62" rx="33.9" ry="21.19"/><path class="cls-14" d="M1680.85,1119.08s215.28,61.76,181.39,146.51c-25.43,50.85-152.54,50.85-127.12,118.64s84.74,33.9,84.74,33.9-33.89,59.32-67.79,59.32-54.12-19.58-54.12-19.58,3.27,45,28.69,45c0,8.48-143-34.94-156.23-140.35,7.38-7.42-4.78-46.08-13.26-20.66s0,65.29,0,65.29-113.57-148.47-14.41-234C1554.62,1154.64,1618.1,1116.65,1680.85,1119.08Z"/><path class="cls-15" d="M1660.85,1109.08s215.28,61.76,181.39,146.51c-25.43,50.85-152.54,50.85-127.12,118.64s84.74,33.9,84.74,33.9-33.89,59.32-67.79,59.32-54.12-19.58-54.12-19.58,3.27,45,28.69,45c0,8.48-143-34.94-156.23-140.35,7.38-7.42-4.78-46.08-13.26-20.66s0,65.29,0,65.29-113.57-148.47-14.41-234C1534.62,1144.64,1598.1,1106.65,1660.85,1109.08Z"/><path class="cls-14" d="M1477.62,1173.15s36.84,47,102.38-5.6c61-49,63-72,63-72s-9.81-8-16-14c-9-8.6-19.32-14-56.59,6.07C1507.4,1121.52,1490.2,1173.94,1477.62,1173.15Z"/><path class="cls-14" d="M1883.55,1173.15s-41.18,51.63-107.52,0-78.08-67.56-78.08-67.56,29.79-51.86,92.8-18S1871,1173.94,1883.55,1173.15Z"/><path class="cls-15" d="M1863.55,1163.15s-41.18,51.63-107.52,0-78.08-67.56-78.08-67.56,29.79-51.86,92.8-18S1851,1163.94,1863.55,1163.15Z"/><path class="cls-15" d="M1457.62,1163.15s41.18,51.63,107.51,0,78.08-67.56,78.08-67.56-29.78-51.86-92.8-18S1470.2,1163.94,1457.62,1163.15Z"/><path class="cls-9" d="M2181,784.56a40.76,40.76,0,0,0-2.94,25.11c-.12-.23-23.92-39.87-23.92-39.87Z"/><ellipse class="cls-16" cx="1651" cy="1066.05" rx="8" ry="5.5"/><path class="cls-2" d="M2110.13,1272.09s-108.21,39.19-167.27,29.35-97-89-97-89,104.11,17.06,155,16.71,89.75-7.81,89.75-7.81Z"/><polygon class="cls-17" points="2046.99 1124.1 1980.65 1124.1 1970 1112.55 1980.65 991.42 2046.99 991.42 2046.99 1124.1"/><rect class="cls-18" x="1969.65" y="979.42" width="66.34" height="132.68"/><polygon class="cls-17" points="2035.99 1018.5 1969.65 991.13 2035.99 965.76 2035.99 1018.5"/><polygon class="cls-19" points="2068.41 998.13 1959.14 998.13 1950 990.55 1959.14 947.4 2059 940.55 2068.41 947.4 2068.41 998.13"/><polygon class="cls-17" points="1562.11 1044.05 1507.48 1044.05 1498 1034.55 1507.48 891.55 1562.11 891.55 1562.11 1044.05"/><polygon class="cls-17" points="1497.48 1034.05 1498 1034.55 1499 1034.55 1499 1033.55 1497.48 1034.05"/><rect class="cls-18" x="1497.48" y="909.18" width="54.63" height="124.87"/><rect class="cls-15" x="1950.14" y="940.4" width="109.26" height="50.73"/><polygon class="cls-17" points="1497.48 909.18 1552.11 928.64 1552.11 891.62 1497.48 909.18"/><polygon class="cls-19" points="1575.72 915.18 1489.87 915.18 1482 909.55 1489.87 880.06 1567 874.55 1575.72 880.06 1575.72 915.18"/><rect class="cls-15" x="1481.87" y="874.06" width="85.85" height="35.12"/><path class="cls-20" d="M1789.77,1518.21l-7.54-41.32c35.52-6.53,135.21-36,128-84.23-3.1-20.72-12.3-25.84-15.32-27.52-17.91-10-49.29-.43-58.87,3.7l-16.62-38.57c5.72-2.47,57-23.47,95.91-1.83,13.81,7.68,31.35,24,36.44,58,4.45,29.79-5.84,72.37-80.16,106C1832,1510.39,1791.47,1517.9,1789.77,1518.21Zm-3.77-20.66-3.78-20.65h0Z"/><path class="cls-20" d="M1482.72,1251.62H1835a0,0,0,0,1,0,0v181.81a133.49,133.49,0,0,1-133.49,133.49H1616.2a133.49,133.49,0,0,1-133.49-133.49V1251.62A0,0,0,0,1,1482.72,1251.62Z" transform="translate(164.33 -173.21) rotate(6.29)"/><path class="cls-20" d="M1867,1260.55c-4.28,51.4-119.43,55.08-214,42-94.92-13.12-127.56-71.23-125.26-92s81.36-29.18,176.6-18.69S1871,1212.55,1867,1260.55Z"/><path class="cls-18" d="M1783.77,1495.21l-7.54-41.32c35.52-6.53,135.21-36,128-84.23-3.1-20.72-12.3-25.84-15.32-27.52-17.91-10-49.29-.43-58.87,3.7l-16.62-38.57c5.72-2.47,57-23.47,95.91-1.83,13.81,7.68,31.35,24,36.44,58,4.45,29.79-5.84,72.37-80.16,106C1826,1487.39,1785.47,1494.9,1783.77,1495.21Zm-3.77-20.66-3.78-20.65h0Z"/><path class="cls-18" d="M1476.72,1228.62H1829a0,0,0,0,1,0,0v181.81a133.49,133.49,0,0,1-133.49,133.49H1610.2a133.49,133.49,0,0,1-133.49-133.49V1228.62A0,0,0,0,1,1476.72,1228.62Z" transform="translate(161.78 -172.69) rotate(6.29)"/><polygon class="cls-18" points="1619.04 1474.4 1394.94 1299.77 1406.35 1250.12 1577.69 1234.66 1619.04 1474.4"/><path class="cls-20" d="M1841.87,1279.52s-66.12,41-189,23.5-155.4-61.13-155.4-61.13S1676.74,1305.49,1841.87,1279.52Z"/><path class="cls-20" d="M1744,1282.23a728.77,728.77,0,0,1-79.12-4.59c-46.79-5.16-90.45-14-122.93-25-38.56-13-56.44-27.16-54.66-43.32,2-18.29,28.08-24.25,36.65-26.21,18.17-4.16,43.22-6.36,72.42-6.36a726.68,726.68,0,0,1,79.13,4.6c46.79,5.15,90.44,14,122.92,25,38.57,13,56.45,27.16,54.66,43.32-2,18.29-28.08,24.26-36.65,26.21C1798.26,1280,1773.22,1282.23,1744,1282.23Z"/><path class="cls-18" d="M1596.37,1187.28a721.25,721.25,0,0,1,78,4.53c95.25,10.5,170.6,35.88,168.31,56.7-1.62,14.72-41.65,23.22-98.64,23.22a721.25,721.25,0,0,1-78-4.53c-95.25-10.5-170.6-35.88-168.3-56.7,1.62-14.72,41.65-23.22,98.63-23.22m0-21v0c-30,0-55.84,2.29-74.77,6.62-11,2.52-19.68,5.69-26.44,9.67-13.69,8-17.51,18.38-18.31,25.63-1,9.3,1.82,23.08,21.18,36,9.72,6.46,23.37,12.67,40.57,18.46,33.17,11.18,77.61,20.22,125.13,25.45a737.21,737.21,0,0,0,80.27,4.66c30,0,55.84-2.29,74.76-6.62,11-2.52,19.68-5.68,26.45-9.66,13.68-8.06,17.5-18.39,18.3-25.64,1-9.3-1.82-23.08-21.18-36-9.72-6.47-23.37-12.68-40.56-18.47-33.18-11.18-77.62-20.22-125.13-25.45a737.36,737.36,0,0,0-80.27-4.66Z"/><path class="cls-20" d="M1428.18,1325.68l11.88,9.26s6.29-9.24,9.38-37-11.28-42.53-11.28-42.53l-7.53-7.32Z"/><ellipse class="cls-18" cx="1397.36" cy="1287.43" rx="56.38" ry="45.83" transform="translate(-170.32 2360.95) rotate(-77.06)"/><ellipse class="cls-20" cx="1379.59" cy="1264.78" rx="10" ry="7" transform="translate(-117.1 2388.55) rotate(-79.41)"/><ellipse class="cls-20" cx="1393.02" cy="1288.12" rx="10" ry="7" transform="translate(-129.08 2420.8) rotate(-79.41)"/><ellipse class="cls-20" cx="1402.02" cy="1255.73" rx="10" ry="7" transform="translate(-89.89 2403.21) rotate(-79.41)"/><ellipse class="cls-20" cx="1417.64" cy="1279.52" rx="10" ry="7" transform="matrix(0.18, -0.98, 0.98, 0.18, -100.53, 2437.98)"/><ellipse class="cls-20" cx="1370.2" cy="1303.48" rx="10" ry="7" transform="translate(-162.81 2410.91) rotate(-79.41)"/><ellipse class="cls-20" cx="1407.87" cy="1309.01" rx="10" ry="7" transform="translate(-137.49 2452.46) rotate(-79.41)"/><ellipse class="cls-20" cx="1386.73" cy="1322.89" rx="10" ry="7" transform="translate(-168.4 2443) rotate(-79.41)"/><path class="cls-18" d="M1706.47,1270.6s-75-38.62,0-74.58c17.06,3.07-58.52-31.35-138.75-21.16s-86.22,37.19-86.22,37.19S1503.45,1287.15,1706.47,1270.6Z"/><ellipse class="cls-20" cx="1669.5" cy="1454.05" rx="39.5" ry="33.5"/><ellipse class="cls-18" cx="1658.5" cy="1443.05" rx="39.5" ry="33.5"/><path class="cls-21" d="M1693,1441.4c0,16.16-20.25-3.05-39.3-3.05s-29.7,19.21-29.7,3.05,15.45-29.26,34.5-29.26S1693,1425.24,1693,1441.4Z"/><ellipse class="cls-20" cx="1581.5" cy="1418.05" rx="39.5" ry="33.5"/><ellipse class="cls-18" cx="1575.5" cy="1400.05" rx="39.5" ry="33.5"/><ellipse class="cls-20" cx="1660.5" cy="1367.05" rx="39.5" ry="33.5"/><ellipse class="cls-18" cx="1652.5" cy="1354.05" rx="39.5" ry="33.5"/><path class="cls-21" d="M1688.33,1345.75c2.29,17.61-17-3.64-37.64-1s-34.91,28.29-37.2,10.67,12.62-34.06,33.28-36.74S1686,1328.14,1688.33,1345.75Z"/><path class="cls-21" d="M1611.33,1394.75c2.29,17.61-17-3.64-37.64-1s-34.91,28.29-37.2,10.67,12.62-34.06,33.28-36.74S1609,1377.14,1611.33,1394.75Z"/><path class="cls-4" d="M1917.1,1362.72l3.06,16.71c3,16.65,13.92,31,29.44,37.78a39.79,39.79,0,0,0,20.4,3.34c27-3,18-8,18-8l-10-38.08Z"/><path class="cls-11" d="M1978,1334.94s-39.4-49.62-57.2,0,26.2,77.61,67.2,77.61Z"/><path class="cls-5" d="M1626.14,766.1s84.36,68.82,144.61,23.64,96.69-301.16,96.69-301.16Z"/><path class="cls-14" d="M1863.55,1163.15h20s2.55,5.6,0,10-17.69,3.87-17.69,3.87Z"/><polygon class="cls-9" points="2160.43 1294.75 2110.13 1271.09 2090.62 1220.36 2125.53 1228.51 2160.43 1294.75"/><path class="cls-22" d="M1497.48,746.2s-31.48,76.45-16,86.4,43.3-43.2,43.3-43.2Z"/><polygon class="cls-22" points="2278.85 867.09 2232 832.55 2278.85 768.8 2303.26 852.71 2278.85 867.09"/><polygon class="cls-23" points="2278.85 867.09 2303.26 852.71 2282.08 779.9 2278.85 867.09"/><path class="cls-24" d="M1260.39,830.07s-93.88-85.09-72.93-116.89S1254.78,774.88,1260.39,830.07Z"/><path class="cls-24" d="M1262.28,829.32s-32.73-108.44,5.08-128.86S1290.42,778.84,1262.28,829.32Z"/><path class="cls-24" d="M1254.36,818.73s35,108-2.36,128.94S1227.29,869.58,1254.36,818.73Z"/><path class="cls-24" d="M1257.84,825S1353.34,909,1333,941,1264.51,880.1,1257.84,825Z"/><path class="cls-24" d="M1253.87,822.22s139.38-24.77,166.79,4.56S1319.91,844.23,1253.87,822.22Z"/><path class="cls-24" d="M1253.9,823.87s139.35,28.3,146.21,63.9S1299.66,866.92,1253.9,823.87Z"/><path class="cls-24" d="M1269.58,823.38s-139.89-26.54-147.5-62.06S1222.93,780.91,1269.58,823.38Z"/><path class="cls-24" d="M1260.86,822.85S1122,849.25,1094,820.23,1194.41,801.61,1260.86,822.85Z"/><path class="cls-24" d="M1263.06,832.7s-138.16-61.49-132-100.75S1230.46,776.76,1263.06,832.7Z"/><path class="cls-24" d="M1264.65,831.37s-86.45-103.62-57.38-135.89S1269.14,770.53,1264.65,831.37Z"/><path class="cls-24" d="M1251.34,822.63s88.59,102.54,60.22,135.19S1248.13,883.53,1251.34,822.63Z"/><path class="cls-24" d="M1258,828.13s139.31,59.89,133.93,99.22S1291.63,883.69,1258,828.13Z"/><path class="cls-24" d="M1253.32,830.33s56.29-113.73,107.52-114.16S1319.61,798.08,1253.32,830.33Z"/><path class="cls-24" d="M1255.28,831.37s118.58-79.68,164.58-61.66S1333.85,826.85,1255.28,831.37Z"/><path class="cls-24" d="M1264.3,820s-116.84,81.18-163.21,63.74S1185.86,825.55,1264.3,820Z"/><path class="cls-24" d="M1258.34,825.82s-54,114.4-105.26,115.43S1192.7,858.85,1258.34,825.82Z"/><path class="cls-24" d="M1253.7,824.17s14.51-110.22,59-119.91S1301.69,783.77,1253.7,824.17Z"/><path class="cls-24" d="M1255.73,824.73s79.15-91.6,124.74-84.12S1322.85,806.48,1255.73,824.73Z"/><path class="cls-24" d="M1260.15,813.13s-77.19,92.61-122.92,85.7S1193.44,832.23,1260.15,813.13Z"/><path class="cls-24" d="M1256.71,819.29S1244.36,929.7,1200,939.9,1209.52,860.26,1256.71,819.29Z"/><path class="cls-24" d="M1250.31,818.51s143.32-45.35,179.2-17.54S1325.81,833.25,1250.31,818.51Z"/><path class="cls-24" d="M1250.72,820.28s155.22,11.63,170.55,48.94S1309.28,860.34,1250.72,820.28Z"/><path class="cls-24" d="M1267.36,817.64S1112,808,1095.84,770.84,1208,778.31,1267.36,817.64Z"/><path class="cls-24" d="M1257.93,818.24s-142.39,47-178.8,19.63S1182.16,804.38,1257.93,818.24Z"/><ellipse class="cls-25" cx="1255.44" cy="831.01" rx="37.57" ry="48.62" transform="translate(386.68 2060.63) rotate(-88.26)"/><path class="cls-24" d="M2552.22,236.34S2436.78,131.71,2462.54,92.6,2545.33,168.48,2552.22,236.34Z"/><path class="cls-24" d="M2554.54,235.42S2514.3,102.07,2560.79,77,2589.15,173.34,2554.54,235.42Z"/><path class="cls-24" d="M2544.8,222.4s43,132.86-2.9,158.54S2511.53,284.92,2544.8,222.4Z"/><path class="cls-24" d="M2549.08,230.07s117.44,103.3,92.45,142.71S2557.29,297.86,2549.08,230.07Z"/><path class="cls-24" d="M2544.2,226.69s171.4-30.47,205.1,5.6S2625.42,253.75,2544.2,226.69Z"/><path class="cls-24" d="M2544.24,228.72s171.35,34.79,179.79,78.57S2600.51,281.65,2544.24,228.72Z"/><path class="cls-24" d="M2563.53,228.11s-172-32.63-181.38-76.31S2506.16,175.89,2563.53,228.11Z"/><path class="cls-24" d="M2552.8,227.46s-170.74,32.47-205.14-3.22S2471.09,201.35,2552.8,227.46Z"/><path class="cls-24" d="M2555.51,239.58S2385.62,164,2393.18,115.69,2515.42,170.79,2555.51,239.58Z"/><path class="cls-24" d="M2557.46,237.94s-106.3-127.42-70.55-167.1S2563,163.13,2557.46,237.94Z"/><path class="cls-24" d="M2541.09,227.19s108.94,126.09,74,166.23S2537.15,302.08,2541.09,227.19Z"/><path class="cls-24" d="M2549.23,234s171.3,73.64,164.68,122S2590.63,302.28,2549.23,234Z"/><path class="cls-24" d="M2543.52,236.66s69.22-139.85,132.22-140.37S2625,197,2543.52,236.66Z"/><path class="cls-24" d="M2545.94,237.94s145.8-98,202.38-75.82S2642.55,232.38,2545.94,237.94Z"/><path class="cls-24" d="M2557,224s-143.69,99.82-200.71,78.38S2460.58,230.79,2557,224Z"/><path class="cls-24" d="M2549.71,231.12s-66.48,140.67-129.44,141.93S2469,271.73,2549.71,231.12Z"/><path class="cls-24" d="M2544,229.08s17.84-135.53,72.59-147.44S2603,179.41,2544,229.08Z"/><path class="cls-24" d="M2546.49,229.77s97.33-112.63,153.39-103.43S2629,207.33,2546.49,229.77Z"/><path class="cls-24" d="M2551.93,215.51S2457,329.38,2400.78,320.89,2469.9,239,2551.93,215.51Z"/><path class="cls-24" d="M2547.7,223.09S2532.51,358.85,2478,371.4,2489.67,273.46,2547.7,223.09Z"/><path class="cls-24" d="M2539.83,222.12s176.23-55.76,220.35-21.56S2632.67,240.25,2539.83,222.12Z"/><path class="cls-24" d="M2540.33,224.3s190.86,14.31,209.72,60.18S2612.34,273.56,2540.33,224.3Z"/><path class="cls-24" d="M2560.79,221.05s-191.09-11.9-210.91-57.54S2487.76,172.69,2560.79,221.05Z"/><path class="cls-24" d="M2549.19,221.8s-175.08,57.82-219.85,24.13S2456,204.75,2549.19,221.8Z"/><ellipse class="cls-25" cx="2546.14" cy="237.49" rx="46.2" ry="59.79" transform="translate(2231.41 2775.24) rotate(-88.26)"/><path class="cls-24" d="M2707.38,665.27s-66-99.79-38.89-122.95S2715.66,614.5,2707.38,665.27Z"/><path class="cls-24" d="M2709.31,665.07s-3.78-105.24,36.15-114S2747.64,627,2709.31,665.07Z"/><path class="cls-24" d="M2704.57,653.61s6,105.46-33.66,114.72S2667.14,692.25,2704.57,653.61Z"/><path class="cls-24" d="M2706.26,660.06s67.78,99.23,41.17,122.77S2699,711.05,2706.26,660.06Z"/><path class="cls-24" d="M2703.26,656.6s134.9,13,153.08,46.16S2759,693,2703.26,656.6Z"/><path class="cls-24" d="M2702.89,658.09s121.91,60.46,119.56,94S2734.68,708.13,2702.89,658.09Z"/><path class="cls-24" d="M2717.51,661.6s-122.84-59-121.2-92.72S2684.75,611.85,2717.51,661.6Z"/><path class="cls-24" d="M2709.58,658.93S2574.78,647.51,2556,614.5,2653.33,623.17,2709.58,658.93Z"/><path class="cls-24" d="M2709.2,668.3s-112.7-89.86-97.44-123.42S2692.73,610,2709.2,668.3Z"/><path class="cls-24" d="M2711,667.5s-54.62-114.48-19.87-136S2730,614.23,2711,667.5Z"/><path class="cls-24" d="M2700.82,656.33s56.87,114.06,22.67,136.1S2683,710,2700.82,656.33Z"/><path class="cls-24" d="M2705.6,662.92s114.16,88.71,99.58,122.53S2723.16,721.11,2705.6,662.92Z"/><path class="cls-24" d="M2700.77,663.72s79.8-87.52,127.26-75S2769.93,651.6,2700.77,663.72Z"/><path class="cls-24" d="M2702.33,665.14s129.07-41.34,167.2-13.62S2776.07,680.92,2702.33,665.14Z"/><path class="cls-24" d="M2713.44,657.29S2585.61,700.41,2547,673.12,2639.58,642.42,2713.44,657.29Z"/><path class="cls-24" d="M2706.52,661s-77.89,88.68-125.48,76.68S2637.78,673.93,2706.52,661Z"/><path class="cls-24" d="M2702.63,658.3S2743,563.38,2786.48,566,2756.86,634.28,2702.63,658.3Z"/><path class="cls-24" d="M2704.37,659.31s95.53-61.95,135.84-43.76S2770.87,659.92,2704.37,659.31Z"/><path class="cls-24" d="M2711.29,650.06s-94,63.35-134.54,45.63S2645,650.31,2711.29,650.06Z"/><path class="cls-24" d="M2706.61,654.7s-38.37,95.63-81.84,93.57S2653,679.43,2706.61,654.7Z"/><path class="cls-24" d="M2700.88,652.38s143.55-4.4,169.93,29.53S2767.08,684.62,2700.88,652.38Z"/><path class="cls-24" d="M2700.82,654.07s140.65,49.57,145.72,86.8S2745.18,704.68,2700.82,654.07Z"/><path class="cls-24" d="M2716.85,655.91S2575.56,608,2569.72,570.78,2671.55,605.75,2716.85,655.91Z"/><path class="cls-24" d="M2708,654.07s-143.1,6.13-170.07-27.56S2641.34,622.55,2708,654.07Z"/><ellipse class="cls-25" cx="2702.57" cy="664.86" rx="34.84" ry="46.59" transform="translate(1284.78 3059.81) rotate(-73.2)"/><path class="cls-24" d="M835.82,365.77s-69.77-173.09-22.63-205S862.81,285.84,835.82,365.77Z"/><path class="cls-24" d="M838.76,365.83s24.65-169.76,86.75-176S906.92,312.17,838.76,365.83Z"/><path class="cls-24" d="M835,346.5S813.56,517,751.75,524.2,768,401.29,835,346.5Z"/><path class="cls-24" d="M835.66,357.2s72.57,172.53,26.09,205.16S810.11,437.67,835.66,357.2Z"/><path class="cls-24" d="M832.18,351.05s197.54,47.12,215.12,103.89S904.81,420.25,832.18,351.05Z"/><path class="cls-24" d="M831.2,353.37s164.5,120.8,151.32,174.26S864.23,439.92,831.2,353.37Z"/><path class="cls-24" d="M852,361.86S685.69,243.18,697.84,189.39,817.44,275.58,852,361.86Z"/><path class="cls-24" d="M840.93,356S643.08,311.48,624.57,254.81,767.3,287.65,840.93,356Z"/><path class="cls-24" d="M837.68,371S695.37,204.78,727.81,153.84,829.86,274.23,837.68,371Z"/><path class="cls-24" d="M840.58,370.07S792,175.59,850.09,147.76,884.27,288.19,840.58,370.07Z"/><path class="cls-24" d="M828.62,350.14s52,194.24-5.35,223S786.57,432.85,828.62,350.14Z"/><path class="cls-24" d="M833.85,361.65S978.66,526.31,947.17,577.8,843.31,458.52,833.85,361.65Z"/><path class="cls-24" d="M826.42,362s144.26-125,211.47-95.67S933.1,356,826.42,362Z"/><path class="cls-24" d="M828.34,364.59s204.47-41.31,253.39,10.62S933.82,404.26,828.34,364.59Z"/><path class="cls-24" d="M847.18,354.13S644,398.55,594.27,347.2,741.25,315.91,847.18,354.13Z"/><path class="cls-24" d="M835.79,358.68S694,486,626.49,457.43,729.48,366.15,835.79,358.68Z"/><path class="cls-24" d="M830.75,353.66s87.48-144.6,151.69-132S918.58,325.62,830.75,353.66Z"/><path class="cls-24" d="M833.06,355.62s160.37-80.92,215.29-43.87S932.11,369.53,833.06,355.62Z"/><path class="cls-24" d="M846.05,342.1s-158.44,83.48-213.89,47.14S747,329.61,846.05,342.1Z"/><path class="cls-24" d="M837.72,348.65S752.94,494.77,688.67,483,750.59,378,837.72,348.65Z"/><path class="cls-24" d="M829.84,343.82s215.47,20.83,245.06,80.44S919.33,408.46,829.84,343.82Z"/><path class="cls-24" d="M829.27,346.51s195.59,107,192.44,167.74S880.89,436.41,829.27,346.51Z"/><path class="cls-24" d="M852.66,352.58s-197-104.33-195-165.32S799.51,263.22,852.66,352.58Z"/><path class="cls-24" d="M840,347.91s-215.29-18-245.83-77.32S749.58,284.33,840,347.91Z"/><ellipse class="cls-25" cx="828.78" cy="364.18" rx="57.17" ry="69.61" transform="translate(134.04 944.55) rotate(-63.6)"/><path class="cls-3" d="M1346.52,790.91c4,47-29.75,40-72.09,43.56s-52.33.14-56.34-46.83,2.15-71.62,44.5-75.23S1342.51,744,1346.52,790.91Z"/><rect class="cls-3" x="1288.96" y="654.62" width="43.3" height="126.1" rx="21.65" transform="translate(-56.26 114) rotate(-4.88)"/><rect class="cls-3" x="1213.46" y="658.21" width="43.3" height="126.1" rx="21.65" transform="matrix(1, -0.09, 0.09, 1, -56.84, 107.6)"/><ellipse class="cls-3" cx="1210.4" cy="814.56" rx="16.59" ry="12.96" transform="translate(-64.86 105.83) rotate(-4.88)"/><ellipse class="cls-3" cx="1355.01" cy="804.92" rx="19.59" ry="15.64" transform="translate(-63.52 118.09) rotate(-4.88)"/><ellipse class="cls-3" cx="1265.94" cy="839.16" rx="20.54" ry="16.28" transform="translate(-66.75 110.65) rotate(-4.88)"/><ellipse class="cls-3" cx="1320.85" cy="837.65" rx="21.33" ry="14.7" transform="translate(-66.42 115.31) rotate(-4.88)"/><ellipse class="cls-4" cx="1282.95" cy="783.79" rx="42.19" ry="37.45" transform="matrix(1, -0.09, 0.09, 1, -61.98, 111.89)"/><path class="cls-3" d="M2528.59,104.9c-3.08,36.19,22.92,30.78,55.55,33.56s40.32.1,43.4-36.08-1.65-55.18-34.28-58S2531.68,68.71,2528.59,104.9Z"/><rect class="cls-3" x="2539.58" y="-0.11" width="33.36" height="97.16" rx="16.68" transform="translate(5099.15 314.04) rotate(-175.12)"/><rect class="cls-3" x="2597.75" y="2.65" width="33.36" height="97.16" rx="16.68" transform="translate(5215.05 324.51) rotate(-175.12)"/><ellipse class="cls-3" cx="2633.47" cy="123.12" rx="9.98" ry="12.78" transform="translate(2286.95 2736.59) rotate(-85.12)"/><ellipse class="cls-3" cx="2522.05" cy="115.69" rx="12.05" ry="15.1" transform="translate(2192.4 2618.78) rotate(-85.12)"/><ellipse class="cls-3" cx="2590.68" cy="142.07" rx="12.54" ry="15.83" transform="translate(2228.91 2711.29) rotate(-85.12)"/><ellipse class="cls-3" cx="2548.37" cy="140.91" rx="11.32" ry="16.44" transform="matrix(0.09, -1, 1, 0.09, 2191.36, 2668.08)"/><ellipse class="cls-4" cx="2577.58" cy="99.41" rx="28.86" ry="32.51" transform="matrix(0.09, -1, 1, 0.09, 2259.43, 2659.2)"/><path class="cls-3" d="M811.38,1038.56c11.45-.72,21.75,14.8,23,34.67s-2.95,28.6-14.4,29.32-25.81-6.81-27.08-26.69S799.92,1039.29,811.38,1038.56Z"/><path class="cls-3" d="M862.12,1046.87c9.25-1.09,18.16,10.05,19.91,24.88s-1.78,19.71-11,20.8-20.73-2-22.48-16.85S852.86,1048,862.12,1046.87Z"/><ellipse class="cls-3" cx="799.32" cy="971.13" rx="12.67" ry="15.86" transform="translate(-414.49 641.47) rotate(-35.35)"/><path class="cls-3" d="M881.92,1038.58c-1.75,38.13-27.54,36.55-61.92,35s-42.57-13-40.83-51.17,9.29-57.26,43.67-55.68S883.66,1000.46,881.92,1038.58Z"/><rect class="cls-3" x="809.79" y="958.47" width="102.1" height="35.06" rx="17.53" transform="translate(-425.79 1171.44) rotate(-57.23)"/><rect class="cls-3" x="769.14" y="949.98" width="102.1" height="35.06" rx="17.53" transform="translate(-406.28 1290.86) rotate(-64.48)"/><ellipse class="cls-3" cx="775.24" cy="988.41" rx="14.93" ry="19.12" transform="translate(-428.93 630.73) rotate(-35.35)"/><path class="cls-26" d="M1345.55,1316.5s-22.31,34.65-29.92,26.09S1321.3,1302.61,1345.55,1316.5Z"/><path class="cls-26" d="M1344.38,1369s4.29,41-7,39.07S1316.77,1373.38,1344.38,1369Z"/><path class="cls-26" d="M1375.38,1314s4.29,41-7,39.07S1347.77,1318.38,1375.38,1314Z"/><path class="cls-26" d="M2339.73,908.58s54.62,84.84,73.25,63.88S2399.1,874.57,2339.73,908.58Z"/><path class="cls-26" d="M2369.57,872.7s107-7.44,97-35.54S2368.29,800,2369.57,872.7Z"/></g></g></svg>