<svg width="268" height="810" viewBox="0 0 268 810" fill="none" xmlns="http://www.w3.org/2000/svg">
<path d="M126.157 501.116L119.089 497.341C143.628 451.306 158.515 399.721 166.7 364.53C175.586 326.333 178.69 298.701 178.728 298.427L186.691 299.302C186.663 299.576 183.516 327.588 174.538 366.222C166.238 401.904 151.11 454.268 126.157 501.116Z" fill="#6FEFD0"/>
<path d="M76.8442 809.855L162.903 801.06L166.012 674.235C166.012 646.344 146.049 623.742 121.428 623.742C96.8025 623.742 76.8442 646.344 76.8442 674.235V809.855Z" fill="#18DCD0"/>
<path d="M138.003 638.755C138.003 638.755 132.711 633.124 114.87 632.504C97.0284 631.883 86.9626 653.995 84.8455 663.155C82.7284 672.316 82.6611 686.041 82.6611 686.041C82.6611 686.041 86.8182 702.521 98.4525 691.811C110.087 681.102 96.2345 654.48 115.586 650.027C134.938 645.574 138.003 638.755 138.003 638.755Z" fill="#6FEFD0"/>
<path d="M122.342 625.242C122.448 622.434 132.581 343.068 128.068 224.308C123.478 103.528 97.4908 58.0844 96.389 56.209L90.9855 64.3841L93.6848 60.3061L90.9712 64.3648C91.0337 64.4706 97.2695 75.3819 103.962 100.354C110.164 123.48 118.041 163.716 120.322 224.029C124.806 342.048 114.697 620.679 114.596 623.478L122.342 625.242Z" fill="#6FEFD0"/>
<path d="M88.3924 233.223C88.3924 233.223 29.7589 207.304 62.718 190.473C95.677 173.642 88.3924 233.223 88.3924 233.223Z" fill="#6FEFD0"/>
<path d="M140.679 276.869C140.679 276.869 194.005 215.315 187.428 252.901C180.85 290.487 140.679 276.869 140.679 276.869Z" fill="#6FEFD0"/>
<path d="M161.369 442.775C161.369 442.775 214.695 381.221 208.118 418.807C201.54 456.393 161.369 442.775 161.369 442.775Z" fill="#6FEFD0"/>
<path d="M111.593 114.392C111.593 114.392 56.0488 64.0764 68.4433 45.2689C80.8379 26.4614 108.278 81.7586 111.593 114.392Z" fill="white"/>
<path d="M112.71 113.949C112.71 113.949 93.3479 49.8228 115.717 37.767C138.086 25.7111 129.362 84.0956 112.71 113.949Z" fill="white"/>
<path d="M108.023 107.688C108.023 107.688 128.713 171.578 106.628 183.928C84.5428 196.277 92.0152 137.753 108.023 107.688Z" fill="white"/>
<path d="M110.083 111.376C110.083 111.376 166.589 161.052 154.565 180.004C142.541 198.955 114.033 143.976 110.083 111.376Z" fill="white"/>
<path d="M107.734 109.751C107.734 109.751 190.204 95.0984 206.419 112.444C222.634 129.79 146.814 122.764 107.734 109.751Z" fill="white"/>
<path d="M107.753 110.727C107.753 110.727 190.199 127.457 194.26 148.51C198.321 169.564 134.828 136.18 107.753 110.727Z" fill="white"/>
<path d="M117.035 110.434C117.035 110.434 34.2766 94.7424 29.7634 73.7372C25.2502 52.7321 89.4313 85.3218 117.035 110.434Z" fill="white"/>
<path d="M111.873 110.121C111.873 110.121 29.7203 125.736 13.1686 108.573C-3.38307 91.4099 72.5575 97.5652 111.873 110.121Z" fill="white"/>
<path d="M113.176 115.95C113.176 115.95 31.433 79.6042 35.0705 56.3725C38.7081 33.1409 93.8868 82.8694 113.176 115.95Z" fill="white"/>
<path d="M114.115 115.161C114.115 115.161 62.968 53.8864 80.1693 34.8048C97.3705 15.7232 116.78 79.1859 114.115 115.161Z" fill="white"/>
<path d="M106.238 109.991C106.238 109.991 158.655 170.626 141.843 189.929C125.032 209.232 104.342 146.005 106.238 109.991Z" fill="white"/>
<path d="M110.154 113.266C110.154 113.266 192.576 148.679 189.391 171.934C186.205 195.19 130.074 146.101 110.154 113.266Z" fill="white"/>
<path d="M107.407 114.545C107.407 114.545 140.713 47.2934 171.025 47.0433C201.338 46.7933 146.612 95.4734 107.407 114.545Z" fill="white"/>
<path d="M108.572 115.161C108.572 115.161 178.724 68.0341 205.948 78.7001C233.171 89.3662 155.056 112.487 108.572 115.161Z" fill="white"/>
<path d="M113.893 108.457C113.893 108.457 44.7561 156.46 17.3207 146.149C-10.1147 135.839 67.5002 111.723 113.893 108.457Z" fill="white"/>
<path d="M110.385 111.881C110.385 111.881 78.3981 179.528 48.1046 180.134C17.8112 180.74 71.5512 131.41 110.385 111.881Z" fill="white"/>
<path d="M107.638 110.9C107.638 110.9 116.222 45.7258 142.565 39.9984C168.908 34.271 136.026 87.0147 107.638 110.9Z" fill="white"/>
<path d="M108.836 111.232C108.836 111.232 155.667 57.0697 182.64 61.4938C209.614 65.918 148.536 100.441 108.836 111.232Z" fill="white"/>
<path d="M111.454 104.375C111.454 104.375 65.778 159.133 38.7275 155.05C11.677 150.968 71.9848 115.671 111.454 104.375Z" fill="white"/>
<path d="M109.418 108.02C109.418 108.02 102.109 173.305 75.8817 179.34C49.654 185.375 81.4968 132.242 109.418 108.02Z" fill="white"/>
<path d="M105.632 107.553C105.632 107.553 190.426 80.7389 211.654 97.1852C232.883 113.632 150.302 116.272 105.632 107.553Z" fill="white"/>
<path d="M105.873 108.602C105.873 108.602 197.706 115.483 206.78 137.541C215.855 159.6 140.52 132.29 105.873 108.602Z" fill="white"/>
<path d="M115.717 107.039C115.717 107.039 23.773 101.316 14.2365 79.3685C4.70006 57.4209 80.5781 83.7831 115.717 107.039Z" fill="white"/>
<path d="M110.135 107.399C110.135 107.399 25.895 135.204 4.35376 119.003C-17.1875 102.802 65.2967 99.2002 110.135 107.399Z" fill="white"/>
<path d="M137.405 115.815C137.777 103.551 125.206 93.2175 109.325 92.7354C93.4437 92.2532 80.2675 101.805 79.8947 114.069C79.5219 126.334 92.0938 136.667 107.975 137.149C123.856 137.631 137.032 128.08 137.405 115.815Z" fill="#FFBFB3"/>
<path d="M186.249 320.658C186.249 320.658 154.493 272.67 167.537 261.533C180.581 250.396 190.233 296.244 186.249 320.658Z" fill="white"/>
<path d="M187.178 320.562C187.178 320.562 185.359 269.954 204.572 265.741C223.784 261.528 205.621 302.255 187.178 320.562Z" fill="white"/>
<path d="M184.897 315.051C184.897 315.051 187.784 365.765 168.702 370.218C149.619 374.671 166.888 333.632 184.897 315.051Z" fill="white"/>
<path d="M185.711 318.153C185.711 318.153 218.323 365.871 205.52 377.191C192.716 388.511 182.217 342.673 185.711 318.153Z" fill="white"/>
<path d="M184.267 316.489C184.267 316.489 249.174 322.741 257.922 338.687C266.669 354.633 211.086 333.993 184.267 316.489Z" fill="white"/>
<path d="M184.088 317.205C184.088 317.205 242.746 346.28 241.615 362.409C240.484 378.538 199.384 341.269 184.088 317.205Z" fill="white"/>
<path d="M191.123 318.893C191.123 318.893 132.018 290.521 132.807 274.306C133.596 258.09 175.36 294.969 191.123 318.893Z" fill="white"/>
<path d="M187.308 317.609C187.308 317.609 122.448 312.118 113.412 296.244C104.376 280.37 160.243 300.413 187.308 317.609Z" fill="white"/>
<path d="M187.125 322.115C187.125 322.115 132.899 278.903 140.241 262.764C147.584 246.626 179.2 294.08 187.125 322.115Z" fill="white"/>
<path d="M187.991 321.731C187.991 321.731 161.71 266.679 178.43 256.33C195.15 245.981 197.133 296.114 187.991 321.731Z" fill="white"/>
<path d="M183.093 316.359C183.093 316.359 210.456 371.209 194 381.808C177.545 392.407 174.519 342.168 183.093 316.359Z" fill="white"/>
<path d="M185.393 319.528C185.393 319.528 240.321 362.188 233.306 378.451C226.291 394.715 193.842 347.511 185.393 319.528Z" fill="white"/>
<path d="M183.069 319.913C183.069 319.913 221.465 277.826 244.301 283.846C267.136 289.867 216.345 314.085 183.069 319.913Z" fill="white"/>
<path d="M183.819 320.596C183.819 320.596 245.922 300.716 264.268 314.046C282.615 327.376 219.3 328.184 183.819 320.596Z" fill="white"/>
<path d="M189.165 316.821C189.165 316.821 127.659 337.557 109.081 324.433C90.5041 311.31 153.627 309.67 189.165 316.821Z" fill="white"/>
<path d="M185.835 318.605C185.835 318.605 148.358 361.25 125.46 355.479C102.562 349.709 152.761 324.823 185.835 318.605Z" fill="white"/>
<path d="M183.964 317.306C183.964 317.306 203.388 271.661 224.309 272.921C245.229 274.18 210.057 305.756 183.964 317.306Z" fill="white"/>
<path d="M184.801 317.792C184.801 317.792 230.766 288.001 250.161 296.749C269.556 305.496 216.798 318.086 184.801 317.792Z" fill="white"/>
<path d="M188.13 313.344C188.13 313.344 142.902 343.808 123.396 335.287C103.89 326.766 156.234 313.464 188.13 313.344Z" fill="white"/>
<path d="M185.879 315.575C185.879 315.575 167.417 361.562 146.501 360.572C125.585 359.581 160.084 327.468 185.879 315.575Z" fill="white"/>
<path d="M183.121 314.459C183.121 314.459 252.191 312.344 264.884 328.66C277.577 344.977 214.973 329.963 183.121 314.459Z" fill="white"/>
<path d="M183.093 315.272C183.093 315.272 250.767 339.11 253.207 357.013C255.646 374.917 204.437 339.61 183.093 315.272Z" fill="white"/>
<path d="M190.805 316.157C190.805 316.157 122.823 293.118 120.013 275.219C117.203 257.321 169.009 292.036 190.805 316.157Z" fill="white"/>
<path d="M186.547 315.272C186.547 315.272 117.694 318.22 104.717 302.019C91.7404 285.818 154.473 300.115 186.547 315.272Z" fill="white"/>
<path d="M205.31 326.885C207.985 318.027 200.547 307.947 188.694 304.371C176.842 300.794 165.065 305.076 162.389 313.934C159.713 322.792 167.152 332.872 179.004 336.449C190.856 340.025 202.634 335.743 205.31 326.885Z" fill="#FFBFB3"/>
<path d="M100.223 51.1836C98.7414 68.5869 111.251 65.9853 126.951 67.3222C142.651 68.6591 146.352 67.3703 147.834 49.9718C149.315 32.5733 147.04 23.4365 131.34 22.0804C115.64 20.7243 101.71 33.7803 100.223 51.1836Z" fill="#0E0029"/>
<path d="M104.244 38.5615C103.867 42.9754 107.142 46.8591 111.558 47.2359C115.975 47.6128 119.86 44.3401 120.237 39.9262L122.849 9.3568C123.226 4.94287 119.951 1.05918 115.535 0.682327C111.119 0.305472 107.233 3.57817 106.856 7.99209L104.244 38.5615Z" fill="#0E0029"/>
<path d="M132.235 39.8944C131.858 44.3083 135.133 48.192 139.549 48.5689C143.966 48.9457 147.852 45.673 148.229 41.2591L150.84 10.6897C151.217 6.27582 147.943 2.39213 143.526 2.01527C139.11 1.63842 135.224 4.9111 134.847 9.32503L132.235 39.8944Z" fill="#0E0029"/>
<path d="M156.9 60.4779C157.126 57.8369 154.566 55.462 151.182 55.1732C147.798 54.8845 144.872 56.7913 144.647 59.4323C144.421 62.0732 146.981 64.4482 150.365 64.7369C153.749 65.0257 156.675 63.1188 156.9 60.4779Z" fill="#0E0029"/>
<path d="M104.397 57.0016C104.67 53.8129 101.649 50.9513 97.6513 50.6102C93.6533 50.269 90.1914 52.5774 89.919 55.7662C89.6466 58.9549 92.6668 61.8164 96.6649 62.1576C100.663 62.4987 104.125 60.1903 104.397 57.0016Z" fill="#0E0029"/>
<path d="M137.77 69.7139C138.053 66.3956 134.886 63.4155 130.694 63.0579C126.503 62.7002 122.875 65.1004 122.592 68.4188C122.308 71.7371 125.476 74.7172 129.668 75.0748C133.859 75.4325 137.487 73.0323 137.77 69.7139Z" fill="#0E0029"/>
<path d="M124.028 65.1156C124.299 62.1092 120.977 59.3535 116.608 58.9605C112.239 58.5676 108.478 60.6861 108.207 63.6926C107.937 66.699 111.259 69.4548 115.627 69.8478C119.996 70.2407 123.757 68.122 124.028 65.1156Z" fill="#0E0029"/>
<path d="M145.809 45.6981C146.5 38.0332 140.056 31.1898 131.417 30.4127C122.778 29.6356 115.215 35.2192 114.525 42.884C113.834 50.5488 120.278 57.3924 128.917 58.1695C137.556 58.9466 145.119 53.3629 145.809 45.6981Z" fill="#3B28CE"/>
</svg>
