<svg xmlns="http://www.w3.org/2000/svg" viewBox="0 0 476.33 1616.56"><defs><style>.cls-1{fill:#3b28ce;}.cls-2{fill:#18bcd0;}.cls-3{fill:#189bb7;}.cls-4{fill:#5488eb;}.cls-5{fill:#543ceb;}.cls-6{fill:#18dcd0;}.cls-7{fill:#719fba;}.cls-8{fill:#8cb7ba;}.cls-9{fill:#c2d6fe;}.cls-10{fill:#e1f1fe;}.cls-11{fill:#abdad8;}.cls-12{fill:#c09fff;}.cls-13{fill:#d0baff;}.cls-14{fill:#d1e2fe;}.cls-15{fill:#6fefd0;}.cls-16{fill:#83cfca;}.cls-17{fill:#afdaba;}</style></defs><g id="Layer_2" data-name="Layer 2"><g id="Layer_1-2" data-name="Layer 1"><polygon class="cls-1" points="59.96 195.31 57.17 196.09 37.14 187.5 58.58 192.74 59.96 195.31"/><path class="cls-2" d="M277,64.38l21.46,2.1c21.45,2.11,31-6.14,44.95-12.35s0-54.13,0-54.13h-8.57l1.62,7.11a105.28,105.28,0,0,0-16.24,25c-9.26,20.18-35.14,0-43.22,0s-56.51,24.22-60.55,32.3-109,145.33-109,145.33S139.78,242,168,246s80.74-8.07,121.06-20.19,84.83,0,84.83,0Z"/><path class="cls-3" d="M304.84,416.39s67.68,132.42,87.87,128.38,24.22-16.14,24.22-16.14,8.07,61.79-60.55,53.1-250.3-6.88-266.44-9.81-60.56-39.26-60.56-39.26,24.22,12.11,32.3,0,90.76-132.84,90.76-132.84Z"/><path class="cls-1" d="M430.58,216.27l3.63,58.44c15.27,18.86,23.22,39.39,23.22,59.33,0,48.56-28.38,84.17-119.21,93.77,4,7.13,8.48,15.7,12.33,24.18,0-.39,9.52,22.47,10.69,38a220.58,220.58,0,0,1,1.66,30.1c18-6.49,72-45.48,75.3-71.8,1.47-11.8,3.52-14.9,11.43-13.81,5.07.69,18.67,6.41,21.91,10.95,4.77,6.67,7.63,17.63.48,31.92-19.17,38.33-86.39,52.75-109.77,56.64-1.1,13-3.63,25.64-8.09,36,16.23,5.76,12.58,21.74,12.58,30.78,0,12.11-23.32,16-58.11,11.43-15.54-2-12.47-3.06-13.71-9.08-22.57,2.45-47.57,1.46-67.6,1.46-23.37,0-40,1.33-57.4-7.5-5.75,4.83-10.38,4.56-20.4,7-10.77,2.65-38.47,2.87-45.25,1-23.72-6.7-9.27-31.43-6.13-40.85,2.18-6.53,16.1-8.34,28.47-8.62-11.56-16.54-11.76-38.77-6.6-61.46-35.46-16.34-5.07-39.48.33-44.16,3.48-3,11.6-4.82,17.9-5.82,4.74-9.86,9.64-18.84,14-26.39-77.2-17.27-130.82-52-130.82-99.8,0-20,9.36-39.31,25.89-56.4a144.32,144.32,0,0,1,11.25-68.75c1.86,0,41.73,17.12,60,25,33.46-12.4,73.48-19.58,116.78-19,55.22.79,101.15,11.94,136.67,29l43.74-40.11"/><path class="cls-4" d="M97,550.71c-9.71.86-18.6,3.08-20.31,8.19-2.79,8.37-1.72,31.94,15.18,41.79C93,586.08,94.66,569.16,97,550.71Z"/><path class="cls-4" d="M214,193.56c-43.3-.62-83.32,6.56-116.78,19-18.3-7.9-58.18-25-60-25a144.32,144.32,0,0,0-11.25,68.75C9.36,273.34,0,292.68,0,312.65c0,46.78,51.45,81.1,126.1,98.71,18.48-59.89,46.2-118.22,87.82-158.29,24.09-23.19,48.88-39.85,73.22-51.65A379.75,379.75,0,0,0,214,193.56Z"/><path class="cls-4" d="M116.8,438.84c-6.29,1-14.42,2.81-17.89,5.82-5.41,4.68-35.8,27.82-.33,44.16-3.94,17.28-4.75,34.3.19,48.73A854.59,854.59,0,0,1,120,432.33Q118.4,435.51,116.8,438.84Z"/><path class="cls-5" d="M411.77,462c-3.29,26.32-52.28,46.31-70.3,52.8a222.13,222.13,0,0,0-1.67-30.1c-1.16-15.5-10.69-38.36-10.69-38-3.85-8.48-8.36-17.05-12.33-24.18C407.62,413,436,377.36,436,328.8c0-19.94-7.95-40.47-23.22-59.33l3-82-65.18,35.06c-35.52-17.06-81.44-28.21-136.67-29-43.3-.62-83.32,6.56-116.78,19-18.3-7.9-58.18-25-60-25a144.32,144.32,0,0,0-11.25,68.75C9.36,273.34,0,292.68,0,312.65c0,47.76,53.62,82.53,130.82,99.8-4.38,7.55-9.28,16.53-14,26.39-6.29,1-14.42,2.81-17.89,5.82-5.41,4.68-35.8,27.82-.33,44.16-5.17,22.69-5,44.92,6.59,61.46-12.36.28-26.29,2.09-28.47,8.62-4,12.12,0,56.08,48.45,44.19,10-2.46,17.58-6.49,23.34-11.32,17.42,8.83,34,7.5,57.4,7.5,20,0,45,1,67.59-1.46,1.25,6,7.22,11,22.76,13,34.79,4.6,55-3.47,55-15.58,0-9-2.27-24.8-18.5-30.56,4.47-10.32,7-22.93,8.09-36,23.38-3.89,108.86-20.89,118.64-62.62C470.79,417.71,415.81,429.72,411.77,462Z"/><path class="cls-6" d="M365.35,225.85s-44.52-12.11-84.84,0-92.79,24.23-121,20.19-60.55-36.33-60.55-36.33,105-137.26,109-145.33,52.48-32.3,60.56-32.3,34,20.18,43.22,0A101.51,101.51,0,0,1,334.87,0s13.93,47.91,0,54.13-23.51,14.46-45,12.35l-21.45-2.1Z"/><ellipse class="cls-7" cx="218.13" cy="348.73" rx="16.15" ry="10.09"/><ellipse class="cls-8" cx="215.75" cy="346.35" rx="16.15" ry="10.09"/><path class="cls-9" d="M225.67,366.1s102.55,29.42,86.4,69.79c-12.11,24.22-72.66,24.22-60.55,56.52s40.37,16.15,40.37,16.15-16.15,28.26-32.3,28.26a39.2,39.2,0,0,1-25.78-9.33s1.56,21.44,13.67,21.44c0,4-68.1-16.65-74.42-66.86,3.52-3.54-2.28-22-6.32-9.85s0,31.11,0,31.11-54.1-70.73-6.86-111.47C165.54,383,195.77,364.94,225.67,366.1Z"/><path class="cls-10" d="M216.14,361.34s102.55,29.42,86.41,69.79c-12.11,24.22-72.67,24.22-60.56,56.52s40.37,16.14,40.37,16.14-16.15,28.26-32.29,28.26a39.17,39.17,0,0,1-25.78-9.33s1.55,21.44,13.67,21.44c0,4-68.11-16.64-74.43-66.86,3.52-3.53-2.28-21.95-6.31-9.84s0,31.1,0,31.1-54.11-70.72-6.87-111.46C156,378.27,186.25,360.18,216.14,361.34Z"/><path class="cls-9" d="M128.85,391.86s17.56,22.41,48.78-2.67c29.05-23.34,30-34.3,30-34.3s-4.68-3.83-7.62-6.67c-4.27-4.1-9.21-6.65-27,2.9C143,367.26,134.85,392.23,128.85,391.86Z"/><path class="cls-9" d="M322.23,391.86s-19.62,24.59-51.22,0-37.2-32.19-37.2-32.19S248,335,278,351.12,316.23,392.23,322.23,391.86Z"/><path class="cls-10" d="M312.7,387.1s-19.62,24.59-51.22,0-37.19-32.19-37.19-32.19,14.19-24.71,44.2-8.56S306.7,387.47,312.7,387.1Z"/><path class="cls-10" d="M119.33,387.1s19.61,24.59,51.21,0,37.2-32.19,37.2-32.19-14.19-24.71-44.21-8.56S125.32,387.47,119.33,387.1Z"/><path class="cls-2" d="M366.74,213.89a19.42,19.42,0,0,0-1.39,12l-11.4-19Z"/><ellipse class="cls-11" cx="211.45" cy="340.84" rx="3.81" ry="2.62"/><polygon class="cls-12" points="371.98 357.54 340.38 357.54 335.3 352.04 340.38 294.33 371.98 294.33 371.98 357.54"/><rect class="cls-13" x="335.14" y="288.62" width="31.6" height="63.2"/><polygon class="cls-12" points="366.74 307.23 335.14 294.19 366.74 282.11 366.74 307.23"/><polygon class="cls-14" points="382.18 297.53 330.13 297.53 325.78 293.92 330.13 273.36 377.7 270.1 382.18 273.36 382.18 297.53"/><rect class="cls-10" x="325.84" y="270.03" width="52.05" height="24.17"/><polygon class="cls-12" points="113.31 360.87 81.71 360.87 76.64 355.37 81.71 297.67 113.31 297.67 113.31 360.87"/><rect class="cls-13" x="76.47" y="291.95" width="31.6" height="63.2"/><polygon class="cls-12" points="108.07 310.56 76.47 297.53 108.07 285.44 108.07 310.56"/><polygon class="cls-14" points="123.51 300.86 71.46 300.86 67.11 297.25 71.46 276.7 119.03 273.44 123.51 276.7 123.51 300.86"/><rect class="cls-10" x="67.18" y="273.36" width="52.05" height="24.17"/><path class="cls-1" d="M365.45,465.77l-2.69-7.64a24.28,24.28,0,0,0-16.65-15.59,19,19,0,0,0-9.85-.06c-12.48,3.42-7.88,5.1-7.88,5.1l7.54,17.18Z"/><path class="cls-5" d="M338.85,483.36s22.22,20.42,26.92-4.25-18.09-34.57-37.39-31.53Z"/><path class="cls-15" d="M102.43,205.1s40.18,32.78,68.88,11.26S217.38,72.9,217.38,72.9Z"/><rect class="cls-16" x="351.2" y="409.16" width="32" height="91" transform="translate(126.21 -77.77) rotate(14.57)"/><rect class="cls-16" x="345.74" y="371.47" width="52" height="52" rx="16.97" transform="translate(111.97 -80.75) rotate(14.57)"/><rect class="cls-16" x="318.32" y="476.96" width="52" height="52" rx="17.88" transform="translate(137.63 -70.45) rotate(14.57)"/><path class="cls-16" d="M189.09,1542.71H304A39.06,39.06,0,0,1,343,1581.77v23.94a0,0,0,0,1,0,0H150a0,0,0,0,1,0,0v-23.94A39.06,39.06,0,0,1,189.09,1542.71Z"/><path class="cls-16" d="M217.7,1476.71h56.66A38.67,38.67,0,0,1,313,1515.38v44.33a0,0,0,0,1,0,0H179a0,0,0,0,1,0,0v-44.33A38.67,38.67,0,0,1,217.7,1476.71Z"/><rect class="cls-16" x="206.94" y="1494.71" width="19.04" height="19.04" rx="5.99"/><rect class="cls-16" x="235.37" y="1494.71" width="19.04" height="19.04" rx="5.99"/><rect class="cls-16" x="264.07" y="1494.71" width="19.04" height="19.04" rx="5.99"/><rect class="cls-16" x="264.07" y="1523.69" width="19.04" height="19.04" rx="5.99"/><rect class="cls-16" x="235.37" y="1523.69" width="19.04" height="19.04" rx="5.99"/><rect class="cls-16" x="206.94" y="1523.69" width="19.04" height="19.04" rx="5.99"/><rect class="cls-16" x="206.94" y="1552.67" width="19.04" height="19.04" rx="5.99"/><rect class="cls-16" x="235.37" y="1552.67" width="19.04" height="19.04" rx="5.99"/><rect class="cls-16" x="264.07" y="1552.67" width="19.04" height="19.04" rx="5.99"/><path class="cls-16" d="M92.64,1616.56a28.54,28.54,0,0,1-20.37-8c-4.2-4-4.15-12.58,8.54-44.65,9-22.65,22.85-53.5,38.94-89.22,68.69-152.53,183.66-407.83,126.87-505.65-13.6-23.42-35.83-36.31-68-39.4-49.57-4.75-79.3-21.74-88.37-50.48C75.66,832.91,114.94,757.85,207,656.12,275,581,348.14,518.3,348.87,517.67l5.2,6.08c-.73.63-73.52,63-141.18,137.79C124.16,759.59,84.4,834,97.91,876.8c8,25.39,35.44,40.51,81.5,44.93,34.41,3.3,59.35,17.89,74.13,43.34,26.06,44.89,21.18,122.3-14.92,236.63-30.18,95.58-77.23,200-111.58,276.33-15.49,34.38-28.86,64.08-37.77,86.3-12,29.89-12,37-11.33,38.63,22.54,21,68.83-23.66,69.3-24.11l5.58,5.73C151.15,1586.21,119.65,1616.56,92.64,1616.56Z"/><rect class="cls-17" x="345.2" y="408.16" width="32" height="91" transform="translate(125.77 -76.29) rotate(14.57)"/><rect class="cls-17" x="339.74" y="370.47" width="52" height="52" rx="16.97" transform="translate(111.52 -79.27) rotate(14.57)"/><rect class="cls-17" x="312.32" y="475.96" width="52" height="52" rx="17.88" transform="translate(137.19 -68.98) rotate(14.57)"/><path class="cls-17" d="M183.09,1541.71H298A39.06,39.06,0,0,1,337,1580.77v23.94a0,0,0,0,1,0,0H144a0,0,0,0,1,0,0v-23.94A39.06,39.06,0,0,1,183.09,1541.71Z"/><path class="cls-17" d="M211.7,1475.71h56.66A38.67,38.67,0,0,1,307,1514.38v44.33a0,0,0,0,1,0,0H173a0,0,0,0,1,0,0v-44.33A38.67,38.67,0,0,1,211.7,1475.71Z"/><rect class="cls-10" x="200.94" y="1493.71" width="19.04" height="19.04" rx="5.99"/><rect class="cls-10" x="229.37" y="1493.71" width="19.04" height="19.04" rx="5.99"/><rect class="cls-10" x="258.07" y="1493.71" width="19.04" height="19.04" rx="5.99"/><rect class="cls-10" x="258.07" y="1522.69" width="19.04" height="19.04" rx="5.99"/><rect class="cls-10" x="229.37" y="1522.69" width="19.04" height="19.04" rx="5.99"/><rect class="cls-10" x="200.94" y="1522.69" width="19.04" height="19.04" rx="5.99"/><rect class="cls-10" x="200.94" y="1551.67" width="19.04" height="19.04" rx="5.99"/><rect class="cls-10" x="229.37" y="1551.67" width="19.04" height="19.04" rx="5.99"/><rect class="cls-10" x="258.07" y="1551.67" width="19.04" height="19.04" rx="5.99"/><path class="cls-17" d="M86.64,1615.56a28.54,28.54,0,0,1-20.37-8c-4.2-4-4.15-12.58,8.54-44.65,9-22.65,22.85-53.5,38.94-89.22,68.69-152.53,183.66-407.83,126.87-505.65-13.6-23.42-35.83-36.31-68-39.4-49.57-4.75-79.3-21.74-88.37-50.48C69.66,831.91,108.94,756.85,201,655.12,269,580,342.14,517.3,342.87,516.67l5.2,6.08c-.73.63-73.52,63-141.18,137.79C118.16,758.59,78.4,833,91.91,875.8c8,25.39,35.44,40.51,81.5,44.93,34.41,3.3,59.35,17.89,74.13,43.34,26.06,44.89,21.18,122.3-14.92,236.63-30.18,95.58-77.23,200-111.58,276.33-15.49,34.38-28.86,64.08-37.77,86.3-12,29.89-12,37-11.33,38.63,22.54,21,72.61-29.51,73.07-30l1.81,11.58C145.15,1585.21,113.65,1615.56,86.64,1615.56Z"/></g></g></svg>