<svg width="1355" height="1405" viewBox="0 0 1355 1405" fill="none" xmlns="http://www.w3.org/2000/svg">
<path d="M725.602 248.382C769.924 304.217 945.31 323.231 1027.46 325.758M725.602 248.382C679.983 295.109 565.69 385.427 473.469 372.875M725.602 248.382L703.854 729.557L781.112 1307.52M781.112 1307.52C731.494 1169.15 511.963 1195.69 408.4 1226.25M781.112 1307.52C831.121 1198.77 942.441 985.921 987.651 1004.54M1027.46 325.758C1128.28 414.692 1283.83 451.117 1349 458.212M1027.46 325.758L706.416 739.862L408.4 1226.25M408.4 1226.25C441.433 1076.83 267.473 1012.59 176.364 999.147M1349 458.212C1193.35 559.437 1187.18 681.575 1203.55 729.992M1349 458.212L711.852 732.851L176.364 999.147M176.364 999.147C247.444 923.211 223.57 801.317 202.748 749.863M473.469 372.875C421.501 499.609 294.601 752.436 202.748 749.863M473.469 372.875L698.252 740.025L851.906 863.099L987.651 1004.54M987.651 1004.54C1003.8 933.875 1069.59 780.026 1203.55 729.992M202.748 749.863L1203.55 729.992" stroke="#4690E7" stroke-width="4"/>
<path d="M722.116 290.747C687.561 322.012 552.577 406.333 486.705 390.226C426.232 577.437 277.21 753.09 235.095 749.3C286.929 844.043 241.575 942.259 212.418 979.524C399.883 1002.26 436.671 1129.85 431.632 1190.8C657.108 1128.65 755.232 1216.7 776.11 1268.49C864.227 1050.2 942.41 991.209 970.486 988.999C985.173 849.538 1116.99 758.459 1181.06 730.352C1152.98 624.24 1219.58 542.446 1291.21 483.074C1142.62 474.737 1030.6 401.28 993.164 365.593C866.171 367.867 759.552 316.643 722.116 290.747Z" stroke="#4690E7"/>
<path d="M723.628 324.854C691.459 353.938 565.798 432.376 504.476 417.393C448.18 591.543 309.451 754.941 270.245 751.415C318.498 839.548 276.276 930.912 249.134 965.577C423.651 986.729 457.898 1105.41 453.206 1162.11C663.11 1104.3 754.456 1186.2 773.892 1234.38C855.923 1031.32 928.706 976.447 954.843 974.391C968.515 844.66 1091.23 759.935 1150.87 733.789C1124.74 635.08 1186.73 558.993 1253.41 503.763C1115.09 496.007 1010.8 427.675 975.954 394.479C857.733 396.594 758.478 348.944 723.628 324.854Z" stroke="#4690E7"/>
<path d="M719.957 349.487C689.932 376.632 572.016 457.266 514.782 443.282C462.239 605.822 334.32 750.696 297.728 747.405C342.764 829.662 301.464 917.8 276.13 950.154C439.013 969.896 471.646 1080.09 467.267 1133.01C663.177 1079.05 748.251 1154.36 766.391 1199.33C842.953 1009.81 917.957 963.325 942.351 961.406C955.112 840.323 1073.56 754.755 1129.23 730.352C1104.83 638.224 1153.38 568.729 1215.62 517.181C1086.51 509.943 992.214 443.948 959.688 412.964C849.348 414.939 752.483 371.971 719.957 349.487Z" stroke="#4690E7"/>
<path d="M718.877 393.069C691.62 417.669 585.099 486.272 533.139 473.6C485.439 620.901 375.222 750.387 342.003 747.405C382.888 821.951 344.483 898.095 321.485 927.416C469.356 945.307 492.84 1047.15 488.865 1095.11C666.718 1046.21 745.604 1116.89 762.072 1157.64C831.578 985.887 906.225 944.314 928.372 942.575C939.956 832.844 1039.81 754.362 1090.35 732.246C1068.21 648.756 1113.76 581.897 1170.26 535.182C1053.06 528.622 964.379 474.203 934.851 446.124C834.68 447.913 748.406 413.444 718.877 393.069Z" stroke="#4690E7"/>
<path d="M718.877 442.335C695.079 463.784 603.342 522.546 557.976 511.497C516.329 639.932 417.441 748.419 388.437 745.819C424.134 810.817 387.999 880.059 367.919 905.625C497.025 921.225 516.092 1014.45 512.622 1056.27C667.905 1013.63 739.055 1068.1 753.433 1103.64C814.118 953.882 885.278 922.301 904.614 920.784C914.729 825.107 1004.11 751.529 1048.24 732.246C1028.9 659.449 1071.26 598.652 1120.59 557.92C1018.26 552.201 930.396 512.293 904.614 487.811C817.156 489.371 744.658 460.101 718.877 442.335Z" stroke="#4690E7"/>
<path d="M715.637 478.337C694.191 497.726 616.136 547.065 575.254 537.077C537.724 653.177 458.849 746.913 432.711 744.563C464.881 803.318 427.049 858.829 408.954 881.94C525.299 896.041 539.506 980.57 536.379 1018.37C676.314 979.825 733.996 1024.15 746.953 1056.27C801.641 920.894 875.311 906.996 892.736 905.625C901.85 819.138 979.316 751.572 1019.08 734.141C1001.66 668.336 1026.46 615.584 1070.91 578.764C978.696 573.593 906.25 537.417 883.017 515.286C804.203 516.696 738.87 494.396 715.637 478.337Z" stroke="#4690E7"/>
<path d="M715.637 524.761C697.374 541.241 634.907 584.412 600.091 575.921C568.13 674.606 497.085 747.508 474.826 745.51C502.222 795.452 464.32 844.295 448.91 863.939C547.99 875.925 559.56 948.343 556.896 980.472C676.067 947.71 731.6 998.647 742.634 1025.95C789.207 910.882 857.379 888.789 872.218 887.624C879.98 814.11 953.9 748.957 987.764 734.141C972.925 678.207 976.902 631.851 1014.76 600.555C936.227 596.16 873.646 568.205 853.861 549.394C786.741 550.592 735.423 538.411 715.637 524.761Z" stroke="#4690E7"/>
<path d="M709.158 593.923C696.429 605.435 662.152 649.119 637.887 643.189C615.611 712.123 573.49 744.064 557.976 742.668C577.07 777.554 551.439 804.74 540.698 818.462C609.755 826.835 604.107 885.077 602.251 907.52C685.31 884.635 723.065 925.399 730.756 944.47C763.215 864.093 825.16 850.541 835.503 849.727C840.913 798.375 886.412 745.438 910.014 735.089C899.671 696.017 883.627 667.893 910.014 646.031C855.278 642.961 813.657 629.801 799.867 616.661C753.087 617.498 722.948 603.458 709.158 593.923Z" stroke="#4690E7"/>
<g filter="url(#filter0_d_62_3)">
<path d="M603.129 254.761C599.285 255.179 595.831 252.402 595.413 248.559C594.995 244.715 597.771 241.261 601.615 240.843L603.129 254.761ZM617.859 299.078L623.963 302.503L623.963 302.503L617.859 299.078ZM981.876 347.417L975.769 343.995L975.769 343.995L981.876 347.417ZM601.615 240.843C610.218 239.907 623.94 241.23 631.273 251.917C638.808 262.898 636.82 279.59 623.963 302.503L611.754 295.653C624.215 273.444 622.339 263.642 619.729 259.839C616.917 255.741 610.236 253.988 603.129 254.761L601.615 240.843ZM623.963 302.503C607.141 332.486 580.049 349.31 558.571 354.76C548.124 357.412 537.622 357.71 530.246 353.951C526.292 351.935 522.977 348.577 521.733 343.76C520.538 339.131 521.558 334.31 523.736 329.784L536.351 335.856C535.039 338.581 535.197 339.905 535.289 340.26C535.332 340.427 535.453 340.891 536.604 341.478C539.44 342.924 545.831 343.55 555.127 341.191C573.134 336.621 596.93 322.073 611.754 295.653L623.963 302.503ZM523.736 329.784C527.272 322.437 531.155 315.913 536.859 311.899C543.056 307.539 550.2 306.898 558.33 308.495C566.205 310.043 575.852 313.85 587.99 319.416C600.227 325.027 615.598 332.717 635.021 342.334L628.809 354.88C609.253 345.198 594.147 337.64 582.155 332.141C570.065 326.597 561.733 323.432 555.63 322.233C549.782 321.083 546.947 321.919 544.915 323.349C542.391 325.125 539.794 328.703 536.351 335.856L523.736 329.784ZM635.021 342.334C673.348 361.31 716.727 373.878 752.879 375.434C789.633 377.017 815.684 367.274 824.87 345.675L837.753 351.154C824.889 381.402 790.22 391.055 752.277 389.421C713.733 387.762 668.439 374.502 628.809 354.88L635.021 342.334ZM824.87 345.675C827.106 340.417 826.455 337.774 825.719 336.464C824.85 334.918 822.682 333.099 818.083 331.807C808.835 329.208 794.205 330.049 779.995 333.833C773.016 335.691 766.454 338.179 761.037 341.067C755.528 344.003 751.663 347.108 749.55 349.977C747.593 352.634 747.399 354.624 748.051 356.48C748.87 358.809 751.556 362.431 758.709 366.754L751.466 378.736C743.102 373.68 737.222 367.887 734.844 361.124C732.299 353.887 734.276 347.106 738.278 341.674C742.125 336.452 748.007 332.147 754.452 328.712C760.988 325.228 768.587 322.383 776.393 320.304C791.754 316.214 809.196 314.767 821.87 318.329C828.232 320.117 834.488 323.49 837.925 329.607C841.494 335.96 841.03 343.451 837.753 351.154L824.87 345.675ZM758.709 366.754C772.947 375.361 792.525 380.382 814.696 382.316C836.768 384.241 860.875 383.06 883.75 379.69C906.636 376.319 928.041 370.793 944.725 364.168C953.07 360.854 960.08 357.327 965.455 353.757C970.926 350.124 974.215 346.768 975.769 343.995L987.982 350.84C984.879 356.377 979.527 361.218 973.2 365.419C966.777 369.685 958.832 373.63 949.891 377.18C932.003 384.283 909.513 390.046 885.79 393.541C862.055 397.037 836.837 398.3 813.479 396.263C790.219 394.234 768.261 388.887 751.466 378.736L758.709 366.754ZM975.769 343.995C990.128 318.376 994.755 293.425 995.283 284.745L1009.26 285.595C1008.61 296.253 1003.43 323.273 987.982 350.84L975.769 343.995Z" fill="#18DCD0"/>
</g>
<g filter="url(#filter1_d_62_3)">
<path d="M691.881 279.588C683.846 280.806 659.862 279.104 648.874 278.101C658.209 270.135 679.875 254.422 691.86 255.304C706.84 256.406 701.924 278.067 691.881 279.588Z" fill="#18DCD0"/>
</g>
<g filter="url(#filter2_d_62_3)">
<path d="M565.774 258.11C573.686 259.966 595.319 270.462 605.147 275.478C593.519 279.403 567.564 285.936 556.766 280.662C543.269 274.069 555.885 255.789 565.774 258.11Z" fill="#18DCD0"/>
</g>
<g filter="url(#filter3_d_62_3)">
<path d="M83.8362 976.869C81.6999 973.647 77.356 972.767 74.1339 974.903C70.9117 977.04 70.0315 981.383 72.1678 984.606L83.8362 976.869ZM127.327 959.854L133.864 962.357L133.864 962.357L127.327 959.854ZM397.271 1208.8L390.735 1206.3L390.735 1206.3L397.271 1208.8ZM72.1678 984.606C76.9501 991.819 86.7419 1001.52 99.6476 1000.32C112.908 999.096 124.469 986.894 133.864 962.357L120.79 957.351C111.684 981.133 102.949 985.959 98.3556 986.385C93.4072 986.843 87.7869 982.828 83.8362 976.869L72.1678 984.606ZM133.864 962.357C146.158 930.25 141.768 898.664 132.223 878.665C127.581 868.938 121.095 860.673 113.488 857.407C109.41 855.655 104.708 855.254 100.209 857.379C95.8864 859.42 92.8316 863.287 90.7454 867.856L103.48 873.671C104.737 870.92 105.855 870.195 106.187 870.038C106.343 869.965 106.777 869.761 107.964 870.271C110.89 871.527 115.458 876.04 119.588 884.695C127.59 901.462 131.622 929.06 120.79 957.351L133.864 962.357ZM90.7454 867.856C87.3583 875.273 84.8249 882.43 85.3871 889.382C85.9978 896.934 90.0732 902.837 96.5002 908.066C102.726 913.131 111.822 918.113 123.863 923.886C136.002 929.705 151.744 936.605 171.558 945.388L177.231 932.589C157.282 923.746 141.811 916.964 129.915 911.261C117.921 905.512 110.16 901.131 105.335 897.205C100.711 893.444 99.5418 890.73 99.3416 888.254C99.0928 885.177 100.182 880.893 103.48 873.671L90.7454 867.856ZM171.558 945.388C210.656 962.719 248.058 988.032 272.373 1014.83C297.093 1042.08 306.262 1068.33 295.53 1089.21L307.982 1095.61C323.01 1066.38 308.261 1033.55 282.741 1005.42C256.817 976.852 217.659 950.509 177.231 932.589L171.558 945.388ZM295.53 1089.21C292.918 1094.29 290.469 1095.48 288.992 1095.75C287.248 1096.07 284.462 1095.57 280.528 1092.86C272.616 1087.41 263.907 1075.63 257.729 1062.28C254.695 1055.73 252.412 1049.09 251.168 1043.08C249.902 1036.97 249.818 1032.01 250.672 1028.55C251.464 1025.35 252.869 1023.93 254.713 1023.24C257.028 1022.38 261.53 1022.13 269.428 1024.86L274.008 1011.63C264.772 1008.44 256.558 1007.62 249.838 1010.12C242.647 1012.79 238.698 1018.64 237.081 1025.2C235.526 1031.49 235.978 1038.77 237.458 1045.92C238.96 1053.17 241.631 1060.83 245.025 1068.16C251.703 1082.59 261.744 1096.92 272.588 1104.39C278.031 1108.14 284.625 1110.79 291.525 1109.52C298.692 1108.2 304.154 1103.06 307.982 1095.61L295.53 1089.21ZM269.428 1024.86C285.15 1030.31 301.53 1042.15 317.194 1057.96C332.789 1073.69 347.296 1092.98 359.334 1112.72C371.377 1132.48 380.817 1152.47 386.392 1169.53C389.182 1178.06 390.952 1185.71 391.645 1192.12C392.35 1198.65 391.873 1203.33 390.735 1206.3L403.807 1211.31C406.08 1205.38 406.379 1198.17 405.564 1190.62C404.736 1182.96 402.688 1174.32 399.7 1165.18C393.722 1146.89 383.77 1125.91 371.287 1105.44C358.797 1084.95 343.642 1064.76 327.139 1048.1C310.705 1031.52 292.552 1018.05 274.008 1011.63L269.428 1024.86ZM390.735 1206.3C380.221 1233.72 363.998 1253.23 357.662 1259.19L367.251 1269.39C375.031 1262.07 392.494 1240.82 403.807 1211.31L390.735 1206.3Z" fill="#18DCD0"/>
</g>
<g filter="url(#filter4_d_62_3)">
<path d="M159.679 1029.23C155.477 1022.27 138.831 1004.92 131.034 997.113C130.878 1009.38 132.653 1036.09 140.995 1044.74C151.423 1055.55 164.931 1037.92 159.679 1029.23Z" fill="#18DCD0"/>
</g>
<g filter="url(#filter5_d_62_3)">
<path d="M62.5238 946.009C69.0103 950.905 90.9134 960.825 101.054 965.173C96.6365 953.723 85.0611 929.591 74.1016 924.662C60.4021 918.501 54.4156 939.89 62.5238 946.009Z" fill="#18DCD0"/>
</g>
<defs>
<filter id="filter0_d_62_3" x="512.227" y="240.596" width="497.031" height="175.644" filterUnits="userSpaceOnUse" color-interpolation-filters="sRGB">
<feFlood flood-opacity="0" result="BackgroundImageFix"/>
<feColorMatrix in="SourceAlpha" type="matrix" values="0 0 0 0 0 0 0 0 0 0 0 0 0 0 0 0 0 0 127 0" result="hardAlpha"/>
<feOffset dx="-9" dy="19"/>
<feComposite in2="hardAlpha" operator="out"/>
<feColorMatrix type="matrix" values="0 0 0 0 0.122552 0 0 0 0 0.450992 0 0 0 0 0.754167 0 0 0 0.38 0"/>
<feBlend mode="normal" in2="BackgroundImageFix" result="effect1_dropShadow_62_3"/>
<feBlend mode="normal" in="SourceGraphic" in2="effect1_dropShadow_62_3" result="shape"/>
</filter>
<filter id="filter1_d_62_3" x="646.874" y="255.268" width="54.4689" height="38.7425" filterUnits="userSpaceOnUse" color-interpolation-filters="sRGB">
<feFlood flood-opacity="0" result="BackgroundImageFix"/>
<feColorMatrix in="SourceAlpha" type="matrix" values="0 0 0 0 0 0 0 0 0 0 0 0 0 0 0 0 0 0 127 0" result="hardAlpha"/>
<feOffset dx="-2" dy="14"/>
<feComposite in2="hardAlpha" operator="out"/>
<feColorMatrix type="matrix" values="0 0 0 0 0.121569 0 0 0 0 0.45098 0 0 0 0 0.752941 0 0 0 0.38 0"/>
<feBlend mode="normal" in2="BackgroundImageFix" result="effect1_dropShadow_62_3"/>
<feBlend mode="normal" in="SourceGraphic" in2="effect1_dropShadow_62_3" result="shape"/>
</filter>
<filter id="filter2_d_62_3" x="548.883" y="257.907" width="56.2638" height="38.728" filterUnits="userSpaceOnUse" color-interpolation-filters="sRGB">
<feFlood flood-opacity="0" result="BackgroundImageFix"/>
<feColorMatrix in="SourceAlpha" type="matrix" values="0 0 0 0 0 0 0 0 0 0 0 0 0 0 0 0 0 0 127 0" result="hardAlpha"/>
<feOffset dx="-2" dy="14"/>
<feComposite in2="hardAlpha" operator="out"/>
<feColorMatrix type="matrix" values="0 0 0 0 0.121569 0 0 0 0 0.45098 0 0 0 0 0.752941 0 0 0 0.38 0"/>
<feBlend mode="normal" in2="BackgroundImageFix" result="effect1_dropShadow_62_3"/>
<feBlend mode="normal" in="SourceGraphic" in2="effect1_dropShadow_62_3" result="shape"/>
</filter>
<filter id="filter3_d_62_3" x="62.0012" y="855.935" width="343.975" height="432.453" filterUnits="userSpaceOnUse" color-interpolation-filters="sRGB">
<feFlood flood-opacity="0" result="BackgroundImageFix"/>
<feColorMatrix in="SourceAlpha" type="matrix" values="0 0 0 0 0 0 0 0 0 0 0 0 0 0 0 0 0 0 127 0" result="hardAlpha"/>
<feOffset dx="-9" dy="19"/>
<feComposite in2="hardAlpha" operator="out"/>
<feColorMatrix type="matrix" values="0 0 0 0 0.122552 0 0 0 0 0.450992 0 0 0 0 0.754167 0 0 0 0.38 0"/>
<feBlend mode="normal" in2="BackgroundImageFix" result="effect1_dropShadow_62_3"/>
<feBlend mode="normal" in="SourceGraphic" in2="effect1_dropShadow_62_3" result="shape"/>
</filter>
<filter id="filter4_d_62_3" x="129.024" y="997.113" width="31.826" height="65.0312" filterUnits="userSpaceOnUse" color-interpolation-filters="sRGB">
<feFlood flood-opacity="0" result="BackgroundImageFix"/>
<feColorMatrix in="SourceAlpha" type="matrix" values="0 0 0 0 0 0 0 0 0 0 0 0 0 0 0 0 0 0 127 0" result="hardAlpha"/>
<feOffset dx="-2" dy="14"/>
<feComposite in2="hardAlpha" operator="out"/>
<feColorMatrix type="matrix" values="0 0 0 0 0.121569 0 0 0 0 0.45098 0 0 0 0 0.752941 0 0 0 0.38 0"/>
<feBlend mode="normal" in2="BackgroundImageFix" result="effect1_dropShadow_62_3"/>
<feBlend mode="normal" in="SourceGraphic" in2="effect1_dropShadow_62_3" result="shape"/>
</filter>
<filter id="filter5_d_62_3" x="56.8566" y="923.56" width="44.1976" height="55.6131" filterUnits="userSpaceOnUse" color-interpolation-filters="sRGB">
<feFlood flood-opacity="0" result="BackgroundImageFix"/>
<feColorMatrix in="SourceAlpha" type="matrix" values="0 0 0 0 0 0 0 0 0 0 0 0 0 0 0 0 0 0 127 0" result="hardAlpha"/>
<feOffset dx="-2" dy="14"/>
<feComposite in2="hardAlpha" operator="out"/>
<feColorMatrix type="matrix" values="0 0 0 0 0.121569 0 0 0 0 0.45098 0 0 0 0 0.752941 0 0 0 0.38 0"/>
<feBlend mode="normal" in2="BackgroundImageFix" result="effect1_dropShadow_62_3"/>
<feBlend mode="normal" in="SourceGraphic" in2="effect1_dropShadow_62_3" result="shape"/>
</filter>
</defs>
</svg>
