<svg xmlns="http://www.w3.org/2000/svg" viewBox="0 0 1323 1126.96"><defs><style>.cls-1{fill:#deccff;}.cls-2{fill:#d0baff;}.cls-3{fill:#e1f1fe;}.cls-4{fill:#fff;}.cls-5{fill:#c2d6fe;}.cls-6{fill:#480071;}.cls-7{fill:#18dcd0;}.cls-8,.cls-9{fill:none;stroke-miterlimit:10;}.cls-8{stroke:#9086ff;stroke-width:17px;}.cls-9{stroke:#a4a1ff;stroke-width:12px;}.cls-10{fill:#0e0029;}.cls-11{fill:#a2aee6;}.cls-12{fill:#2d2044;}.cls-13{fill:#5443d4;}.cls-14{fill:#3b28ce;}.cls-15{fill:#18bcd0;}.cls-16{fill:#5488eb;}.cls-17,.cls-20,.cls-21,.cls-22{fill:#543ceb;}.cls-18{fill:#6fefd0;}.cls-19{fill:#a4a1ff;}.cls-20{opacity:0.29;}.cls-21{opacity:0.38;}.cls-22{opacity:0.4;}</style></defs><g id="Layer_2" data-name="Layer 2"><g id="Layer_1-2" data-name="Layer 1"><polygon class="cls-1" points="1090 1092.69 1043 1074.69 1043 391.69 1093 391.69 1140 409.69 1090 409.69 1090 1092.69"/><rect class="cls-2" x="1090" y="409.69" width="50" height="683"/><polygon class="cls-1" points="970 977.69 923 959.69 923 276.69 973 276.69 1020 294.69 970 294.69 970 977.69"/><rect class="cls-2" x="970" y="294.69" width="50" height="683"/><polygon class="cls-1" points="782 977.69 735 959.69 735 276.69 785 276.69 832 294.69 782 294.69 782 977.69"/><rect class="cls-2" x="782" y="294.69" width="50" height="683"/><polygon class="cls-3" points="1190 947.69 677 807.69 810 71.69 1323 211.69 1190 947.69"/><polygon class="cls-4" points="1134 903.69 621 763.69 754 27.69 1267 167.69 1134 903.69"/><polygon class="cls-3" points="1267 167.69 1323 211.69 1190 947.69 677 807.69 621 763.69 1134 903.69 1267 167.69"/><ellipse class="cls-5" cx="884.48" cy="773.4" rx="118.32" ry="89" transform="translate(-284.4 654.29) rotate(-35.35)"/><ellipse class="cls-3" cx="876.48" cy="761.4" rx="118.32" ry="89" transform="translate(-278.93 647.45) rotate(-35.35)"/><circle class="cls-6" cx="884.5" cy="707.19" r="19.5"/><circle class="cls-4" cx="927.5" cy="732.19" r="19.5"/><circle class="cls-7" cx="915.5" cy="789.19" r="19.5"/><circle class="cls-2" cx="871.5" cy="820.19" r="19.5"/><line class="cls-8" x1="787.35" y1="864.45" x2="891.67" y2="773.69"/><line class="cls-9" x1="787.35" y1="859.45" x2="891.67" y2="768.69"/><path class="cls-10" d="M896,779.69s-6.8-38.53-3.33-40.5c25.92-14.75,34.33-18.3,34.33-18.3S964,779.69,896,779.69Z"/><path class="cls-5" d="M896.48,780.05s-50.07-18-15.18-38.33c4.12-2.39,7.9-4.56,11.37-6.53,25.92-14.75,34.33-18.3,34.33-18.3S958.83,769.45,896.48,780.05Z"/><path class="cls-6" d="M896.48,780.05s-7.28-42.89-3.81-44.86c25.92-14.75,34.33-18.3,34.33-18.3S958.83,769.45,896.48,780.05Z"/><path class="cls-10" d="M893.84,762.66l20.53-14.19S895.69,755.64,893.84,762.66Z"/><path class="cls-10" d="M894.56,767.73s19.3-2.62,18.87-6.33S894.56,767.73,894.56,767.73Z"/><path class="cls-10" d="M891.73,746.5s10.48-7.56,12.38-7.18-11.44,9.15-11.44,9.15Z"/><polygon class="cls-11" points="891.73 746.5 886.44 751.69 892.67 748.47 891.73 746.5"/><path class="cls-4" d="M1099.71,509.83a50.52,50.52,0,0,0-15.61,1.05l0-.31a197.37,197.37,0,0,0-9.93-81.35L1091.45,227a12.77,12.77,0,0,0-11.64-13.8l-66.34-5.66a12.76,12.76,0,0,0-13.8,11.63l-9.52,111.57a149,149,0,0,0-53.71-15c-4.79-.41-9.37-.65-13.77-.73l9.18-107.64a12.76,12.76,0,0,0-11.63-13.8l-66.35-5.66a12.76,12.76,0,0,0-13.8,11.63l-17.83,209c-2.7,14.64-4.66,30.94-6.19,48.88-1.1,12.84-1.72,24.2-1.8,34.28a41.63,41.63,0,0,0-21.7-8.08c-19.42-1.65-36.22,9.3-37.51,24.47s13.4,28.81,32.83,30.47c12.09,1,23.15-2.83,30.1-9.54,5.64,20.81,18.08,31.61,40.11,38A28.31,28.31,0,0,0,854.26,579c-1.62,19.06,16.55,36.17,40.6,38.22s44.86-11.74,46.49-30.79a27.87,27.87,0,0,0-.5-8.07c11.49,1.33,22.53,2.77,33,4a23.53,23.53,0,0,0-5.62,13.14c-1.47,17.21,17.58,32.88,42.56,35s46.41-10.09,47.87-27.29c.76-8.88-4-17.34-12.12-23.75a49.52,49.52,0,0,0,19.91-14.61,47.71,47.71,0,0,0,27.58,11.35c22.94,2,42.8-11.31,44.37-29.62S1122.65,511.78,1099.71,509.83Z"/><path class="cls-12" d="M1113.64,521l1.76.81c.58.28,1.11.64,1.67.94A11.18,11.18,0,0,0,1113.64,521Z"/><path class="cls-12" d="M1110.91,518.36l-.31-.14C1110.63,518.3,1110.72,518.33,1110.91,518.36Z"/><path class="cls-12" d="M1060.16,195.62a22.28,22.28,0,0,0,4-.14A12.65,12.65,0,0,0,1060.16,195.62Z"/><path class="cls-12" d="M912.63,290.49a.72.72,0,0,0,.38.23C912.94,290.31,912.83,290.17,912.63,290.49Z"/><path class="cls-12" d="M1128.81,554.78c.3-.46.6-.93.9-1.35C1129.56,553,1128.82,554.32,1128.81,554.78Z"/><path class="cls-12" d="M1103.29,257a1.34,1.34,0,0,0,.33.59A1.54,1.54,0,0,0,1103.29,257Z"/><path class="cls-12" d="M1030.79,615.18a12.7,12.7,0,0,1-1.35.56A4.49,4.49,0,0,0,1030.79,615.18Z"/><path class="cls-12" d="M946,238.56a5.71,5.71,0,0,0-.31-1.79C945.67,237.85,945.74,238.64,946,238.56Z"/><path class="cls-12" d="M942.16,237.37c0,13.84,2.5-2.75,3.51-.6,0-3.7.88-11.5-.33-7.88a25.85,25.85,0,0,0,1.51-8.2c.1-1.59.15-3.26.18-4.95,0-.84,0-1.69,0-2.54v-.73l.06-1.22c0-.81.08-1.62.13-2.43v-3c0-1-.19-1.93-.28-2.88s-.3-1.87-.49-2.77-.43-1.78-.73-2.61a44,44,0,0,0-4-8.77c-.28-.18.69,1.52.82,2.34.08.4,0,.56-.47.13s-1.29-1.45-3-3.13a33.25,33.25,0,0,0-6.35-5.19c-.86-.52-1.58-1-2.25-1.33s-1.19-.72-1.71-1l-1.4-.75-1.31-.61c-.45-.2-.92-.42-1.47-.61a17,17,0,0,0-2-.51l-5.75-.08c-1.47,0-3.2,0-4.82-.07-3.22-.11-6-.31-5.38-.43-5.41.13,5.51,2.82-2.06,3.21-5.21,1.17-12-.77-18-.84-7.09-1.74,7.23-.17,10.26-.46l-20.39-1c-5.9-1.33,2.82-1.33,8.8-.63-8-1.7-18.54-1.66-21-.56-1.49-.21-2.78-.35-4-.48l-4.81-.46a38.62,38.62,0,0,0-4.07-.15,26.69,26.69,0,0,0-4.53.42c1.93-.7,3.39-1.08,4.67-1.51a38.57,38.57,0,0,1,3.85-1.05c.64-.11,1.34-.22,2.13-.31q.59-.07,1.26-.12l.33,0,.19,0,.4-.07a21.91,21.91,0,0,1,4.25-.2c12.26,1.19-4.6,1.37,5.81,2.6l1-1.29c4.41,1.16,8.06.44,12.87.75,2.66.58-.63.44-2.44.49,8.69.63,15.53,1.95,22.21.95-11.58-2.26-29.34-2.05-34.32-4.05l-6,0h-3c-.58,0-3-.1-4.81-.17l-2.71,0c-.9,0-1.77.18-2.64.28a26.42,26.42,0,0,0-5.09,1.22,27.76,27.76,0,0,0-8.91,5.13c.11.14.9-.32,2-.77a21.81,21.81,0,0,1,3.45-1.25c1.06-.23,1.78-.28,1.62.05s-1.23.94-3.41,2.56c-2.31.5-6.14,2.52-9.44,7.06L829,188.67c-.35.65-.71,1.33-1.07,2s-.62,1.47-.9,2.25-.5,1.61-.71,2.46a49.45,49.45,0,0,0-.84,5.55c0,.46-.1.93-.16,1.4,0,.27-.06.54-.1.81-.06.54-.13,1.1-.2,1.66,2-3.17.34,14.48,2.13,10.09a10.18,10.18,0,0,1,1.32-6.81c-.64,8.69,1.51,1.31,1.2,6.09-1.74,15.83-1.07-.68-3,14.83a152.63,152.63,0,0,1-1.54-20.59c-.82.54-.63,8.65-1.82,12.21,1.36-5,1.35,3.71,2.1-.46-.34,12.64.22,27.43-.69,42.7-2.38-2.59.24-25.86-3.24-21.32-.24,7.51,1,7.59.32,13.56-2,4.95-1.69,17.62-2.52,27.81l1.17-4.44c.3,3.93-.79,11.06-1.33,15.55l-.24-1.2.11,4.47c-.12.69-.22.85-.31.82.38,5-1.45,17.35-1.79,26.74,1.27.09.85-9.26,1.37-13.73.39-1.19,1.67-9.79,2.18-5.53-1,11.62-.16,19.83-1.33,33l.75-4.15c.52,4.25-.4,9.89-.88,16.16-1.85,11.31-1-8.51-2.37-1.67-.74-4.57,1.19-12.25-.31-13.57l-2.37,7c.56,6.08-1.6,12.54-1.72,16.76l1.16-4.44c1.29,1-.09,5.1-.46,7.19l2.25-2.86c.91-6.53-.47-11.17,1.11-15.84-.36,11.69,1.48,9.15.33,23.19-.83.56-.06-2.73-.52-4.24-.94,4.75.23,9.93-1.06,17.65-.11-4.49-.28-11.75-1.83-6.14l1.15,4.29c-.55,3.57-1,2.05-1.18,3.51-.73,5.08,1.66-1,.58,7-.39,1.17-1,3.82-1.2,2.62-.84,9.26.11,4.49.1,13.21.66-7.75,3-7.85,2.53.22-.07.71-.14,1.4-.21,2.09,0,.27-.05.54-.07.8a4.11,4.11,0,0,1-.08.54c-.21,1.24-.43,2.59-.61,3.81-.34,2.48-.66,4.79-1,7a55.35,55.35,0,0,1-2.74,12.11l.36,5.25c-1-3.46-1.32,7.22-1.89,10.82-.83.53-.41-3.78,0-8.25s.73-9.13-.52-9.29c-1.18,7.56-1.55,4.16-1.93,1.62-.74,8.27,1.43,3.27,2,7-.68-.06-1.63,13.92-2.51,9-.75,7,.76,8.29,0,13.41-.56-.83-1.29-1.79-2.13-1.36.47.65-.68,7.22-.8,8.51.38-1.19,1.15,2.52,1.14-3.6a6.6,6.6,0,0,1,.33,2.91c0,.47,0,1,0,1.52,0,.29,0,.6-.06.9-.08,1.21-.17,2.29.33,2.58-.63-.29-.78.55-.81,1.75,0,.61,0,1.32,0,2V476l0,0-.4-.29-.82-.58-.64-.47a6.14,6.14,0,0,0,1.46,1.91,3.36,3.36,0,0,0,1,.56l.19.06s0,0,0,0l0-.13,0-.26c-.07-.33-.13-.67-.19-1-.23-1.24-.24-2,.77-1.29a20.35,20.35,0,0,1,.34,2.77c0,.26,0,.52.05.8,0,.13,0,.27,0,.4v.11l-.07-.05-.14-.1c-.39-.27-.83-.53-1.3-.81a18.54,18.54,0,0,0-6.56-2.23l-1.56-.19c-.76-.1-1.53-.16-2.28-.21-1.52-.09-3-.07-4.5-.08s-2.93.22-4.33.35-2.76.49-4,.76l-4,.53c-1,.15-1.57.26-1.93.27-.73,0-.44-.24.19-.62,1.25-.83,4-1.75,2.41-2.09l2.36-.54c.75-.17,1.48-.23,2.17-.34a33.06,33.06,0,0,1,3.85-.36c1.18,0,2.29-.08,3.33,0l3,.21c1,.05,1.94.19,2.92.31s2.27.34,2.39.37l1.09.18,1.12.16a10.16,10.16,0,0,0-1.45-.57l-.38-.11-.49-.11-.12,0-.2,0-.7-.11c-.47-.07-.95-.15-1.43-.2-1.92-.26-3.91-.28-5.91-.37-1,0-2,.06-3,.1l-1.5.08-1.5.18a47.19,47.19,0,0,0-11.11,2.7,37.34,37.34,0,0,0-8,4.26l-2.2,1.29c-.69.42-1.33.87-2,1.26s-1.22.76-1.79,1.15l-1.62,1.15c-.52.38-1,.72-1.54,1.08L753.5,487l-1.41,1.12c-.46.38-.88.83-1.33,1.25a22.44,22.44,0,0,0-2.61,2.89,21.94,21.94,0,0,0-2.46,3.86c-.39.75-.77,1.55-1.14,2.41s-.61,1.84-.9,2.86a15,15,0,0,0-.4,1.57c-.08.56-.17,1.12-.26,1.71a22.16,22.16,0,0,0-.28,3.73c.55-1.37,1-1.89,1.38-2.88a18.18,18.18,0,0,0,.63-2c.23-.86.68-1.94,1.19-3.42a47.22,47.22,0,0,0-1.34,8.37,27.3,27.3,0,0,0,0,4.43c.06.74.13,1.48.21,2.2a21.13,21.13,0,0,0,.43,2.13c.75,1.61.38-.57.3-2.19,0-.83,0-1.51.12-1.51s.13.17.24.58.21,1,.52,1.95c.12.74.29,1.67.48,2.65s.55,1.93.77,2.8c.45,1.76.91,2.91.28,2.53-.21-.37-.45-.71-.63-1.1a55.57,55.57,0,0,0,2.86,5l1.18,1.86c.36.56.73,1,1,1.5.64.9,1.12,1.75,1.61,2.41l1.29,1.89a16.3,16.3,0,0,0,3.14,3.47,18.35,18.35,0,0,0,2.75,1.87,24.83,24.83,0,0,0,4.17,2,8.2,8.2,0,0,0-2.49-1.65,23.14,23.14,0,0,1-3.87-2.82c-.78-1.23.7-.49,3.13.62s5.8,2.62,8.68,3.74c-.32,0-.18.23.28.49s1.26.54,2.22.89c.48.17,1,.37,1.55.55l1.7.47c1.15.33,2.31.7,3.36.94,1.29.89-1.41.51-4.66-.49-.82-.2-1.65-.55-2.47-.84s-1.64-.58-2.38-.88a16,16,0,0,0-3.27-1.16,54.53,54.53,0,0,0,11.41,4.48c-.81-.27-1.61-.59-2.42-.88a56.53,56.53,0,0,0,6.52.93c2.18.09,4.33.22,6.48.1a16.1,16.1,0,0,1-4.35-.48c-.74-.22-.84-.44-.55-.63.6-.4,2.73-.55,4.63-.57a63.59,63.59,0,0,0,11.88-.19c3.19-.31,5.2-.55,4.86.28a1.71,1.71,0,0,1,.62-.63,6.5,6.5,0,0,1,.57-.35l.34-.18a1.07,1.07,0,0,0,.28-.17,16.43,16.43,0,0,1,1.77-1.13,25.25,25.25,0,0,0,4.62-3.33l.56-.56a5.23,5.23,0,0,1-.49.33c-1.39.8-.66-.17.43-1.42.25-.29.5-.61.74-.89s.17-.05.23,0l.15.19a70.71,70.71,0,0,0,1.52,7.69c-.75-1.42-1.12-2-1.27-2s-.17.45-.1,1a16.86,16.86,0,0,1,.15,1.78c0,.5-.09.8-.4.71a2,2,0,0,1-1.46-1.41,6.82,6.82,0,0,1-.43-1.42l-.18-.84,0-.11V543l0,0-.13.1-.28.2c-.31.21-.64.43-1,.64a2.4,2.4,0,0,0,.83-.06l.2-.08.1-.05,0,0s0,.06,0,.08c0,.27.08.51.13.72a3.62,3.62,0,0,0,.35,1,5,5,0,0,0,1.14,1.41,17.71,17.71,0,0,1,1.51,1.62c0,.06,0,0,0,0l.23.34.49.74c.33.49.62,1,1,1.52.72,1,1.41,2.14,2.17,3.33-.25.2-.7.21-1.47-.43a15.43,15.43,0,0,1-3.31-4.28c.37,1.06,2.19,3.35,4.74,6s5.88,5.57,9,8.44a7.57,7.57,0,0,1-1.82-2.9c0-.3.23-.38.88-.09a9.64,9.64,0,0,1,1.29.73c.57.32,1.27.74,2.11,1.29,1.24,1.3,2.59,2.38,3.93,3.57s2.76,2.18,4.19,3.19l1.42.73.56.25a3.76,3.76,0,0,0,.86.19,2.27,2.27,0,0,0,1.17-.23c.73-.31,1.4-.74,4.12-.19-.66-.55-1.41-1.22-2.27-1.91.57-.32,1.84,0,3.23.47l2.14.64.52.15a1.82,1.82,0,0,1,.25.07l-.11.21a5.94,5.94,0,0,0-.29.71c-.16.52-.1.81.26.71l.48-1,.44-1c.05-.05,0,0-.08-.05l-.15,0-.3-.07-.59-.11-2.26-.4a14.1,14.1,0,0,1-4.26-1.49c-.25-.9,1-.55,2.86,0,.91.26,1.92.62,2.93.87a18.5,18.5,0,0,0,2.82.52l.15.06s.13,0,.07.09l-.19.28c-.11.19-.22.35-.3.49s-.28.44-.29.39a28.9,28.9,0,0,0-1.85,3.86c-.38,1-.63,1.69-.86,2.36l-.34,1a7.34,7.34,0,0,0-.33,1.46L849,581.5c-.05.44-.14.91-.16,1.42s0,1.06,0,1.65c-.28.08-.56-.13-.85-.56a6.25,6.25,0,0,1-.78-1.9c-.2-.81-.38-1.78-.54-2.83a10.89,10.89,0,0,0-.43-2.09,4.16,4.16,0,0,0-.9-1.87c-.39-.33-1-.28-1.84.11a7.58,7.58,0,0,0-.22,1.36c0,.27,0,.45,0,.83l0,.39v2.55a39.63,39.63,0,0,0,.58,6.86c.19,1.13.52,2.23.78,3.33.14.55.29,1.09.43,1.64s.37,1,.56,1.56c.39,1,.77,2,1.17,3l1.4,2.8.69,1.35.78,1.24,1.5,2.39c1,1.48,2.08,2.79,3,4s1.88,2.2,2.64,3.14a15.56,15.56,0,0,0,1.77,1.44c.56.42,1.08.8,1.58,1.14s.94.66,1.37.91l1.23.63a8.39,8.39,0,0,0,3.09,1c1.26-.05,1-1.07.7-2.14l5.06,2.94c1.41.74,2.58,1.49,3.94,2.27-1.77-.54-3.56-1.11-5.33-1.77a57.62,57.62,0,0,0,18,5.24c1.4.27,2.84.3,4.28.45.73,0,1.46.14,2.2.17l2.27,0,2.35.05c.8,0,1.62-.07,2.45-.1l2.58-.12,2.71-.3a15,15,0,0,0,4.18-1.13c.78-.36,1-.65.94-.91-.16-.5-1.58-.84-2.62-1.18,1.42-.35,2.85-.6,4.25-1s2.79-.84,4.15-1.38a10.3,10.3,0,0,1-1.35.14,7.28,7.28,0,0,1,2-1.53c.94-.55,2.16-1,3.42-1.7s2.68-1.25,4-2.07l2-1.15c.63-.43,1.24-.86,1.83-1.28.2.25-.4.92-1,1.56s-1.24,1.13-1,1.22l.92-.44.91-.56c.61-.39,1.25-.82,1.89-1.26a16.09,16.09,0,0,0,1.86-1.48c.6-.54,1.21-1.08,1.79-1.63a38.62,38.62,0,0,0,3-3.58,27.46,27.46,0,0,0,1.92-3.36c.13.08.21.4.13.88a8.83,8.83,0,0,1-.65,2,11.41,11.41,0,0,1-1.7,2.79,16.64,16.64,0,0,1-3.08,3.1c-.61.35-.52-.06-1.12.27l-.95,1c-.32.31-.67.59-1,.89l-2.06,1.76c-.7.57-1.45,1.06-2.18,1.59a23.77,23.77,0,0,1-2.25,1.5,107.55,107.55,0,0,0,12-8.55c2.79-2.17,4.44-3.42,5-2.81.47-.73.85-1.33,1.13-1.83s.44-1,.56-1.26c.25-.64.27-.87.15-.86s-1,1.11-1.85,2-1.66,1.67-1.69,1.43a3.78,3.78,0,0,1,.6-1.24c.49-.72,1.09-1.93,2-3.67.26-.35.53-.69.77-1l.66-1.12c.42-.75.84-1.51,1.24-2.28a4.33,4.33,0,0,0,.22-.46l.17-.4.33-.79.31-.79.15-.39.09-.3a14.88,14.88,0,0,0,.49-2.31,12.3,12.3,0,0,0,0-2.27,11.12,11.12,0,0,0-.15-1.14l-.1-.57s0-.11,0-.12l.14,0,.28,0,2.17.23,2.1.25a2.53,2.53,0,0,1,.49.08l.17.07.08,0s0,0,.06,0l.4.07,1.56.31c.5.11,1,.22,1.49.35l.73.19c.2.06.59.14.52.18.26.36.19.84-.28,1.5,1.24-.1,2.68-.23,4.35-.34l1.3-.07h.51s.15,0,.1,0l-.2.34a14,14,0,0,0-.78,1.71,15.39,15.39,0,0,0-.78,3.55c0,.35-.06.71-.07,1.08s0,.85,0,1.28A33.32,33.32,0,0,0,962,602c.62-.09,1.17,2.52,2.15,4.73s2.15,4,2.51,3a53.14,53.14,0,0,1-1.9-6.5c-.14-.53-.23-1.08-.33-1.62s-.2-1.09-.26-1.63-.16-1.09-.19-1.63l-.06-.82c0-.26,0-.58,0-.72a14.65,14.65,0,0,1,.89-7,11.05,11.05,0,0,1,1.91-2.93l.08-.09s-.05,0-.08,0l-.19,0-.37-.09a7.17,7.17,0,0,1-.7-.23,6.62,6.62,0,0,1-1.25-.62,8.07,8.07,0,0,0-3.86.68c-.34.17-.62.35-.93.52s-.75.32-.93.47a5.47,5.47,0,0,1-.74-.07l-.16,0-.08,0h0l-.17,0-1.42-.25a17.48,17.48,0,0,1-2.21-.54c-.55-.18-1-.4-.92-.58a18.45,18.45,0,0,0,5-.22,13.82,13.82,0,0,0,1.2-.89,3.92,3.92,0,0,1,1.93-.66,8.75,8.75,0,0,1,1,0l1.34,0c1,.05,2.18.15,3.62.32-.06-.28-.75-.54-1.83-.79-.53-.12-1.17-.24-1.86-.36L961,583l-4.54-.62c-1.77-.23-3.58-.48-4.32-.64,1.06-.46.15-1.26-3.33-2.17,3.24-.65,11.36-.56,17.59-.7-2.09.34.63,1-1,1.17l8.93.16,2.35.06h.3c.09,0,0,.08,0,.12l-.09.26a5.44,5.44,0,0,0-.15.54,3.28,3.28,0,0,0,.38,2.28,1.67,1.67,0,0,1-.06.2c-2.62,3.19-4.11,5.11-5,5.94s-1.35.61-1.42-.39a17.51,17.51,0,0,0-1.78,7.09,20.78,20.78,0,0,0,1,6.83c1.3,4.1,3.3,6.83,2.47,7.4a19.75,19.75,0,0,0,1.77,2.24,2.56,2.56,0,0,0,.77.68c.2,0-.17-.64-.72-1.6-.27-.49-.55-1.06-.86-1.63s-.57-1.19-.79-1.75a7.73,7.73,0,0,1-.68-2.32l.44.72a21.8,21.8,0,0,1-2.46-9.89c1.12-.49.79,2.26,1.48,5.36a16.29,16.29,0,0,0,1.56,4.36c.7,1.21,1.48,2,2.13,2.07,2.12-.42,3.57,2.39,6.25,5.72a35.59,35.59,0,0,0,4.64,4.93,18.08,18.08,0,0,0,5.39,3.34,46.55,46.55,0,0,1-9.06-1.84,49.17,49.17,0,0,0,7.06,3.39,20.3,20.3,0,0,0-2.85-.4l-2.4-.1a14.6,14.6,0,0,1-6.92-2.29,58.42,58.42,0,0,0,16.69,9.69,50.38,50.38,0,0,0,15.68,3.39c2.75,1.24,4.06,2.21,2.69,3.11,6-.58,10.56-.7,15.08-.92a42.56,42.56,0,0,0,14-2.63c2.56-1.37,3.08-1.94,2.62-1.94a30.82,30.82,0,0,0-3.49.87c-3.15.81-6.6,1.34-3-.55a17.7,17.7,0,0,0,5.93-2.1,32.64,32.64,0,0,0,5.11-3.4,27.72,27.72,0,0,1-8.72,4.4A57.77,57.77,0,0,1,1027,634c5.73-1,4.73-2.4,6.1-3.31a61.78,61.78,0,0,1-9.23,1.47c.21-.9,3-1.26,6.22-1.9s6.88-1.66,8.68-2.91a5.89,5.89,0,0,0-1.29,2.21,4.89,4.89,0,0,1-1.42,2.17,67,67,0,0,0,12.91-6.85,47.78,47.78,0,0,0,5.88-4.81,46.51,46.51,0,0,0,4.43-5c.74-.9,1-1.17,1-.94a5.82,5.82,0,0,1-.68,1.75,47.31,47.31,0,0,1-3.14,5c1.13-.42,2.55-2.36,3.69-4.42s2-4.23,3-4.87c.16.88-.43,2.34-1.33,3.86s-2.14,3.09-3.1,4.46a30.34,30.34,0,0,0,6.45-13,28.83,28.83,0,0,0,.65-7.48,30.2,30.2,0,0,0-1.29-7.35c.3-.11,1.13,1.6,1.64,4.08a23.1,23.1,0,0,1,.25,8.07,22.73,22.73,0,0,0-2.66-15.63l-.42-.68-.21-.34a.48.48,0,0,1-.12-.1,5.5,5.5,0,0,0-.54-.54,22.62,22.62,0,0,0-3.24-2.48,25.37,25.37,0,0,0-2.36-3.13l-.14-.16s-.18-.12,0-.14l.63-.18,1.16-.32c.73-.21,1.35-.37,1.85-.48,1-.22,1.52-.19,1.5.16.55-.51.44-.72.08-.81a10.44,10.44,0,0,1-1.35-.19,10.12,10.12,0,0,0,3-2.15,8.89,8.89,0,0,0,.86-1.06l.19-.28.34-.41c.24-.28.44-.57.65-.84,1.61-2.2,2.62-4,4.72-6.63l-7.09.56.2.17-.16-.21,7-.55c-1.34,1-2.71,2-4.12,2.92a19,19,0,0,0,3.46-3.47l-5.77.45a2.41,2.41,0,0,0,2.24.58c.66,0,1.53.52,4.42,2.82-2,.17-2.28,1.68-1.49,3.73,1.06-.08,2.81,1,4.91,2.07a43.12,43.12,0,0,0,6.63,3.06c-1.1-1,1.23-.51,3-.33a3.79,3.79,0,0,0,1.79,0c.14-.15-.36-.49-1.92-1.23,4.83.8,8.29,1.41,11.51,1.68a25.66,25.66,0,0,0,4.71.11,17.86,17.86,0,0,0,4.89-1c-2.24.07-.19-.49,1.85-1.11s4-1.63,2.13-1.67c2.2-.4,4.17-1,6-1.33s3.27-.82,4.47-1.07c2.36-.58,3.6-.41,2.74.75-.75.34-1.62.71-2.5,1.07s-1.8.59-2.58.88c-1.54.62-2.7,1-2.37,1.44A46.08,46.08,0,0,0,1129.5,570c.93-.57,1.89-1.28,2.86-2a14.74,14.74,0,0,0,1.36-1.09l1.29-1.07c.4-.35.83-.64,1.18-.95a12.55,12.55,0,0,1,1-.82,2.66,2.66,0,0,1,1.57-.67c.13-.37.31-.73.48-1.13s.33-.82.52-1.24c.37-.85.87-1.7,1.3-2.63s.85-1.92,1.31-2.91.75-2.07,1.12-3.1c.16-.53.38-1,.49-1.58s.21-1.06.31-1.58.18-1,.27-1.53c0-.25.08-.5.1-.75s0-.49,0-.73a9.66,9.66,0,0,0-.76-4.71c.11.4.22.79.31,1.19a9.3,9.3,0,0,1,.13,1.17c.06.77.08,1.53.07,2.25a9.32,9.32,0,0,1-.26,2.08c-.13.65-.29,1.27-.45,1.86a16,16,0,0,1-1.23,3c-.42.83-.71,1.55-1,2.09a28.27,28.27,0,0,0,.59-2.85,14.91,14.91,0,0,1-.48,1.42,29.05,29.05,0,0,0-1-8c-.1.89-.3,1.55-.4,2.08a5.81,5.81,0,0,0-.13,1.23,2.53,2.53,0,0,0,.4,1.3,3.81,3.81,0,0,1,.27,1.92,15.32,15.32,0,0,1-.3,2c-.27.81-.64,1.8-1.16,3-.71.92-1.28,1.21-1.52,1.17s-.29-.49-.18-1.16c.12-1.39.79-3.73,1-6.11a17.71,17.71,0,0,0,.1-3.38c0-.51,0-1-.06-1.39s-.16-.79-.24-1.08c-.32-1.17-.66-1.2-1.06.78a22.58,22.58,0,0,0-.61,3.66,7.36,7.36,0,0,0,0,2.26c0,.34.12.68.16,1a10.65,10.65,0,0,1,0,1.16,10.47,10.47,0,0,1-.13,1.46c0,.27-.09.57-.16.89s-.21.62-.35,1a10.51,10.51,0,0,0,.75-1.35,33,33,0,0,1-7.43,11.27c-.49-.09-.08-.93.43-1.74.27-.4.55-.8.73-1.13l.33-.54a31,31,0,0,1-7.74,6l-1.74.94c-.57.28-1.15.49-1.71.73a25.54,25.54,0,0,1-3.32,1.21,35.5,35.5,0,0,1-3.45,1c-1.22.23-2.45.6-3.86.76a45.86,45.86,0,0,1-4.57.55c-.84.05-1.72.18-2.65.19l-2.94,0c.59.13,1.73.76,1.81,1.44,0,.34-.2.7-.95,1a7.77,7.77,0,0,1-1.51.42,19.92,19.92,0,0,1-2.43.14c-.71,0-1.34.05-1.9,0a12.87,12.87,0,0,1-1.53-.16,12.57,12.57,0,0,1-2.33-.64,46.24,46.24,0,0,0-4.82-1.76c2.78.38,5.33-.46,8.83.72l-.15-1.67c1.56-.17,2.81-.37,3.83-.56a17.38,17.38,0,0,0,2.49-.74c.66-.24,1.19-.48,1.68-.69s.9-.5,1.35-.73a14.91,14.91,0,0,1,1.53-.7l1-.34c.35-.15.74-.3,1.16-.45s.9-.32,1.42-.48l.83-.25.88-.35c.62-.23,1.3-.48,2-.74s1.52-.67,2.39-1c.05-.36.73-.84,1.7-1.61.5-.37,1.09-.77,1.76-1.19s1.32-1,2.06-1.52a39.07,39.07,0,0,0,8.16-8.13l-1.47,1.09c-.25.17-.47.35-.72.52l-.8.45c.46-.82.67-1.5.91-2a4.85,4.85,0,0,1,.62-1,1.65,1.65,0,0,1,1-.69,2.33,2.33,0,0,0,1.22-1,10,10,0,0,0,1-4.25,7.36,7.36,0,0,0,1.09-1.3,18.16,18.16,0,0,0,1.09-1.57l.9-1.65.46-.8c.12-.25.23-.5.35-.72,1-1.83,2-2.76,3.22.45,0-1-.1-2-.17-2.88s-.36-1.67-.54-2.43a10.61,10.61,0,0,0-.73-2.08c-.29-.65-.54-1.27-.85-1.87l-1-1.72c-.17-.29-.34-.58-.52-.87l-.63-.85c-.43-.58-.87-1.19-1.32-1.85s-1.06-1.26-1.63-2c-.17-.6-.28-1-.33-1.32a.71.71,0,0,1,.1-.6c.21-.21.68-.08,1.23.15,1,.53,2.43,1.5,2.86.59l-1.5-1.74c-.55-.54-1.13-1-1.68-1.54a18.16,18.16,0,0,0-3.09-2.29c-.89-.53-1.54-.82-1.82-.73s-.11.44.51,1.34a43.51,43.51,0,0,0-8.79-6.38c0-.24.81.07,1.86.54a25.47,25.47,0,0,1,2.86,1.63,28.15,28.15,0,0,0-11.27-4.39,20.81,20.81,0,0,0-2.74-.25c.86.17,3.58.59,4.58,1.3-1.08-.3-2.43-.47-3.79-.73a16.12,16.12,0,0,0-2.09-.25l-2-.17a12.91,12.91,0,0,0-1.85,0l-1.54.05a5.63,5.63,0,0,0-1.65.22,20,20,0,0,1,3.86.26,18.15,18.15,0,0,1,2.69.85c.42.15.84.3,1.29.44s.89.34,1.41.5c1,.33,2.28.52,3.91.89a4.14,4.14,0,0,1-1.68.3,8.78,8.78,0,0,1-3.54-.69c4.88,2.33,9.61,4.51,10.75,6.74a10.29,10.29,0,0,0-4.55-2.52,24.58,24.58,0,0,0-2.76-.31c1.71.82,4.3,1.91,6.61,3.2l1.72.9c.52.33,1,.65,1.51.93l1.32.76c.37.25.71.45,1,.61-.25.5.38,1.25,1.2,2.21.4.5.89,1,1.4,1.54s.93,1.12,1.4,1.65l.65.77c.2.26.35.52.5.75a9.32,9.32,0,0,1,.64,1.13c.23.55,0,.62-1.06,0a2.54,2.54,0,0,1,1,.81,17.21,17.21,0,0,1,1.13,1.88,11.44,11.44,0,0,1,1.17,4.57c-.23,0-.52-.39-.84-1a6.92,6.92,0,0,0-.59-1c-.23-.37-.47-.76-.7-1.17a9.29,9.29,0,0,0-.86-1.21l-.88-1.16a20,20,0,0,0-1.9-1.72c-2-2.32-3.27-3.31-3.59-3.87s0-.47.68-.2,1.56.72,2.23,1,1,.31.64-.41a34.07,34.07,0,0,0-8.23-6.53c.39.41-.71.17-1.14.27-.22.05-.27.18.1.51a7.45,7.45,0,0,0,.89.65l.75.46.91.65c-.41-.09-.83-.25-1.32-.37s-1-.27-1.56-.45c-1-.4-2.29-.72-3.51-1.19-.6-.25-1.28-.41-1.92-.64s-1.27-.5-1.93-.71c-1.34-.39-2.6-1-3.87-1.47-.66.17,0,.43.89.67l2.67.84-1.68.22a4.74,4.74,0,0,0-1.79.51c-.83.52-.44,1.1,3.16,2.4-1-.36,0-.37.71-.37s1.41-.22-.39-1.28a27.44,27.44,0,0,1,2.93,1.14l1.55.92a8.71,8.71,0,0,1,1.39,1,7.09,7.09,0,0,1,1.57,1.64c.14.42,0,.53-.89.39a10.94,10.94,0,0,1,1.29.69l1.46.81a32.68,32.68,0,0,1,2.87,2.09,23,23,0,0,1,2.47,2.27c.64.75,1.19,1.44,1.59,2-.13.28-.27.3-.43.18a4.21,4.21,0,0,1-.62-.72l-.74-1.09a6,6,0,0,0-.93-.86,18.58,18.58,0,0,1,4.25,7.49l.24-1.28a9.84,9.84,0,0,0,.08-1.34,54.33,54.33,0,0,1,1.44,8.15,14.37,14.37,0,0,1-1.44,8,3.28,3.28,0,0,1-.1-1.62,7.62,7.62,0,0,1,.21-1.06c0-.19.11-.38.17-.57l.1-.63c.08-.42.17-.84.28-1.27s.09-.9.15-1.35a11,11,0,0,0,0-2.63,3,3,0,0,0-.9,1.56,1.84,1.84,0,0,0,.08,1.15c.06.22.13.46.19.74a2.77,2.77,0,0,1,0,1,8.89,8.89,0,0,1-.25,1.28c-.23.47-.52,1-.89,1.6-.64.51-1.13.4-1.3-.15l-.37,1.1a5.84,5.84,0,0,1-.42,1.12l-.54,1.12-.27.57c-.1.19-.23.37-.34.55-1.22.83-.83,0-.44-.46-1.2,1.76-2,2.65-2.26,3.27a2.31,2.31,0,0,0-.23,1.14c0,.28-.16.57-1,1.27a9.77,9.77,0,0,1-1.84,1.31l-1.51.89c-.58.31-1.28.59-2.05.94,4-1,5.29-2.32,6.38-3.38.58-.51,1-1.14,1.64-1.79s1.4-1.46,2.59-2.46c.81-.43,1-.26.85.32a11.47,11.47,0,0,1-1.66,2.53,29.92,29.92,0,0,1-3.05,2.9c-.52.43-1,.84-1.39,1.19a8.81,8.81,0,0,0-1,.75,14.6,14.6,0,0,1-2.19.78c-.69.16-1.32.27-1.92.36a27.42,27.42,0,0,1-3.31.2,43.35,43.35,0,0,0-8.65,1.27c.38-.06.71-.11,1-.18s.53-.16.74-.24a4.82,4.82,0,0,0,.92-.39,2.09,2.09,0,0,0,.66-.57c.32-.33,1-.51,5-1.53,4.1-2-2.5,0-3.59-.88-1,.36-.59.71-.65,1.09s-.62.75-3.65.93l.22-.25a45.19,45.19,0,0,1-5,.91,37.7,37.7,0,0,1-5.21.38,102.59,102.59,0,0,1-10.74-3.13,30.23,30.23,0,0,1-9.23-5.24l-5.7-5-4.85,5.87a15,15,0,0,1-4.78,4.05c.76.09,1.53.15,2.3.19-.48.5-1,1-1.56,1.52l-.45.39-.68.59c-.47.38-1,.74-1.46,1.12a52.71,52.71,0,0,1-6.82,4c-2.4,1.25-4.79,2.42-6.92,3.43l-3,1.41-1.32.61-.16.07-.08,0v0l0,.18c0,.12,0,.23,0,.35l2.82,2.22a26.47,26.47,0,0,1-4-2.41,1.66,1.66,0,0,1,.05-.62l1.09-.58,2.67-1.35c2-1,4.29-2.17,6.62-3.43-2.22,1-4.43,2.06-6.55,3l-3.1,1.38-1.49.64-.36.17a.87.87,0,0,0-.1.19l-.2.39c2.93,2.33,6,4.88,8.87,7.35,1.42,1.25,2.79,2.46,4.07,3.64a27.92,27.92,0,0,1,3.32,3.46c.22.29.47.56.67.85l.29.44c0,.08.08.13.14.24a1.13,1.13,0,0,0,.09.15c.21.32.42.64.6,1,.39.64.7,1.28,1,1.92a21.18,21.18,0,0,1,1.36,3.83,14.89,14.89,0,0,0,.26-1.69c0-.52,0-1,0-1.44s0-.85-.08-1.24-.11-.76-.17-1.13-.16-.73-.25-1.11a11.21,11.21,0,0,0-.34-1.21c0-.09-.07-.21-.14-.39l-.18-.46c-.13-.31-.31-.62-.47-.95s-.34-.67-.52-1l-.69-1.09a15.24,15.24,0,0,1,2.58,2.6c.14.21.27.41.4.63s.2.32.29.48a5.46,5.46,0,0,1,.45,1,10,10,0,0,1,.66,3.72c0,1.25-.11,2.53-.28,4s-.33,3.24-.7,5.51c-.83-.13-1-.88-1.22-1.35s-.53-.67-1.57.05a8.1,8.1,0,0,1-.38,2.85,15.34,15.34,0,0,1-1.46,3.16,46.43,46.43,0,0,1-4.47,5.85c-1.45.07-1.45-.8-.43-2.38a56.31,56.31,0,0,0,4.62-7.38,9.35,9.35,0,0,0,1.46-8.21,23.38,23.38,0,0,0-1.4-3.92c-.12-.32-.28-.62-.42-.93a7.17,7.17,0,0,0-.46-.92c-.18-.3-.39-.59-.58-.88l-.57-.87a5.19,5.19,0,0,0-.6-.84c-.45-.55-.87-1.08-1.25-1.61l.9,1.3.46.66c.14.23.24.46.36.69l.71,1.39a5.16,5.16,0,0,1,.31.73l.13.38a1,1,0,0,1,.07.29,1.61,1.61,0,0,1-.15-.28l-.21-.35a5.15,5.15,0,0,0-.47-.68l-1-1.3a7.54,7.54,0,0,0-.52-.63l-.62-.61-1.23-1.18-2.53-2.32-2.52-2.23c-3.34-2.93-6.53-5.59-9.7-8.05l.44-.55a8.12,8.12,0,0,1,1-.49l2.13-1c1.45-.71,3-1.48,4.56-2.33l-.12.33c1.12-1.12,2.41-2.32,3.83-3.58l-6.76,3.05c.82-.63,2.22-1.54,4-2.64s3.92-2.35,6-3.61l1.57-1,1.41-1a29.32,29.32,0,0,0,2.54-2c.4-.31.74-.66,1.08-1l.43-.43.17-.19a7.88,7.88,0,0,1,.56-.62l-.57.55-.33.31c-.21.2-.43.39-.67.59-.92.76-1.85,1.42-2.68,2.08s-1.76,1.16-2.61,1.67l-2.45,1.38a61.12,61.12,0,0,0-6.87,4.32,41.68,41.68,0,0,0-3.7,3.14c-.51.47-1,1-1.6,1.42s-1.42.93-1.33,1.54l-.06.06a110,110,0,0,1,9,8.36,76,76,0,0,1,6.33,7.19c.36.58.72,1.14,1.07,1.71a6,6,0,0,1,.44.88l.1.24.06.18,0,.17c.14.47.18.91.33,1.33a9.67,9.67,0,0,0,1,2.51c-.38.22-.69,1.07-1.09,1.52-.18.22-.42.36-.6.3s-.37-.28-.57-.76c-.28-1.19-.46-2.29-.74-3.17a4.92,4.92,0,0,0-.22-.59l-.13-.24-.07-.11a1.19,1.19,0,0,1-.1-.19l-.11-.17a3.18,3.18,0,0,0-1.62-1.45l.68.84a7,7,0,0,1,.49.81l.1.2.09.2,0,.1.09.2a5.54,5.54,0,0,1,.2.64,5.9,5.9,0,0,1,.12.94c0,.3,0,.63.07,1.1a12.77,12.77,0,0,1,.12,1.93,3.65,3.65,0,0,1,1.55,2.89,7.18,7.18,0,0,1-.16,2.64,11.84,11.84,0,0,1-1.15,3.09,15.09,15.09,0,0,1-2.63,3,22.32,22.32,0,0,1-3.69,2.64,26.89,26.89,0,0,1-7.94,3,18.34,18.34,0,0,0,6.73-3.77c1.41-1.34,1.81-2.39,1-2.49-.82,1.44-3.34,2.38-5.36,2.9s-3.51.77-2.41,1.54a42,42,0,0,1-11.53,1.68c-3.85,0-6.91-.77-7.19-1.68,3.2-.09,6.29,0,9.25-.14a27.18,27.18,0,0,0,8.15-1.41c-1.36.36-2.82.21-2.11-.39a39.7,39.7,0,0,0,6.88-2.13,27,27,0,0,1-5,.76c-1.3.12-2.7.48-6.23,1.09.46.08,1.41.24.74.43a46.17,46.17,0,0,1-5.94.53l-.27-1.65c-2.67.45-6.76,0-11.07-1.23a97.13,97.13,0,0,1-12.87-4.76l.85.11a23,23,0,0,0-6.48-3.06,11.82,11.82,0,0,1-2.79-1.29,7.53,7.53,0,0,1-2.55-2.71c1.43,1.13,1.69.06,2.25-.49a2.49,2.49,0,0,1-.86-2.46,3.83,3.83,0,0,1,.41-1,2.56,2.56,0,0,0,.11-.24l.59-1.58.32-.87c.06-.15.1-.29.17-.45l.44-.54c.58-.74,1.14-1.48,1.89-2.35-1.68,1.95-2.7,3.12-2.81,3.67-.3.61-.48.83-.59.81s-.12-.31-.11-.73c0-.21,0-.45.06-.71a9.14,9.14,0,0,1,.54-1c.21-.35.39-.7.61-1l.68-1.05c.4-.64.74-1.19.88-1.49s.05-.29-.34.12-1.09,1.21-2.16,2.51c-.66.23.3-1.53,2.58-4.9s6.15-8.62,10.5-14.26a33.94,33.94,0,0,1-6.38-1.75l-.19-.09-.1,0a.41.41,0,0,0-.16,0l-1-.13-2-.25-3.56-.49c-1.22-.8,1.48-.85,5.65-.6l1.61.1.85.06a5.49,5.49,0,0,1,.71.07l2,.3c1.58.24,3.81.54,6.61.86-2.61,3.48-4.47,6.07-4.46,6.42s1.79-1.45,6.91-7.14l.7-.85c-3.89-.56-5.81-.75-7.18-.84-.65,0-1.16-.05-1.59,0a5.54,5.54,0,0,0-.94.09c-.48.09-.68.25-.57.46s.45.46,1.69.83l-1.62-.39a8.56,8.56,0,0,0-1.81-.37l-5.94-.82-12.6-1.81-8.83-1.29-4.27-.64-1-.17-.3-.05-.19,0-.73-.17c-1-.22-1.85-.45-2.67-.68l-.61-.17-.29-.09-.07,0-.21,0-.45-.08-3.39-.64-7.51-.5-4.38-.24c-2.58-.14-4.87-.3-7-.46l-3-.22-1.44-.1-.7-.05-.34,0h-.22c-1.14,0-2.53.12-4.3.24.89,3.36,1.93,7,3.11,10.84-.79-4.18-1.58-7.27-2.34-10l2.11-.29c.63-.09,1.23-.16,1.84-.2h.23l.38,0,.83.08c.58.06,1.21.14,1.9.23,1.38.19,3,.46,4.92.83l-5.45.13-1.31,0a3.86,3.86,0,0,0-.79.25c-.52.18-1.1.36-1.82.55l-1.26,0c.47,2.47.91,4.95,1.31,7.35s.76,4.73,1,6.79c.14,1.06.28,2.11.43,3.14l.21,1.55a3.9,3.9,0,0,1,.08,1.35c-.23,1.26-.45,2.48-.67,3.67-.06.3-.11.6-.17.9l-.2.28-.38.54a6.78,6.78,0,0,1-.74,1,10.79,10.79,0,0,0-.77,1c-.23.33-.57.61-.8.92l.38-.78a6.14,6.14,0,0,0,.25-.8,6.79,6.79,0,0,0,.42-1.54l.18.24a2.85,2.85,0,0,1,.17-1.29l0-.09,0-.32,0-.63.09-1.3c0-.87.11-1.74.16-2.58l0-.31c0-.06,0-.1,0-.17l-.06-.25c-.07-.35-.14-.68-.21-1-.15-.67-.29-1.31-.42-1.91-.27-1.21-.53-2.3-.76-3.2-.47-1.78-.86-2.81-1.06-2.44.56,2,1,3.85,1.48,5.64.21.9.42,1.78.63,2.66l.07.33c0,.11,0,.14,0,.22l0,.39,0,.77c-.06,1-.14,2-.23,3l-.08.76,0,.18,0,0-.06.11-.21.42c-.14.28-.25.58-.38.89a6.62,6.62,0,0,0-.55.94c-.08.17-.16.35-.23.53s-.23.36-.34.55c-.23.37-.36.83-.61,1.29l-.07-.27c-.27.37-.53.73-.78,1.09-.14.18-.25.36-.41.53l-.5.46-1,.9c-.37.26-.76.49-1.13.73a13.46,13.46,0,0,1-2.32,1.21,21.47,21.47,0,0,1-2.38.9c-3.19,1.05-6,1.63-8.72,3.63a9.53,9.53,0,0,1,3.15,0c1,.1,1.68.34,1.23.78a7.33,7.33,0,0,0-1,0c-.38,0-.8,0-1.23.06a26.41,26.41,0,0,1-2.68.23c-.88,0-1.67,0-2.24,0s-.92-.23-.88-.46a14.36,14.36,0,0,0,1.94-.45,44.68,44.68,0,0,1-6.64-.11c-.88,0-1.64-.15-2.31-.21a13.62,13.62,0,0,0-1.75-.06c-.83.39-.91.84-1.29,1.19a1.69,1.69,0,0,1-.93.39,7.11,7.11,0,0,1-2.22,0,22.22,22.22,0,0,1-2.52-1.06c-.5-.33-.73-.56-.77-.72-.08-.34.58-.42,1.32-.48,1.55-.25,3.3-.43.43-1.77a38.7,38.7,0,0,1-8.08-2.68l-.89-1.84a34.58,34.58,0,0,1-8-9.56,14.87,14.87,0,0,1-1.52-5,9.8,9.8,0,0,1,.91-4.21c.83-1.73,1.76-3.56,2.7-5.43,1.9-3.74,4-7.7,5.93-11.37l-1.41-.58-.61-.26a3.74,3.74,0,0,0-.69-.26l-3.38-1c-2.25-.68-4.53-1.38-6.89-2.13.24-.37,2.13-.14,5,.45,1.44.29,3.12.68,5,1.13.91.22,1.95.47,2.84.71l2.7.82c-2,3.92-4.51,8.71-6.7,12.83l-1.58,3-.72,1.36-.34.65c-.09.21-.17.41-.26.61a11.61,11.61,0,0,0-.73,2.27,6.12,6.12,0,0,0-.12.81c0,.13,0,.25,0,.36a1.76,1.76,0,0,0,0,.25,20.21,20.21,0,0,1,1.69-4.3c1-1.74,2.18-3.65,3.33-5.68,2.32-4,4.79-8.61,7-12.8-7-2.13-15.47-4.36-22.61-7.32l-2.67-.94-1.31-.45-1.22-.49c-.83-.31-1.57-.67-2.29-1l-.18-.08-.11,0-.21-.08-.43-.16a22.09,22.09,0,0,0-2.86-.95c-1.54-.45-2.57-.39-2.46.23-2.94-1.64-3.54-2.66-3.65-3.19s.41-.72.21-1.09A4.82,4.82,0,0,1,840,541c-.42-.35-.87-.77-1.34-1.22s-.87-1-1.33-1.59a7,7,0,0,1-.64-.91l-.31-.47-.15-.24c-.15-.25-.4-.59-.48-.78-.24-.46-.5-.9-.72-1.37l-.6-1.48-1.2-3c-.84-1.87-1.43-4.12-2.1-6.11s-1.29-3.92-1.87-5.71l.47-1.93-2.46-6.76-1.18-3.22a10,10,0,0,0-.6-1.36l-.61-1.22-3.8,3.74-4,3.82c2.7-2.33,2.71-2,2.08-1a21.35,21.35,0,0,0-2,3.14l-5.06,4.24a111.8,111.8,0,0,0,11.07-8.5l.57,1a3.78,3.78,0,0,1,.55,1.22c.33,1.06.65,2.12,1,3.2s.69,2.11,1,3.18.75,2.19,1.13,3.3c.75,2.2,1.56,4.42,2.38,6.66a67.42,67.42,0,0,0,2.69,6.45l.7,1.58c.27.5.53,1,.83,1.48s.67,1,1,1.5c.52.8,1.11,1.51,1.58,2.32a25.15,25.15,0,0,1,1.51,2.29,24.56,24.56,0,0,1,1.41,2.41c-2.23-1.62,0,1.37-2.23-.33a8,8,0,0,1-1.4-1.83,1,1,0,0,1-.15-.83,17,17,0,0,1-2.37-1.31c-.51-.25-.52.12,1.06,2.1a1,1,0,0,1-.89,0,4.61,4.61,0,0,1-1.17-.79,9.8,9.8,0,0,1-1.41-1.45l-.74-1-.09-.12-.17-.25c-.14-.19-.21-.33-.31-.49a10.28,10.28,0,0,1-.57-1c-.67-1.39-1.37-2.87-2.1-4.39s-1.25-3.28-1.88-5c-1.15-3.21-2.31-6.43-3.34-9.32-.06-.37-.12-.71-.17-1s0-.31-.07-.45l-.12-.17a2.4,2.4,0,0,1-.28-.63.68.68,0,0,1,.2-.78.78.78,0,0,1,.42-.14c.15,0,.38-.13.52.28.31.61.69,1.45,1.1,2.43l2.94,7a64.11,64.11,0,0,0,2.77,5.92c-.52-1.25-1-2.49-1.49-3.64s-1-2.32-1.49-3.56-1-2.55-1.48-4.08-.93-3.17-1.41-5.24a10.61,10.61,0,0,1,1.5-.59c-.4-1.12-.75-2.13-1.07-3-.4-.46-.76-.83-1.08-1.14-2.42,2.4-3.71,3.76-4.31,4.51s-.47.88-.18.91c.6,0,1.7-.25-.18,2.29a32.75,32.75,0,0,1-9.58,8.52c-.88.56-1.76,1-2.63,1.42a5.78,5.78,0,0,1-1.31.48l-1.29.4c-.19.05-.45.15-.58.17l-.37.06-.69.13-1.14.26c.46-.16.92-.37,1.38-.58l.69-.31,1.17-.58-1.17.42-.66.15c-.43.1-.84.22-1.21.3l-2.09.49c-.64.16-1.24.32-1.82.45s-1.13.3-1.68.41a19.4,19.4,0,0,1-8,.48c-.52-.28-1-.55-1.55-.84l-1.46-1c.51.21,1,.39,1.46.55a10.81,10.81,0,0,0,1.38.31,11.34,11.34,0,0,0,2.43.24,9.91,9.91,0,0,0,2-.22A10.39,10.39,0,0,0,793,530c2.12-.76,3.59-1.66,5.92-1.74-3,.24-4.31-.16-4.58-.52s.47-.83,1.6-1.4,2.6-1.26,4-2l.51-.31c.2-.11.23-.14.77-.43l2.44-1.37a4.57,4.57,0,0,0,1.11-.85l1-.92c.66-.6,1.23-1.11,1.75-1.64-.72.6-1.4,1.1-2.09,1.64l-1,.8a4,4,0,0,1-.51.36l-.52.23-2,.93-.51.22-.25.12-.11,0-.39.12a14.51,14.51,0,0,1-1.49.4,9.46,9.46,0,0,1-1.38.23,10.66,10.66,0,0,1-4.65-.33,10.92,10.92,0,0,1-5,.51,13.09,13.09,0,0,1-2.5-.44,18.56,18.56,0,0,1-2.4-.73,7.2,7.2,0,0,1-1.15-.44l-1.13-.46c-.75-.3-1.42-.68-2.17-.93a16.73,16.73,0,0,0-2.11-.87,8.89,8.89,0,0,0-1.06-.39c-.37-.12-.76-.2-1.1-.33-1.09-1.11-.37-.87.27-.66s1.21.43.07-.59a22.09,22.09,0,0,1-2.71-2.92c-.15-.25-.31-.5-.48-.74a3,3,0,0,1-.26-.36l-.19-.36c-.12-.24-.29-.47-.41-.71s-.19-.46-.3-.69a9.41,9.41,0,0,1-.77-2.69,13.1,13.1,0,0,1-.13-1.43c0-.24.07-.48.07-.73v-.39l.09-.39c1-2,1.54-1.27,2.45-1.36.33-.47.88-.86,1.27-1.32.25-.21.52-.4.75-.61l.36-.33.41-.28a9.54,9.54,0,0,0,.79-.59c.28-.19.59-.35.87-.53a15,15,0,0,1,1.75-1,30.25,30.25,0,0,1,7.74-2.83c.35-.07.69-.18,1-.23l1.06-.15,1.08-.17c.36,0,.74,0,1.11-.07.74,0,1.49-.12,2.26-.09.39,0,.77,0,1.16,0h.3l.66.11,1.39.24a9.73,9.73,0,0,1,1.47.35l1.51.43a15.43,15.43,0,0,1,1.56.63c.52.24,1,.42,1.58.71l1.68,1c.56.35,1.12.69,1.74,1.12l3.72,2.51c5.13,3.48,11.18,7.71,17.22,12.07a43.37,43.37,0,0,1,.87-5.18q.09-3.8.21-7.89l.78,8.95c.32-10.82.71-20.83-.33-27a80.83,80.83,0,0,0,1.54-13c.07-1.14.13-2.31.2-3.51,0-.74.05-1.5.07-2.28,0-1.56.06-3.16.09-4.79.12-6.52.39-13.33,2.37-17.83a49.88,49.88,0,0,0,.64-12.27,48.47,48.47,0,0,1-.08-10.34c.63.1,1.35,3.14,2.4-1.7.24-1.94.5-3.85.78-5.75.18-1.2.36-2.39.55-3.57l.14-2.12.09-1.49c.24-4,.49-7.88.73-11.8.53-7.82,1.05-15.6,1.58-23.48,1.14-15.75,2.3-31.91,3.58-49.72a12,12,0,0,1,.29,3c2.2-23,1.46-45.93,4-65-.08-3.63.29-14.43-1.11-11.22-.53,4.45-2,5-2.84,4.58.23-17.14,2.75-8.2,3.33-19.61,2.45-3.41.81,7.29,2.71,7.45l0-16.56c.73-4.6,1-9.25,1.28-13.74.08-1.12.15-2.24.23-3.34,0-.55.09-1.1.13-1.64l.08-.81.06-.57a4.12,4.12,0,0,1,.67-2c-.27.54.15.8.44,1.08a1,1,0,0,1,.32.48.73.73,0,0,1,0,.35,1.71,1.71,0,0,1-.09.22l-.06.13q-.06.25-.12.54c0-.45-.06-.58-.12-.58s-.12-.05-.16-.2l0,.2-.06.57c0,.4-.06.77-.1,1.13,0,.71-.11,1.35-.15,1.94-.09,1.17-.13,2.11-.15,2.88a22.48,22.48,0,0,0,.14,3.31,44.56,44.56,0,0,1,.21,9.39c.19-5.41.47-11.79.85-18l.07-1.15v-.3l0-.6a3.1,3.1,0,0,1,.23-1.15,2.55,2.55,0,0,1,1.44-1.43c-.66-.47-.39-1,.29-1.28a4.68,4.68,0,0,1,1.14-.32,2.56,2.56,0,0,0,1-.29l.14-.09.2.16c0-.16.14-.29.36-.41.58-.08,1.41-.13,2.27-.17,1.73-.06,3.69-.06,4.61-.08l2.23,2.06c4.22.11-1.11-1,3.1-.91,6,.06,27.26,1.67,28.59,3.75,7.21.46,9.38-.43,16.81.45-.63.44-2.44.48-2.73.7l3.43.36,1,.13a3.92,3.92,0,0,1,2,.75,3.76,3.76,0,0,1,1.27,1.72,4.2,4.2,0,0,1,.13,2.14c-.13,1.37-.27,2.72-.41,4.06-.19,1.81-.39,3.59-.58,5.34-.4,3.49-.84,6.85-1.35,10-.56,12.27-1.15,22.77-.55,30.63.14-3.3,1.39-12.84,2-6.76.5,3.35-.23,8.4-.32,13.51-.87-1.27-2,12.79-1.83,2.58-2.34,2.37-1.45,21.94-3.55,21.6a22.49,22.49,0,0,1,0,3.74c0,.45,0,.92-.07,1.41s-.07,1.21-.11,1.85c-.12,1.76-.25,3.63-.38,5.54-.52,7.61-1,15.77-.78,19.62-1.18,2.81.4-12.29-.26-12l-.63,10.86-.68.51c-.14,1.37-.27,2.66-.4,3.9,0,.05,0,.05.07.05h.33l.45,0,.88,0,1.7.09c2.22.11,4.25.16,6.11.18,3.72,0,6.77-.07,9.48-.23s5.15-.39,7.21-.49l1.63-.07,1.59,0c.76,0,1.56,0,2.44,0l-.3.22c1.59.07,3.18.21,4.77.33-1.94.28-3.85.57-5.76.93,3.74.32,6.61.35,9.61.46A52.21,52.21,0,0,1,960.19,329l.68.74c1.68.26,3.36.55,5,.88-.85-.17-1.19,0-.71.28a15.16,15.16,0,0,1,2.12.15c1.14.2,2.51.61,3.86,1s2.78.81,4.21,1.36,2.9,1,4.36,1.66c5.84,2.39,11.59,4.9,14.16,5.38.69.37,1.4.79,2.13,1.24l.43-.16c.06,0,.15,0,.2-.1l.09-.31c.12-.42.25-.83.37-1.25.26-.85.51-1.74.73-2.77a28.49,28.49,0,0,0,.4-8.27c.58,1,1.16,2.11,1.73,3.22-.41,5.7-.75,8.53-1,10.15a18.41,18.41,0,0,1-.41,1.8l-.09.33c0,.09-.12.11-.18.17a3.52,3.52,0,0,0-.39.31c-1.81-1.09-4.32-2.45-11.84-5.62,1.59,1,3.5,2.2,5.68,3.48s4.64,2.65,7.33,4.13l.29-.51a.92.92,0,0,0,.14-.28l.06-.43c.09-.59.17-1.18.26-1.79.16-1.24.32-2.51.5-3.82.33-2.65.66-5.51,1-8.5.65-6,1.29-12.55,1.9-19.24.21-2.4.43-4.83.64-7.24.17-2,.33-4,.49-5.92.3-3.9.58-7.66.84-11.08-.12-14.13,4-37,1.52-43.22l1.09,1.59,1.51-11.77.76-5.88.38-2.94.19-1.47,0-.12v-.06l0-.11.05-.24a6.16,6.16,0,0,1,.23-2,3.9,3.9,0,0,1,1.11-1.68,4.07,4.07,0,0,1,1.78-.93,5.54,5.54,0,0,1,2-.05l7.16.59c2.78.21,5.5.4,8.15.55,5.29.31,10.27.47,14.81.37l4.1,1.37a110,110,0,0,1,15.39-.42c3,.07,6.13.2,9.32.35l.3,0h1c.38,0,.77,0,1.15,0a6.3,6.3,0,0,1,2.26.55,6.61,6.61,0,0,1,3.21,3.22,7.17,7.17,0,0,1,.58,2.14c.07.72.08,1.44.14,2.15l0,.26v.39c0,.32,0,.64,0,1,0,.63,0,1.25,0,1.85,0,1.2.09,2.33.18,3.38a26.05,26.05,0,0,0,.83,5.22c-1.68,8.87-1.33-2.83-2-3.78-.9,6.56.84,17.83-1.55,24-.63-.06.21-9.32-.54-5.17-1.57,4.68.59,6.95-1.19,12.25,1.42-2.29,1.89,8.89,1.45,16.95a8.05,8.05,0,0,1,.38-2.1c1-1.09.32,4.88.18,8.18a2.59,2.59,0,0,1-.24-1.22c-2,41.66-5.28,89.26-10.17,132.83l-.19-8.12c0,1.58,0,3.46-.15,5.44-.07,1-.15,2-.22,3q-.16,1.79-.33,3.54c-.06.63-.12,1.25-.19,1.87.15.59.35,1.16.52,1.73l.9,3c.45,1.54.73,2.85.93,3.7l-.35-.82a40.64,40.64,0,0,0,3,11.41,19.59,19.59,0,0,1,1.75,9.68l-.52-1.66a104,104,0,0,1,1.72,17.65c.14,5.42.22,10.76.82,17.43a56.53,56.53,0,0,1-.63,6,25.83,25.83,0,0,1-.77,3.47c-.53,1.9-1,3.39-1.76,6.95,0,.64-.06,1.35-.08,1.81l-.45,12.55,11.2-3.14c3.91-1.1,5.88-2.06,6.11-2.32-.86,0-1.72.08-2.58.16-1.47-.35-.12-.84,2.16-1.18a63.41,63.41,0,0,1,7.46-.44c-1.4-1-1.68-2.13-3.12-3.29a9.11,9.11,0,0,0-3.39-1.62,23,23,0,0,0-7.15-.63l-1.53.38.42.37a25.33,25.33,0,0,1,1.89-8.12,24.12,24.12,0,0,0,1.47-9.85c-1.18-3-.81-6.81-.59-11.09s.28-9.07-1.32-13.77c1.1,2.47,1-.43.87-2.93s-.15-4.61,1.32-.48c.39-2.08-.79-7.22-2.23-12.74s-3.31-11.37-3.66-15.3c.7,1.1,1,.72,1.66,2.44-.92-2.56-1.54-4.28-1.86-5.57a16.73,16.73,0,0,1-.48-2.93c0-.57.13-1,.13-1.53,0-.14,0-.29,0-.44a2,2,0,0,1,0-.25l.06-.28a9.74,9.74,0,0,0,.21-1.37c-.56,0-1.12.06-1.68.11,0-.13,0-.25,0-.36V426a6.18,6.18,0,0,1,.07-.89,8.81,8.81,0,0,1,.34-1.47,9.51,9.51,0,0,0,.53-3.15c-.38,2.1-1.54,6.5-2,4.08a90.2,90.2,0,0,1,0-10.54c.64,0,.69,2.74.74,4.58,0,0,.86-8.39,1.69-8.91.27,3-.06,6.92.65,9.65,1.42-11,.61-.84,2.38-6.11-2.08,1.34,0-9.65,0-15.64.84-.56-.11,4.2.35,5.74,4.38-11.11.87-17.1,2.84-31.68a11.53,11.53,0,0,1,.28,3c.06-6.94,2.27-11.59,1.53-16.15.9-6.57,2.29-1,3.11-11.2-2.25,2.82,1.4-11.94-.71-12.38l1.92-7.69c-.58-7-3.76,1.53-2.81-11.95,1.83-12.2,3.42,1.46,5.14-5.61l-.91-3.1,1.34-5.92,0,.92c-.08-3.63.81-10.16,1.44-10.13.44.63.11,4.53.55,5.14-.56-6,4.93-23.37,2.25-29.9.87-3.47,1.47-10.74,2.42-9.73-1.15-3.32,1.8-15.88,1.3-20.7.21.33.61-.62,1-2.09.08-.37.16-.78.23-1.2,0-.22.07-.43.1-.66s.09-.78.13-1.18c.09-.87.17-1.75.23-2.63s0-1.74,0-2.57c-.11,1.13-.2,2-.31,2.72s-.24,1.18-.33,1.5c-.2.63-.33.57-.44.06s-.15-1.49-.3-2.67c-.06-.59-.11-1.24-.19-1.91s-.27-1.34-.41-2a18.64,18.64,0,0,0-1.25-7.42,25.82,25.82,0,0,0-5-8.23,30.58,30.58,0,0,0-6.88-5.65,47.26,47.26,0,0,1-4.56-2.78,21.26,21.26,0,0,0-6.42-.4,5.86,5.86,0,0,0-2.45.62,2.05,2.05,0,0,0-.66.83,2.62,2.62,0,0,1-.71.86c-4.13-1.38-17.61-2.33-15.07-4.08,3.59.55,11.63,1.63,10.22.19-6.81-1.31-3,.28-8.7,0,.45-.32-3.75-1.53-2.62-2a104.39,104.39,0,0,1-12.79-1.23c7.38,1.52-4.89,1-.47,2.12l7.28-.8c8.69.64,1.73,1.22,5,2-15.28-.9-12.44,1.35-26.86,1.05-2.67-.56-7.4-1.51-8.9-1.69,4.79.31,4-1.57,1.34-2.14a27.59,27.59,0,0,1-4.23.11c-.7,0-1.3-.08-2-.17-1.16-.11-2.31-.25-3.45-.4s-2-.2-3-.27-1.95,0-2.92,0a27.42,27.42,0,0,0-5.66.83,23.57,23.57,0,0,0-10,5.18,15.06,15.06,0,0,1,4.24-2.74c.84-.33,1.09-.24,1,.07a6.2,6.2,0,0,1-1.17,1.45c-.58.63-1.28,1.35-1.87,2a26.52,26.52,0,0,0-4.44,5.54,31.61,31.61,0,0,0-2,3.82c-.47.94-.67,1.63-.91,2.06a2.87,2.87,0,0,1-.5.78c-.27.24-.5,0-.86.42s-1,1.27-1.49,4c-.16,1.21-.22,2.44-.33,3.64-.07.76-.13,1.51-.2,2.26q-.18,1.91-.36,3.72c-.25,2.43-.51,4.75-.79,7-.56,4.5-1.15,8.68-1.71,12.74a193.24,193.24,0,0,0-2.14,24.28l2.34-7.93-1.33-2.81c1.76-6.19,3.41,1.45,4.12,5.12-.61.87-1.21,11.36-1.73,7.11L983.13,283c.81-1.46,1.08-8.06,1.4-3.25-.77,3.3-2,13.71-2.37,7.07-.5,5.37-.55,12.28.47,11.18-.64,8.67-1.92-1.07-2.22-5-.68,6.85-2,5.86-2.23,3.74l-.62,9.57c-.25-2.12-.89-2.18-1.15-4.28a32.28,32.28,0,0,0-.46,4.4v.26c0,.12,0,0,0,.07l0,0,.06.05a.93.93,0,0,1,.15.13c.19.16.27.51-.36.11a9.9,9.9,0,0,1,1.22,1.27.55.55,0,0,1-.43.14c-.12,0-.22-.09-.35-.28a9.9,9.9,0,0,1-.71-.8l-.17-.19-.07-.08,0,0c-.09,0,.28.08-.28-.1l-1.1-.37,1.28.93c.07.06-.08.06-.08.1l0,.13V308c0,.05-.11.07-.11.12l0,0h0l-.28-.05-.54-.12c-.71-.15-1.36-.3-2-.45-1.2-.28-2.2-.55-3.08-.84a38.86,38.86,0,0,1-4.45-1.78c-2.84-1.21-6.26-2.85-15.37-4l-3.68-.31-3.28-.18-.39,0h-.24l-.23,0-.42.08c-.25.06-.64.1-.64.2a4.81,4.81,0,0,0-1.07,1.6c-.66.25-1,.15-1-.08a1.73,1.73,0,0,1,.29-.88,1.06,1.06,0,0,1-.91.19A1.12,1.12,0,0,1,937,301a2.2,2.2,0,0,1-.27-1.15,2.84,2.84,0,0,1,.1-.65l.06-.15,0-.08a1.47,1.47,0,0,0,.05-.26c.08-.43.17-.84.26-1.25,0,.28,0,.56,0,.84v.41c0,.12,0,.32,0,.3s.09.23.14.33.18.37.26.55a9,9,0,0,1,.41.84c.83-.56.94-.91,1-1.36v-.21l0-.25.07-.84c.09-1.13.19-2.27.28-3.37.2-2.22.44-4.32.77-6-.33-4.86-.9-20.57-1.53-29.34-1.6,3.8-3.32,2.16-3.93-5.71.88,1.27,1.87-10.4,3-15.7.7,2.73,3.3-11.79,2.73-.42-.77,3.25-2.21,4.64-2.11,9.18,1.21-2.62,2.94-9.72,4.46-17.12.43.62.73,4.57.4,8.45C943,235.9,942.58,237.1,942.16,237.37Z"/><path class="cls-12" d="M1128.81,554.78c-.18.26-.33.52-.52.78.31-.26.58-.55.89-.82C1128.88,555,1128.8,555,1128.81,554.78Z"/><path class="cls-12" d="M818.34,296.41c0,.6.15,1.7.35,1.73A5.13,5.13,0,0,0,818.34,296.41Z"/><path class="cls-12" d="M803.5,459.25a.92.92,0,0,1,.43-.25C803.85,458.86,803.72,458.88,803.5,459.25Z"/><path class="cls-12" d="M1142.43,549l-.1,1.7c-.06.57-.19,1.12-.28,1.69a10.72,10.72,0,0,0,.32-1.55C1142.38,550.31,1142.39,549.76,1142.43,549Z"/><ellipse class="cls-4" cx="953.41" cy="472.71" rx="79.67" ry="89.76" transform="translate(401.36 1382.49) rotate(-85.12)"/><path class="cls-13" d="M1048,475.24l0-1.43A3.74,3.74,0,0,0,1048,475.24Z"/><path class="cls-13" d="M1047,476.5s0,.09,0,.12S1047.06,476.56,1047,476.5Z"/><path class="cls-13" d="M977,539.17a2.7,2.7,0,0,0,.92-.56C977.32,538.82,977.07,539,977,539.17Z"/><path class="cls-13" d="M899.23,544.89a.94.94,0,0,0,.2-.2C899.28,544.69,899.2,544.74,899.23,544.89Z"/><path class="cls-13" d="M1046,458.7c0,.22.06.44.07.64C1046.29,459.43,1046.13,458.83,1046,458.7Z"/><path class="cls-13" d="M994.41,533.79a.69.69,0,0,0,0-.29A.77.77,0,0,0,994.41,533.79Z"/><path class="cls-13" d="M1023.8,411.84a6.06,6.06,0,0,1-.53-.35A1.63,1.63,0,0,0,1023.8,411.84Z"/><path class="cls-13" d="M898.1,520.22a1,1,0,0,0-.54-.07C897.8,520.29,898,520.35,898.1,520.22Z"/><path class="cls-13" d="M896.2,522c1.58,1,1.72.49,1.51-.15s-.61-1.6-.15-1.71c-.84-.48-2.23-1.94-1.94-.87-.14-1.2-1.24-2-2.44-2.87s-2.35-1.74-2.55-2.89c-.17,0,.2,1.26-1,.46-1.45-1.52-.78-1.88-1.06-2.73-.75-.18-2.88-2.55-2.52-2.42-1.16-.9-.38,2.11-2.11.93a3.08,3.08,0,0,1-1.71-1.62,16,16,0,0,0-1.29-2.12c-.34-2,1.41,1.37,2.2,1.79-1.17-1.37-2.17-2.86-3.24-4.31-.13-.83.18-.8.6-.39a7.73,7.73,0,0,1,1.36,1.89c-.56-2.13-2.29-4.24-3.4-4.41a19.76,19.76,0,0,1-1.09-3.13c1,.92,2.34.21,3.37,1.81,1.39,2.8-1.59-.48-.52,2l.91-.22a2.43,2.43,0,0,0,.67,1.48,11,11,0,0,1,1.15,1.27c.16.7-.36,0-.71-.29.62.93,1,1.87,1.55,2.63a5,5,0,0,0,2,1.82c-1-2.9-4.25-6.18-3.9-7.85-.66-.76-1.27-1.55-1.87-2.35s-1.24-1.61-1.79-2.45c-.39.15-.23,2.37-1.44,1,.74-1.09.46-2.87-.06-5.11-.42.59-1-.19-1.48-1s-.9-1.56-1.19-.86a1.45,1.45,0,0,1,.07,1.88c-.77-2.17-1.14,0-1.56-1.17-.46-2.09-.27-2.09-.06-2.1s.39,0,.16-2.06a28,28,0,0,1,3.51,4.49c.41-.29-.69-2.1-.38-3.14-.24,1.42-1.33-.59-1.28.52-1.3-3-3.32-6.54-3.93-10.58.91.24,1.4,1.88,2,3.24s1.21,2.45,2.12,1.66c-.56-1.81-1.46-1.68-1.49-3.22.46-.72.31-1.82.14-3.09a28.38,28.38,0,0,1-.52-4l-.53,1.16c-.4-1-.12-2.85,0-4l.21.31-.26-1.15c.05-.18.11-.21.18-.21-.5-1.29.28-4.47.39-6.88-.41-.07-.54.52-.56,1.27a14.83,14.83,0,0,1,0,2.24c-.12.15-.33.77-.57,1.22s-.46.73-.72.15a27,27,0,0,0,0-4.23c0-.69,0-1.4,0-2.15a11.22,11.22,0,0,1,.33-2.4l-.5,1c-.31-1.21.28-2.67.69-4.31,1.41-2.77.51,2.46,1.5.81.44,1.32-.83,3.12.14,3.65l1.57-1.54c-.4-1.68,1.18-3,1.3-4.07l-.82.95c-.81-.47.14-1.32.42-1.79l-1.49.35c-.7,1.6.07,3-.93,4a9.73,9.73,0,0,0-.17-2.93,4.89,4.89,0,0,1-.08-1.27,7.15,7.15,0,0,1,.47-2.06c.55,0-.06.74.19,1.23a4.21,4.21,0,0,0,.52-2,4.92,4.92,0,0,1,.82-2.52c-.2,1.21-.27,3.19.88,2-.21-.47-.38-.92-.55-1.38.52-.82.73-.31.91-.66.69-1.16-1.08-.11,0-2,.3-.22.83-.75.89-.38,1.11-2.18.19-1.2.8-3.48-.92,1.84-2.35,1.26-1.5-.78,1.59-2.65,2-4.92,4.24-6l.26-1.5c.28,1.28,1.34-1.45,2.12-2.11,1,.33-2.73,3.76-1.31,4.7,1.27-1.54,1.2-.53,1.22.24,1.08-1.83-.54-1.32-.56-2.5.19.13.71-.63,1.26-1.18s1-.92,1-.14c1.18-1.39.5-2.35,1.55-3.25a2.27,2.27,0,0,0,.94,1.19c-.16-.35,1.28-1.37,1.52-1.59-.35.1-.25-1.07-1.06.33-.17-.41.41-1.15,1-1.79s1.19-1.2.91-1.41c.41.27,1-.33,1.74-1.08a15.57,15.57,0,0,1,2.32-2.09c-1.63-1.5-1.67,2.75-3.34,1.85a8.4,8.4,0,0,1,1.35-1.77,25.33,25.33,0,0,1,2.08-2c.79-.69,1.56-1.46,2.35-2.17a17.11,17.11,0,0,0,2.07-2.23c2.85-1.51.5.68,1.52,1a16.47,16.47,0,0,1-2.51,2,8.56,8.56,0,0,0-2.19,1.9c.59-.36,1.2-.86,1.88-1.35s1.35-1.05,2-1.62a21.09,21.09,0,0,0,3.15-3.09c2.49-1.71,3.94,0,6.76-2.21-.76-.38-.78-.57-1.89-.23a10.74,10.74,0,0,1,2.74-1.54c.36-.7-1.71.27-.59-.75.57-.15,1.7-.62,1.71-.08l-.19.17a3.14,3.14,0,0,1,2.82-.9c.66.07,1.21.09,2.28-1.16-.36-.22-.76.46-1.52.56-.74-.25.6-1.79,1.83-2.52,0,.54,1.18-.38,2.15-.6.9.51-2.19,1.14-2.43,1.83l2.54-.89-.57.09c.8-.61,1.61-1.23,2.45-1.79-1.84.93-1.29-.61-.46-1a22.71,22.71,0,0,1,2.77-.63c.77-.06,1.29.07,1.31.54,0-.91,2.4-1.72,4.14-2.32-2,.19-.45-.69,0-1.12,1.06.06,2.09.06,3.15.17-3,.95.83.64.24,1.42-.68,1.08-2.58,1.12-4.21,1.39a4.37,4.37,0,0,0,3.73-.67A5.42,5.42,0,0,1,934,401c.08.41-.07.95-1.27,1.1.26.09.84-.23,1.59-.58A5.61,5.61,0,0,1,937,401c-.52-.21-1.73-.87.08-1.53.88.2,1.74.42,2.6.69,2.88-.11.84-1.24,3.18-2-.54-.21-1.09-.36-1.64-.54.15-1,3.26-.31,3.26-1.31-1.53.07-2.3.91-3.91.83-.71-.89,2-.79,2.84-1.34a13.53,13.53,0,0,1,5.16.95c.07.76-.92,1.26-1.83,1.82s-1.75,1.25-1.43,2.22c1.52-.28,3.4-.47,5.16-.61a14,14,0,0,1,4.39.28c2.77-.32,2.62-1.51,2.24-2.43a5,5,0,0,1,2.48.35l-1.35.41c1.75-.17,3.13-.22,4.55-.27a22.73,22.73,0,0,1,4.65.35c2.1.07,1.44-1,1.05-1.75.77.06,1.53.18,2.3.27l-.31-.26c.68-.83,2.67-.18,4.15.26-.09.41-1,.29-1,.56a9.25,9.25,0,0,0,4.43,1c-.11.4-1.26,1.06-2.74.41-.14-.14,0-.28-.16-.41-.93,0-1.84-.11-2.76-.09,3.17.19,4.7,1.72,4.35,2.66,3.11.36-2.15-1.71,1.5-1.05a12.77,12.77,0,0,0,3.16,1.78,31.81,31.81,0,0,0,3,1.07c1.9.68,3.52,1.41,4.18,3.22,1.13.19,2.4.32,3.79.6a18.86,18.86,0,0,1,4.44,1.57c.4-.74,2.21.86,2.43-.21a6.13,6.13,0,0,0-2-1.42,15.93,15.93,0,0,0-2.28-.66,12.1,12.1,0,0,1-2.11-.66,3.8,3.8,0,0,1-1.7-1.3c-1.54-.26-1.36.61-2.15.75-1.25-.45-2.38-1-2.35-1.54,3.07.69,1.57-1.66,5.25-.05-.08-.43-.9-.92-1.86-1.41s-2.08-.86-2.72-1.22c.54-.2.3-.79-.48-1.45a40.14,40.14,0,0,1,5,0c-.55.19.09.72-.33.79,1.47.23,3,.42,4.46.71,1,1.07,1,1.78.17,1.87,2,1.24,6.09,2.29,5.46,3.38,1.38.69,1.25.43.8-.11s-1.3-1.24-1.32-1.46l.26.07c-1-.49-1.93-1-2.92-1.49.4-1.51,3.09,2.12,4.24,1.15.91-1,1.82-.22,2.74.94.47.58.94,1.24,1.42,1.82a4.36,4.36,0,0,0,1.5,1.35c-1.11,0-2.17,0-3.26.12.72.27,1.41.61,2.12.92-1.5-.12-2.18.91-4.27.54,1.31.81,2.71,2,4.06,3.08a23.17,23.17,0,0,0,3.42,2.54c.19,1,0,1.68-.62,2a5.23,5.23,0,0,1,3,2.31,13.13,13.13,0,0,0,2,2.9c1.2.7.9,0,.53-.7s-.84-1.54.23-1.2c.3.9,1.61,1.71,2.29,2.1a6.37,6.37,0,0,1-1.71-1.77c-.7-.86-1.45-1.88-2.1-2.69,1.11,1.06,1.62.24,2.2.25-.6-.63-1.17-1.28-1.79-1.89.92-.79,2.43,2.08,3.73,2.46-1.29.23-1,.54-2.28.79a14,14,0,0,1,5,5.42c.42,1.09-1-.34-1.61-.57-.2.85,1.77,1.33,1.39,2.22-.71.19-.93-.94-1.58-1.36.65.82,1.35,1.61,2,2.46l1.87,2.52c-.34.26-1.42-.85-1.92-1.72a5.55,5.55,0,0,0,1.56,2.11,8.8,8.8,0,0,0,2.77,1.53c.94,2,1.74,4.41.83,4.13.76.67.73-.08,1.08-.32a5.07,5.07,0,0,0,2,2.2,3.8,3.8,0,0,1,1.68,1.41c0-.52,0-1,0-1.55.7,2.9,1.47-.05,2.15,2.5a3,3,0,0,0-2.26,1.38c.46,0,.73.42.91,1a15.14,15.14,0,0,0,.53,1.72c.45-.95,1.67,1.8,1.66-.13a6.85,6.85,0,0,1,1.34,2.73,4.49,4.49,0,0,0,1.34,2.21c-.14-1.22,1.52,1.81,1.74.64.93,2.36.39,4.31-.63,3.9-.08-.42-.13-1-.24-1.4s-.31-.69-.62-.54c.54,1.39.94,2.82,1.42,4.23-.15,1.18,0,2.61-.91,3a2,2,0,0,1,.62,1.15,9.06,9.06,0,0,1,.08,1.49c0,1,0,1.95.74,2.39-1-1.34-.16-2.66-.12-3.26l.29.64c0-.1,0-.21,0-.36l1.94,1.64c.32-2-1.12-.16-1.53-2.76.51-1.27,1.36-.12,2.06,1.09s1.37,2.45,1.63,1.16c.13-2.09-1.24-1.5-2.09-3,0,.14,0,.28.06.43l-1.46-3.47c.47-.3,1.13.7,1.13.7-1.11-4.38-.54-5.29-2.07-10,0,.42-1.18,1.85-2.24,0-.95-1.27-.1-1.82-.57-3,.51.61,1.59.92,1.44,2.12l1-.51c2.63,3,2.94.75,5,5.56.83,0,2.37,3.55,2.71,6.44l.4-1.53c1,1.31.77,1.52.52,1.82s-.5.71.39,2.5a22.6,22.6,0,0,1-1.85,2.88c-.68.74-1.39,1-2.1.07-.09,2.6.88,3.38,1,5.71-1.12,1.49-1.34-.62-2.53-.27.23,1.62.85,3.69,1.48,2.44-.14,1.06-.32,2.12-.47,3.16-.26.08-.26-1-.23-1.48a6.31,6.31,0,0,0,.12,2.33,7.2,7.2,0,0,0,.57,2,2.56,2.56,0,0,1,0-1.4c.25,1.32.71,3.74,1,3.95-.51-2,.87-2.09.2-4.18a1.34,1.34,0,0,1,.73,1.63c.85-1.68.66-3.42,1.49-4.15a2.85,2.85,0,0,0,.39,2.74,11.87,11.87,0,0,0-.36-4.86c1.36-.25-.52-5.15,1-3.5-.47-.24-.75-2.17-.54-3.23.58,0,1.27,2.58,2,3.68,1,5.29-1,0-1.36,1.23l.16,2c0,.67,0,1.33.07,2,.19-.41,1,1.61.87-1a6.92,6.92,0,0,1,.66,5.89c.37.51.39-1,.45-1.51.36.48,1.65,3.21,2.07-.22-.12,1-.57-1.68-1.12.06-.1-1.35.44-5.06,1.21-3.6-.07-.42-.14-.93-.23-1.48s-.24-1.14-.37-1.71c-.25-1.15-.49-2.26-.63-2.93.59-.45.35,1.14.67,1.81-.18-1.6-.52-3.18-.81-4.75l-.52,1.44a9.06,9.06,0,0,0-.26-2.4,10.06,10.06,0,0,0-.8-2c-.63-1.24-1.33-2.37-1.9-3.65.56.07,1,.66,1.4,1.45s.7,1.79,1.13,2.65c1-1.95-.82-1-1.22-3.9.11-.42.34-.57.7-.45l-1.43-2c0-.69.28-.38.41-.1-1-1.78-1.45-1.63-1.76-1.7s-.61-.3-1.56-2.71c.31,3.15,1.5,2.32,2,4.92-.21.84-.72.18-1.25-.75a22.5,22.5,0,0,0-1.52-2.38,10.68,10.68,0,0,1,.07-2.89,4.36,4.36,0,0,0-1-3.09c1.26,1.94,1-.27,2.08,2.77,1.12,1.53.15-1.06.61-1.63-.47-.74-.88.92-1.52-1.38l.19,0L1042,443.4a10,10,0,0,0-1.11-2.58,26.3,26.3,0,0,0-1.56-2.42c-1.09-1.53-2-3-2.13-4.32l-.69,1.06c-.62-.92-1.31-2.06-2-3.08a30.11,30.11,0,0,0-2-2.53c.74-.08,1.62,1.12,2.68,2.3a21.16,21.16,0,0,0-3.4-4.42c-.62-.61-1.23-1.16-1.84-1.66s-1.25-.89-1.84-1.26c.59,2,.8,2.16,1.43,3.95-2.74-1.05-1-2.95-3.72-5,.78-.8,1.36.16,1.65-1.18-1.49-.52-2.88-2.36-4.44-3,.19-1.33,1.9-1,4.27,1.54a9.2,9.2,0,0,0,2.48,3.12,6.17,6.17,0,0,1,2.16,2.92l-.23-1.46c.91,1,1.57,1.78,2.21,2.56a18,18,0,0,0,2.06,2.35h-.19l1.56.34-.68-1a11.22,11.22,0,0,1,3.64,2.71c-2.13-3.28-3.84-2.49-5.62-3.44a13.57,13.57,0,0,1-1.55-3.72,3.59,3.59,0,0,0-1.78-2.53c.3-.47-.5-2.31.85-1.43,1.48,1.29,1.73,2.81,2.44,2.51-1.24-1.62-.42-1.28-2.49-3.6a5,5,0,0,1-2.33-.56,33.21,33.21,0,0,1-3-1.45,24.46,24.46,0,0,1-2.84-2.34,32.27,32.27,0,0,1-2.24-2.44,9.35,9.35,0,0,0,1.36,1,7,7,0,0,0,1.29.67c.78.32,1.38.33,1.43-.13-.83-.11-1.46-1.06-2-1.77s-.93-1.2-1.15-.46c-1.85-1.92-5.35-4.69-4.83-5.83,2.25,1.27,3.68,3.4,5.42,4.7-.42-.42-.65-1-.2-1,.76.76,1.53,1.49,2.26,2.27-1.35-2.09-.76-2-3.15-4.05.08.21.24.62,0,.47-.6-.49-1.32-1.15-1.94-1.63l.63-.91a8.66,8.66,0,0,1-1.7-1.29l-2-1.84a18.64,18.64,0,0,0-5.2-3.59l.45,0a5.34,5.34,0,0,0-3.53-1.15A8.92,8.92,0,0,1,1005,398c1.18.06,1-.57,1.08-1.12-1.89-.4-2.27-1.72-3.81-2.8,1.62,1.54-1.82.39-.6,1.4-.43,1-3.73-.68-5.44-1.53-.23-.88,1.21-.46,2.46-.11s2.27.69,1.29-.63c-1.7-1-2.5-.39-1.36.39-1.07-.57-2.42-1.27-3.67-2a13.19,13.19,0,0,1-3.1-2.18,24,24,0,0,1-3.43-.39,5.26,5.26,0,0,0-2.74.19c1.47.44,1.89-.49,3.53.66l-2.34.3a13.7,13.7,0,0,1-1.83-.74c-.57-.25-1.11-.53-1.62-.8a22.84,22.84,0,0,0-2.85-1.42l2.07.12-.14.14c.87-.23,3.3.76,3.25-.06-2.05.42-3.17-.94-5.69-.9l.13-.14a17.74,17.74,0,0,1-5.4-1.52c-1.56-.55-3-1-4.48-.18.77.07,2.14,1.17,1.59,1.45-.84-.71-3.42-.89-3.24-1.47l.89-.06a16.83,16.83,0,0,0-4.66-.73c-.75.65-.14,1.27-1.88,1.48-4.12-.9,1.87-1.48-.93-2.4-1.33.09-2.67.31-4,.46l-.83-.7a16.7,16.7,0,0,0-4.21-.17c-.67,0-1.34.11-2,.19s-1.32.24-2,.37a81.56,81.56,0,0,1-8.35,1.49c-.23-1.12,4.27-1.91,5.82-2a5.88,5.88,0,0,0-3.44-.05c-.63.11-1.28.23-1.94.29a7.36,7.36,0,0,1-2,0,7,7,0,0,0-2.93.78c-.66.41-1,.86-.72,1.14-2.87.86-2.19-.3-2.6-.43-.76,1.3-4.5,1.64-6.77,2.45l-.27-.63-3.42,1.75c1-.17.28.63.4,1l-.93.21c2,.38,3.86-.41,5.78-1.18s3.91-1.44,5.92-.66c-1.07.44.48.55-.59,1-.93.08-1.13,0-1.27-.21-.45.66-1.8,1.45.1,1,.18,1.46-3.69,1.8-6.12,3-2.28-.34,1.78-1.92,2.74-2.79-1,.3-1.64,1.14-3.17,1.15l.09-1.13c-3.48,1.5-.75,1.16-1.29,2.38-.6,1.56-3.18.89-4.13,1.27l1-.57a6,6,0,0,0-2.94,1.13,9,9,0,0,1-2.61,1.38c-.48-.13-1-.23-1.43-.35a4.12,4.12,0,0,0,3.13-1.45c.63-.68,1.08-1.4,2.06-1.42-2.42.28-2.37-.3-1.54-1.17s2.45-1.89,3-2.57a16.39,16.39,0,0,1-2.82.91,6.65,6.65,0,0,1-2.3.22,6.43,6.43,0,0,1-2,1.3,21.81,21.81,0,0,1-2.26.84A15.93,15.93,0,0,0,909,392a5.7,5.7,0,0,0-1.81,1.59c-1.57.51,1-1.29-.6-.59a28.58,28.58,0,0,0-4.37,2.23,28.28,28.28,0,0,0-4.11,3c-1.53.84-1.51.29-2.17.16a24.31,24.31,0,0,0-4.63,3.09,34.07,34.07,0,0,0-3.39,3.27c-1,1.12-2.1,2.25-3.3,3.52-.6.63-1.28,1.24-2,1.92s-1.49,1.4-2.38,2.14l.57-1.36c-1.51,1.22-2.8,2.31-2.89,3.55a3.86,3.86,0,0,0-2.1,1.3,22.77,22.77,0,0,0-1.82,2.52c-.61.89-1.17,1.85-1.82,2.64a5.84,5.84,0,0,1-2.25,1.78,7.93,7.93,0,0,0-1.92,3.68,10.19,10.19,0,0,1-.95,3.45c-.37-.21-.52-1.46-1.57-.12a100.41,100.41,0,0,0-6,14.37,80.1,80.1,0,0,0-3.48,15.9c-.16-.12-.19-.72-.2-1a38.18,38.18,0,0,0-.49,5.61c0,.94,0,1.86.08,2.78s.08,1.82.18,2.71c.18,1.79.32,3.52.54,5.19.09.84.15,1.66.2,2.47s.13,1.6.14,2.38c.21.56.46,1.7.83,2.53s.73,1.38,1,.8c-.14-1.42.77-1.74,1.36-1.73.84,2.55.62,3.24.29,3.75s-.77.82-.23,2.54c-1.14,1.44-1.46-2-2.66-1.79q1,2.54,2.07,5a19.85,19.85,0,0,0,1.18,4.26,15.48,15.48,0,0,1,1.14,4c-.26-1.14-1.14,0-1.27-2,.16.25.18,0,.34.29-1.33-4.25-1.43-2.07-2.88-5.84,1.25,3.34,3.15,7.69,4.12,10.66.32-.51.65,0,1,.77a5.36,5.36,0,0,0,1.31,1.88v.22c.39-.18,1.43,1.42,1.85,1.86l-.75,1.24c.78,1.12.37-.62,1.15.48.29.38.7,1.05,1.17,1.82s1,1.65,1.51,2.53c.93,1.76,1.76,3.38,1.34,4a9.26,9.26,0,0,0,1.86,1.92,8.7,8.7,0,0,1,1.8,2c-.37,0-.82-.33-1-.3,2.85,4.24,7.36,8.53,10.37,12.32l2.25,1.73c.72.54,1.45,1,2.13,1.47s1.36.85,2,1.19a15,15,0,0,0,1.92.79,7.7,7.7,0,0,1-1.65-1.44c-.4-.53-.46-.9.49-.58,1.13.21,2.28,1.32,3.67,2.09-.71.33,3,2.79.06,1.36-.08.8,1.39,1.73,2.77,2.59s2.73,1.54,2.34,2.13c.83.08,4.69,2.55,6.55,2.66,0,.74-2.36-.79-2.56-.43.64.28,1.27.58,1.92.83l-.2.38a7.84,7.84,0,0,0,4,1.34,9.89,9.89,0,0,1,3.09.25l-.15.11,1.54.44-2.16.28c2.38.92,4,.41,6.67,1.23l.13.44,1.72.18c-.29,0-.43.09-.29.24a8.4,8.4,0,0,1,3.46.29,8.76,8.76,0,0,0,3.35.23c1,.48,1.58,2,3.24,1.46l-.59,1.23c-3.67-.75-1.11-1.24-5-1.85a9.21,9.21,0,0,0,2.64,1.78,31.82,31.82,0,0,0,4,1.45c1.49.43,3.09.73,4.65,1s3.08.45,4.43.64a30.29,30.29,0,0,1,3.72.14c1.32.12,2.68.31,4,.37a23.1,23.1,0,0,0,3.52,0,3.91,3.91,0,0,0,2.3-.9l-.48.8c2.45.32,4.93.46,7.41.61,6.27-.59,12.84-1,17.3-3.07l1.44.39a18.47,18.47,0,0,1,4.35-2.29c1.71-.77,3.64-1.45,5.47-2.25a34.47,34.47,0,0,0,5-2.51,7.29,7.29,0,0,0,2.89-2.77c2.74-.59-.31,1.29-.38,1.86a14.18,14.18,0,0,0,3.16-2.06c1.1-.82,2.19-1.58,3.35-1.47.2.37-2.37,1.67-1.1,1.3,1.68,0,1.55-1.62,3.41-1.71-.52-.17-.15-.89.59-1.74a15.2,15.2,0,0,1,1.34-1.3,16.71,16.71,0,0,1,1.5-1.26c-.4.21-.4.21-.61.23-.63-.33,1-1.2,1.75-1.82a.53.53,0,0,1-.18.39,116.1,116.1,0,0,0,26.72-29.62c-.23.8-.42,1.63-.69,2.42a29.53,29.53,0,0,1,3-5.61l-.06.28a4.6,4.6,0,0,0,1.59-3.34,3.36,3.36,0,0,1,1.36-2.77l-.09.55c1.47-4,3.61-6.12,3.88-10.47a12.49,12.49,0,0,1,1.44-2.81,9.42,9.42,0,0,0,1.28-2.12,3.75,3.75,0,0,0-.57-3.11l-.17.92c-.86.92-.38-2.11-.55-3.51-1.28.89-3,.23-4.65,3.73a3.25,3.25,0,0,1-1.22,2.53,4.34,4.34,0,0,0-1.49,2.67c.55,1,.09,2-.57,3.06a5.47,5.47,0,0,0-1.08,3.73c-.54-1.69-1.62,2.84-2,.24-.6.36-.78,1.78-1.22,3.27a19.31,19.31,0,0,1-.69,2.23,4.37,4.37,0,0,1-1.13,1.62c-.06-.41-.33-.45-.23-.95-.72,2.88-1.5,1.48-2.52,3.33l1,.46c-.09.9-.89.74-1.08,1.48.4-.44,1.45-1.28,1.53-.48a8.45,8.45,0,0,1-.94,2.86c-.37-.21-.12-.95,0-1.46,0,0-1.33,2-1.85,1.82.13-.9.72-1.81.55-2.75-1.86,2.41-.43,0-2,.82,1.32.33-.88,2.53-1.61,4-.53-.16.52-1,.42-1.58a4.28,4.28,0,0,0-2.87,2.8,9.49,9.49,0,0,1-2.41,4c-.07-.17.15-.62.26-.85-1,1.66-2.68,1.84-3,3.2-1.41,1.12-1.25-.75-3.16,1.17,1.5.4-2.46,2-1.59,3.1l-2.14.73c-.92,1.8,2,1.56-.85,4-3,1.66-1.19-2.06-3.16-1.46L1007,529l-1.63.47.16-.19a4.68,4.68,0,0,1-1.37,1c-.51.24-1,.34-1.09.17-.05-.37.83-.91.76-1.28-.45.74-2.05,1.16-3.51,1.75s-2.92,1.19-3.13,2.53c-1,.1-2.71,1-2.8.26-.15.63-1.13,1-2.18,1.37a7.29,7.29,0,0,0-2.62,1.2c0-.37-1.27-.4-2,.19,1.3-.14.71.49.1,1.3-1.28-.21-4.08,1.37-4.88.45-1.47,1.09-.63,1.69-.75,2.58a14.63,14.63,0,0,0-2.8.1c-1,0-1.78-.06-1.64-.77a11.22,11.22,0,0,0,1.84-.31c.57-.2.94-.47.63-.84-1.86.06-.66.56-2.07,1.08,0-.26-1.18-.53-1-1a8.1,8.1,0,0,1-1.46.47,10.12,10.12,0,0,1-1.81.2c2,.18-1,1.15.23,1.42L975.6,540c2.18-.63.63.57,1.55.67a8.36,8.36,0,0,0-3.33,1.77,7.51,7.51,0,0,1-3.21,1.86,23.43,23.43,0,0,0-2.49-.22c1.27-.27.83-1.42.09-1.53a3.56,3.56,0,0,1-2.9.38,25.64,25.64,0,0,0-2.7-.65c1.52.19.81,1,.27,1.35-3.62,1-1.47-.34-3.09-.78a32.67,32.67,0,0,1-3.87,0c-1.2-.13-2.31-.32-3.38-.47s-2.1-.35-3.14-.43a21.76,21.76,0,0,0-3.24,0c.66.44,1.34.9,2,1.3l.79-1c1.61.91-.46,2.32-1.5,2.94-.22-.37-3.07-.49-1.88-.95l-2.79.15c.34.52,2.16.5.81.85-.88-.4-3.64-1.1-1.79-1.43-1.43-.25-3.33-.18-3.12.48-2.33-.41.48-1.24,1.56-1.54-1.81-.34-1.4-1.22-.81-1.41-.84-.1-1.67-.24-2.5-.36.6-.17.68-.59,1.26-.77-1.52-.71-2.93.24-4.09-1l-.82.7c-2.14-.86-3-1.41-3.94-1.8-.45-.2-.9-.38-1.48-.59s-1.28-.51-2.27-.88l.45.85c-3.44.06-1.86-1.75-6-2.88-2.35-.62-3.91-1-4.07.06-1.44-.29-1.45-1-1.84-1.63-1.26.08-3.85-.2-5-1.62a30.94,30.94,0,0,1,3.19.94c.22-1.06-3.19-2-4.43-3.44-.33-.06-.84-.16-1.45-.32l-2-.59c-1.52-.4-3.11-1-4.32-1.29.33,1.3-.73,2.08-3,1.41.67-.31-1.84-2.34-2.62-3.67.93,0-1.37-3.32,1.06-1.45.42.84.17,1.77,1.32,2.3a7.11,7.11,0,0,0-.76-2,25.85,25.85,0,0,0-1.4-2.6,3,3,0,0,1,2.13.93C896.21,521.4,896.31,521.77,896.2,522Z"/><path class="cls-13" d="M1046,458.7c0-.13,0-.25,0-.38l-.14.5C1045.83,458.66,1045.89,458.64,1046,458.7Z"/><path class="cls-13" d="M872.75,468.37c0-.15-.17-.44-.3-.45A.84.84,0,0,0,872.75,468.37Z"/><path class="cls-13" d="M887.31,429.66a1.57,1.57,0,0,1-.26-.12C887.08,429.61,887.15,429.65,887.31,429.66Z"/><path class="cls-13" d="M1039.28,463.12l-.35-.77A3.33,3.33,0,0,0,1039.28,463.12Z"/><path class="cls-10" d="M873.16,58.79C871.43,79.07,886,76,904.3,77.6s22.59.06,24.32-20.22-.92-30.93-19.21-32.49S874.89,38.51,873.16,58.79Z"/><rect class="cls-10" x="879.32" y="-0.06" width="18.7" height="54.45" rx="9.35" transform="translate(1771.81 129.77) rotate(-175.12)"/><rect class="cls-10" x="911.92" y="1.48" width="18.7" height="54.45" rx="9.35" transform="translate(1836.77 135.63) rotate(-175.12)"/><ellipse class="cls-10" cx="931.94" cy="69" rx="5.6" ry="7.16" transform="translate(783.98 991.71) rotate(-85.12)"/><ellipse class="cls-10" cx="869.5" cy="64.84" rx="6.76" ry="8.46" transform="translate(730.99 925.68) rotate(-85.12)"/><ellipse class="cls-10" cx="907.96" cy="79.62" rx="7.03" ry="8.87" transform="translate(751.44 977.53) rotate(-85.12)"/><ellipse class="cls-10" cx="884.25" cy="78.97" rx="6.35" ry="9.21" transform="translate(730.4 953.31) rotate(-85.12)"/><ellipse class="cls-14" cx="900.62" cy="55.71" rx="16.17" ry="18.22" transform="matrix(0.09, -1, 1, 0.09, 768.55, 948.33)"/><path class="cls-10" d="M1130.74,1091.07c6.42-.41,12.19,8.29,12.9,19.43s-1.65,16-8.07,16.43-14.46-3.82-15.17-15S1124.32,1091.48,1130.74,1091.07Z"/><path class="cls-10" d="M1159.18,1095.73c5.18-.61,10.18,5.63,11.16,13.94s-1,11-6.18,11.66-11.62-1.14-12.6-9.45S1154,1096.34,1159.18,1095.73Z"/><ellipse class="cls-10" cx="1123.98" cy="1053.28" rx="7.1" ry="8.89" transform="translate(-402.16 844.45) rotate(-35.35)"/><path class="cls-10" d="M1170.28,1091.08c-1,21.37-15.44,20.48-34.71,19.6s-23.86-7.31-22.88-28.68,5.21-32.09,24.47-31.21S1171.25,1069.71,1170.28,1091.08Z"/><rect class="cls-10" x="1129.85" y="1046.18" width="57.22" height="19.65" rx="9.82" transform="translate(-356.55 1458.38) rotate(-57.23)"/><rect class="cls-10" x="1107.07" y="1041.42" width="57.22" height="19.65" rx="9.82" transform="translate(-302.27 1623.23) rotate(-64.48)"/><ellipse class="cls-10" cx="1110.49" cy="1062.96" rx="8.37" ry="10.72" transform="translate(-410.25 838.43) rotate(-35.35)"/><path class="cls-5" d="M608.22,778.35s22.82,24.51,56.91-8c31.72-30.27,31.75-43.2,31.75-43.2s-5.87-4-9.61-7.06c-5.41-4.38-11.45-6.88-31.31,6.09C622.39,748.1,615.28,778.19,608.22,778.35Z"/><path class="cls-3" d="M606.54,772.87s25.45,26.87,60-5.13S707,726.29,707,726.29s-19.1-27.54-52.68-5.61S613.6,772.7,606.54,772.87Z"/><path class="cls-5" d="M729.09,737.62s123.17,24.23,108.28,73.17C825.59,840.4,754.61,846.45,772,883.1S821,898,821,898s-16.1,34.74-35,36.35S754.79,926,754.79,926s4,25,18.16,23.77c.41,4.73-81.5-12.71-93.93-70.94,3.77-4.49-4.86-25.5-8.38-10.9s3.11,36.46,3.11,36.46-70.5-77.5-19.2-130C660.3,763.49,693.94,739.25,729.09,737.62Z"/><polygon class="cls-5" points="809.33 893.36 820.97 898 799.94 916.01 792.65 904.69 809.33 893.36"/><path class="cls-3" d="M717.45,733s123.17,24.23,108.27,73.17C814,835.77,743,841.82,760.39,878.47s48.94,14.89,48.94,14.89-16.11,34.75-35,36.36a46.14,46.14,0,0,1-31.16-8.36s4,25,18.17,23.77c.4,4.73-81.51-12.71-93.93-70.94,3.77-4.49-4.87-25.5-8.39-10.9s3.11,36.46,3.11,36.46-70.5-77.5-19.2-130C648.66,758.86,682.29,734.62,717.45,733Z"/><polygon class="cls-14" points="423.42 520.85 420.13 521.77 396.57 511.66 421.79 517.83 423.42 520.85"/><path class="cls-15" d="M678.81,366.8l25.24,2.48c25.24,2.48,36.5-7.23,52.89-14.54s0-63.68,0-63.68H746.85l1.91,8.37a123.52,123.52,0,0,0-19.11,29.38c-10.89,23.74-41.34,0-50.84,0s-66.5,28.49-71.25,38-128.24,171-128.24,171,38,38,71.25,42.74,95-9.5,142.42-23.74,99.81,0,99.81,0Z"/><path class="cls-14" d="M859.45,545.51l4.28,68.75c18,22.19,27.32,46.35,27.32,69.8,0,57.14-33.39,99-140.26,110.33,4.67,8.39,10,18.47,14.51,28.45,0-.47,11.21,26.44,12.58,44.67,1.36,10.8-3.08,81.93-8.33,94.08,19.09,6.77,14.8,25.58,14.8,36.21,0,14.25-27.44,18.86-68.37,13.45-18.28-2.42-14.67-3.61-16.13-10.68-26.55,2.88-56,1.72-79.53,1.72-27.49,0-47,1.56-67.53-8.84-6.77,5.69-12.22,5.38-24,8.27-12.68,3.11-45.27,3.37-53.25,1.12-27.9-7.88-10.9-37-7.21-48.05,2.57-7.69,18.95-9.81,33.5-10.15-13.6-19.46-13.83-45.61-7.76-72.31-41.72-19.22-6-46.44.39-52,4.09-3.54,13.64-5.67,21.05-6.85,5.58-11.6,11.34-22.17,16.5-31-90.83-20.31-153.92-61.22-153.92-117.41,0-23.5,11-46.26,30.46-66.36a169.83,169.83,0,0,1,13.24-80.88c2.19,0,49.1,20.14,70.64,29.43,39.37-14.59,86.45-23,137.39-22.31,65,.93,119,14.06,160.8,34.12l51.46-47.19"/><path class="cls-14" d="M768.2,867.55s27.4,22.59,31.36-6.69-23.44-39.48-45.91-34.69Z"/><path class="cls-16" d="M467,939c-11.43,1-21.89,3.62-23.9,9.64-3.28,9.84-2,37.57,17.86,49.16C462.32,980.6,464.25,960.7,467,939Z"/><path class="cls-16" d="M490.29,807.36c-7.41,1.18-17,3.31-21.05,6.86-6.36,5.5-42.12,32.73-.39,51.95-4.63,20.33-5.59,40.35.23,57.34,5.36-38.16,13.28-80.89,25-123.8Q492.18,803.45,490.29,807.36Z"/><path class="cls-17" d="M752.66,861.35c-1.37-18.24-12.58-45.14-12.59-44.68-4.52-10-286.41-60.59-291.07-69,66.43-11.53,187.1-5.75,231-23,56-22,176.47-94.4,158.51-116.59l3.57-96.44L765.4,552.91c-41.79-20.07-95.82-33.19-160.8-34.12-50.94-.73-98,7.72-137.4,22.3-21.53-9.29-68.44-29.43-70.63-29.43a169.83,169.83,0,0,0-13.24,80.88c-19.44,20.11-30.46,42.87-30.46,66.36,0,56.2,70.3,97.48,161.13,117.79-5.16,8.89-18.13,19.07-23.71,30.67-7.41,1.18-17,3.31-21.05,6.86-6.36,5.5-42.11,32.73-.39,51.95-6.08,26.69-5.84,52.85,7.76,72.31-14.55.33-30.93,2.46-33.5,10.15-4.75,14.24,0,66,57,52,11.78-2.89,20.69-7.64,27.46-13.32,20.5,10.4,40,8.83,67.53,8.83,23.57,0,53,1.17,79.53-1.72,1.46,7.08,8.5,12.89,26.77,15.31,40.94,5.41,64.68-4.09,64.68-18.34,0-10.63-2.66-29.18-21.75-36C749.58,943.28,754,872.14,752.66,861.35Z"/><path class="cls-7" d="M782.71,556.79S744,585.69,680,591.69c-49.31,4.63-119,1-139.52-11.16-28.89-17.12-71.24-42.74-71.24-42.74s123.48-161.49,128.23-171,61.75-38,71.25-38,39.95,23.74,50.84,0a119.45,119.45,0,0,1,27.29-37.75s16.39,56.37,0,63.68-27.65,17-52.89,14.54l-25.24-2.48Z"/><path class="cls-15" d="M784.35,542.71a22.84,22.84,0,0,0-1.64,14.08c-.07-.14-13.41-22.35-13.41-22.35Z"/><path class="cls-7" d="M815.69,925s-4.75,14.25-28.49,19c-15.27,3-32.89-62.81-43.53-110.26,17.74-5.36,31.24-10.89,31.24-10.89l-12.12-28s-.29-9.6-28.79-8.21c-9.5.47-24.66,4.29-40.66,9.18-56.21,6-139.3.87-186.34-19.18,0,0-99.77,138.81-109.27,153.06s-38,0-38,0S412,972.5,431,975.94s232.73,1.31,313.47,11.54S815.69,925,815.69,925Z"/><path class="cls-15" d="M787.2,944c-15.27,3-32.89-62.81-43.53-110.26,17.74-5.36,31.24-10.89,31.24-10.89l-12.12-28s-.14-4.42-9.14-6.82c0,.17,5.32,44.52-31.13,40.57S660.31,825,660.31,825s75.29,17.27,79.49,13c.4,2.38,14.18,105,24.19,107.87s4.31,21.71-51.84,15.77-95.38,11-124.26,11.52S433,965.69,418,956.69l-15-9,12.49,21.69c6.09,3.4,11.52,5.84,15.49,6.56,19,3.45,232.73,1.31,313.47,11.54S815.69,925,815.69,925,810.94,939.25,787.2,944Z"/><path class="cls-18" d="M473.38,532.37s47.28,38.57,81,13.24,54.19-168.78,54.19-168.78Z"/><polygon class="cls-1" points="276.57 939.89 239 923.69 212.26 714.3 249.19 709.55 284.67 710.99 247.74 715.74 276.57 939.89"/><polygon class="cls-2" points="284.67 710.99 247.74 715.74 276.57 939.89 314 928.69 284.67 710.99"/><polygon class="cls-1" points="165.55 892.64 130.55 886.69 130.55 660.69 167.79 660.69 202.79 666.65 165.55 666.65 165.55 892.64"/><polygon class="cls-2" points="202.79 666.65 165.55 666.65 165.55 892.64 203 887.69 202.79 666.65"/><polygon class="cls-1" points="38.32 938.82 4 930.69 43.22 704.3 79.91 710.62 113.39 722.43 76.7 716.11 38.32 938.82"/><polygon class="cls-2" points="113.39 722.43 76.7 716.11 38.32 938.82 78 927.69 113.39 722.43"/><path class="cls-2" d="M324,737.69v-36H0v36S167,849.69,324,737.69Z"/><ellipse class="cls-2" cx="162" cy="737.69" rx="162" ry="58"/><ellipse class="cls-1" cx="162" cy="701.69" rx="162" ry="58"/><polygon class="cls-5" points="139.03 551.63 126.14 641.21 108.59 641.6 103.99 553.46 139.03 551.63"/><polygon class="cls-3" points="132.69 552.49 121.89 641.43 102.25 642.46 97.64 554.32 132.69 552.49"/><polygon class="cls-3" points="97.64 554.32 89.29 547.31 141.88 544.56 132.69 552.49 97.64 554.32"/><rect class="cls-14" x="109.96" y="636.09" width="15.42" height="22.86" transform="translate(-534.11 738.66) rotate(-87.66)"/><polygon class="cls-5" points="139.03 551.63 144.02 544.45 141.88 544.56 132.69 552.49 139.03 551.63"/><rect class="cls-17" x="104.12" y="635.85" width="15.42" height="22.86" transform="translate(-539.47 732.59) rotate(-87.66)"/><polygon class="cls-17" points="125.26 613.67 100.81 614.95 99.57 591.14 128.18 589.65 125.26 613.67"/><polygon class="cls-14" points="130.14 613.41 133.44 590.45 128.18 589.65 125.26 613.67 130.14 613.41"/><polygon class="cls-5" points="197.56 563.62 184.67 653.2 167.13 653.59 162.52 565.45 197.56 563.62"/><polygon class="cls-3" points="191.22 564.48 180.43 653.42 160.78 654.45 156.18 566.31 191.22 564.48"/><polygon class="cls-3" points="156.18 566.31 147.82 559.29 200.41 556.55 191.22 564.48 156.18 566.31"/><rect class="cls-15" x="168.5" y="648.07" width="15.42" height="22.86" transform="translate(-489.94 808.64) rotate(-87.66)"/><polygon class="cls-5" points="197.56 563.62 202.55 556.43 200.41 556.55 191.22 564.48 197.56 563.62"/><rect class="cls-7" x="162.65" y="647.84" width="15.42" height="22.86" transform="translate(-495.31 802.57) rotate(-87.66)"/><polygon class="cls-7" points="183.8 625.66 159.34 626.93 158.1 603.13 186.71 601.63 183.8 625.66"/><polygon class="cls-15" points="188.67 625.4 191.98 602.44 186.71 601.63 183.8 625.66 188.67 625.4"/><polygon class="cls-5" points="86.14 587.59 73.25 677.18 55.7 677.56 51.09 589.42 86.14 587.59"/><polygon class="cls-3" points="79.79 588.46 69 677.4 49.36 678.43 44.75 590.29 79.79 588.46"/><polygon class="cls-3" points="44.75 590.29 36.4 583.27 88.98 580.52 79.79 588.46 44.75 590.29"/><rect class="cls-19" x="57.07" y="672.05" width="15.42" height="22.86" transform="translate(-620.78 720.31) rotate(-87.66)"/><polygon class="cls-5" points="86.14 587.59 91.13 580.41 88.98 580.52 79.79 588.46 86.14 587.59"/><rect class="cls-2" x="51.23" y="671.81" width="15.42" height="22.86" transform="translate(-626.14 714.24) rotate(-87.66)"/><polygon class="cls-2" points="72.37 649.63 47.92 650.91 46.67 627.11 75.29 625.61 72.37 649.63"/><polygon class="cls-19" points="77.25 649.38 80.55 626.42 75.29 625.61 72.37 649.63 77.25 649.38"/><polygon class="cls-5" points="127.75 606.63 114.86 696.22 97.31 696.6 92.7 608.47 127.75 606.63"/><polygon class="cls-3" points="121.4 607.5 110.61 696.44 90.97 697.47 86.36 609.33 121.4 607.5"/><polygon class="cls-3" points="86.36 609.33 78.01 602.31 130.59 599.57 121.4 607.5 86.36 609.33"/><rect class="cls-3" x="98.68" y="691.09" width="15.42" height="22.86" transform="translate(-599.89 780.15) rotate(-87.66)"/><polygon class="cls-5" points="127.75 606.63 132.73 599.45 130.59 599.57 121.4 607.5 127.75 606.63"/><rect class="cls-4" x="92.84" y="690.85" width="15.42" height="22.86" transform="translate(-605.26 774.08) rotate(-87.66)"/><polygon class="cls-4" points="113.98 668.67 89.53 669.95 88.28 646.15 116.89 644.65 113.98 668.67"/><polygon class="cls-3" points="118.86 668.42 122.16 645.46 116.89 644.65 113.98 668.67 118.86 668.42"/><polygon class="cls-5" points="242.3 679.5 153.18 695.29 147.32 678.75 229.59 646.79 242.3 679.5"/><polygon class="cls-3" points="239.49 673.75 151.64 691.33 144.52 672.99 226.79 641.04 239.49 673.75"/><polygon class="cls-3" points="226.79 641.04 230.84 630.91 249.9 680 239.49 673.75 226.79 641.04"/><rect class="cls-10" x="136.83" y="677.79" width="15.42" height="22.86" transform="translate(-183.24 65.94) rotate(-15.9)"/><polygon class="cls-5" points="242.3 679.5 250.68 681.99 249.9 680 239.49 673.75 242.3 679.5"/><rect class="cls-6" x="135.23" y="672.17" width="15.42" height="22.86" transform="translate(-181.76 65.29) rotate(-15.9)"/><polygon class="cls-6" points="179.07 685.84 170.2 663.02 192.42 654.39 202.79 681.09 179.07 685.84"/><polygon class="cls-10" points="180.84 690.39 203.67 686.35 202.79 681.09 179.07 685.84 180.84 690.39"/><path class="cls-20" d="M227.5,575.69c-31.76,0-57.5,2.69-57.5,6l17,131c0,4.42,17.46,8,39,8s39-3.58,39-8l20-131C285,578.38,259.26,575.69,227.5,575.69Z"/><path class="cls-20" d="M227.5,587.69c-31.76,0-57.5-2.68-57.5-6l17,131c0,4.42,17.46,8,39,8s39-3.58,39-8l20-131C285,585,259.26,587.69,227.5,587.69Z"/><line class="cls-8" x1="241.5" y1="680.19" x2="253.7" y2="546.06"/><line class="cls-9" x1="237.66" y1="680.15" x2="250.24" y2="542.45"/><path class="cls-15" d="M261,547.4s-31.56-23.13-30.42-26.95c8.53-28.58,12.15-37,12.15-37S310.09,500.37,261,547.4Z"/><path class="cls-5" d="M261.57,547.32s-48.65,21.59-37.47-17.18q2-6.85,3.69-12.58c8.52-28.58,12.14-37,12.14-37S299.27,496.55,261.57,547.32Z"/><path class="cls-7" d="M261.57,547.32s-34.92-25.94-33.78-29.76c8.52-28.58,12.14-37,12.14-37S299.27,496.55,261.57,547.32Z"/><path class="cls-15" d="M247.64,536.59l5-24.45S244.11,530.24,247.64,536.59Z"/><path class="cls-15" d="M251.66,539.75s12.13-15.23,9.25-17.61S251.66,539.75,251.66,539.75Z"/><path class="cls-15" d="M234.93,526.37s2.35-12.7,4-13.74S237,527.15,237,527.15Z"/><polygon class="cls-11" points="234.93 526.38 234.7 533.79 236.97 527.15 234.93 526.38"/><line class="cls-8" x1="229.18" y1="699.89" x2="204.18" y2="567.55"/><line class="cls-9" x1="225.48" y1="700.9" x2="199.86" y2="565.02"/><path class="cls-5" d="M211.54,566.84s-36.68-13.6-36.63-17.59c.37-29.82,1.55-38.88,1.55-38.88S245.9,508.16,211.54,566.84Z"/><path class="cls-5" d="M212.1,566.6s-40.88,34.09-40.75-6.26c0-4.76.05-9.12.1-13.11.37-29.83,1.56-38.88,1.56-38.88S234.45,507.45,212.1,566.6Z"/><path class="cls-3" d="M212.1,566.6s-40.7-15.38-40.65-19.37c.37-29.83,1.56-38.88,1.56-38.88S234.45,507.45,212.1,566.6Z"/><path class="cls-5" d="M195.76,560.1l-1.88-24.89S190.63,555,195.76,560.1Z"/><path class="cls-5" d="M200.49,562s7.49-18,4.08-19.48S200.49,562,200.49,562Z"/><path class="cls-5" d="M180.74,553.75s-1.23-12.86.06-14.3,2.11,14.49,2.11,14.49Z"/><polygon class="cls-11" points="180.74 553.75 182.55 560.94 182.91 553.94 180.74 553.75"/><path class="cls-21" d="M227.5,642.69c-23.47,0-42.5,1.45-42.5,3.23l12.57,70.47c0,2.38,12.9,4.3,28.82,4.3s28.83-1.92,28.83-4.3L270,645.92C270,644.14,251,642.69,227.5,642.69Z"/><ellipse class="cls-22" cx="226" cy="712.69" rx="39" ry="8"/><path class="cls-10" d="M121.57,725.06c1.55,18.25-11.56,15.52-28,16.93s-20.33,0-21.88-18.2S72.5,696,89,694.56,120,706.81,121.57,725.06Z"/><rect class="cls-10" x="99.2" y="672.1" width="16.82" height="49" rx="8.41" transform="translate(-58.82 11.67) rotate(-4.88)"/><rect class="cls-10" x="69.87" y="673.5" width="16.82" height="49" rx="8.41" transform="translate(-59.05 9.18) rotate(-4.88)"/><ellipse class="cls-10" cx="68.68" cy="734.25" rx="6.45" ry="5.03" transform="translate(-62.16 8.49) rotate(-4.88)"/><ellipse class="cls-10" cx="124.87" cy="730.5" rx="7.61" ry="6.08" transform="translate(-61.64 13.26) rotate(-4.88)"/><ellipse class="cls-10" cx="90.26" cy="743.81" rx="7.98" ry="6.32" transform="translate(-62.9 10.36) rotate(-4.88)"/><ellipse class="cls-10" cx="111.59" cy="743.22" rx="8.29" ry="5.71" transform="matrix(1, -0.09, 0.09, 1, -62.77, 12.18)"/><ellipse class="cls-14" cx="96.87" cy="722.29" rx="16.39" ry="14.55" transform="translate(-61.05 10.85) rotate(-4.88)"/></g></g></svg>