<svg xmlns="http://www.w3.org/2000/svg" viewBox="0 0 265.98 347.3"><defs><style>.cls-1{fill:#e1f1fe;}.cls-2{fill:#5ac5c8;}.cls-3{fill:#543ceb;}.cls-4{fill:#8cb7ba;}.cls-5{fill:#d0baff;}</style></defs><g id="Layer_2" data-name="Layer 2"><g id="Layer_1-2" data-name="Layer 1"><path class="cls-1" d="M178.36,342.8a81.87,81.87,0,0,1-10.59-.74c-2.92-.39-10.77-1.43-14.41-6.68-6.45.53-12.85.61-17.92.61-2.87,0-5.7,0-8.42-.06-2.52,0-5-.05-7.26-.05l-4.32,0-3.88,0c-7.41,0-14.71-.28-22.11-3.36a36.73,36.73,0,0,1-12,5.25A39.66,39.66,0,0,1,68.11,339c-15,0-21.5-10.67-22.75-20.81-10.87-5.8-26.55-18.6-27.26-19.18A4.5,4.5,0,0,1,23,291.52c1.35.67,5.61,2.42,8.92,2.42,2.1,0,2.55-.67,2.69-.89C36.28,290.5,44,279.2,50.89,269.1a12.34,12.34,0,0,1-2.46-7.33c0-7.83,7.51-14.17,10.35-16.55l.48-.41c1.24-1.08,3.56-2.58,9.53-3.77,1.18-2.36,2.42-4.76,3.74-7.16-43.33-10.92-68-31.4-68-56.69,0-11.06,4.77-22.09,13.81-32a81.63,81.63,0,0,1,6.55-37.13,4.49,4.49,0,0,1,4.12-2.7c1.19,0,2,0,30.68,12.36,22.24-29.09,55.1-72.43,57.19-76.17.51-1,2.17-4.34,17.39-12.24,4.39-2.27,15-7.56,19.18-7.56,2.11,0,4.32.94,7.12,2.14s6.29,2.68,8.85,2.68c1.41,0,2.34-.35,3.19-2.2a59,59,0,0,1,13.64-18.8,4.49,4.49,0,0,1,2.92-1.08,4.33,4.33,0,0,1,1.29.19,4.52,4.52,0,0,1,3,3.05c2.58,8.89,7.5,30-2.49,34.49-1.44.64-2.84,1.35-4.2,2-5,2.55-10.16,5.17-18.27,5.17a39.33,39.33,0,0,1-4-.2L161.88,49l42.57,71,26.1-14a4.5,4.5,0,0,1,6.63,4.12l-1.57,42.44C243.75,163,248,174.54,248,185.88c0,29.8-19.12,47.38-58.42,53.64.46,1.34,1,2.8,1.53,4.36,1.09-.11,2.15-.17,3.15-.17,11.28,0,14.62,6.68,15.61,10.66.85,3.45,1.5,11.38-8.38,16.63.8,1.89,1.57,3.7,2.34,5.41C217.28,270,225.3,263,226.05,257c1.43-11.46,12.21-19.16,21.39-19.16a13.43,13.43,0,0,1,10.82,4.94c2.29,2.89,4.54,8.36,2.28,18-4,17.17-27,27.18-47.73,32.79a16.11,16.11,0,0,0,3.34,3.95c6.9-1.56,8.78-5.08,9-5.62a4.32,4.32,0,0,1,4.26-3.15h.32a4.6,4.6,0,0,1,4.13,4c.08.61,1.84,14.93-6.95,24.95-5.34,6.07-13.18,9.15-23.33,9.15h-1.26c.06.76.09,1.54.09,2.33C202.44,335.78,196.11,342.8,178.36,342.8Z"/><path class="cls-1" d="M189.14,9s7.5,25.77,0,29.12c-6.68,3-11.49,6.82-20.63,6.82a34.17,34.17,0,0,1-3.55-.18l-11.54-1.13,49.38,82.31,29.89-16.07L231.05,154c8.22,10.15,12.49,21.19,12.49,31.92,0,25.36-14.39,44.15-59.94,50,1.13,3.34,2.69,7.88,4.55,13a32.45,32.45,0,0,1,6.15-.66c5,0,9.84,1.61,11.24,7.25,1.83,7.35-4.2,11.21-9.85,13.18,1.93,4.76,3.94,9.44,5.95,13.74,11.68-5.11,27.52-14,28.87-24.84,1.14-9.1,9.81-15.21,16.93-15.21,6.45,0,11.62,5,8.72,17.41-4,17.16-31.83,26.54-50.33,30.95,3.75,6.83,7.31,11.42,10.09,11.42a2.61,2.61,0,0,0,.48-.05c10.86-2.17,13-8.68,13-8.68s3.79,29-25.82,29a53.45,53.45,0,0,1-6.76-.45,23.41,23.41,0,0,1,1.09,7.27c0,5.25-7.05,9.09-19.58,9.09a75.21,75.21,0,0,1-10-.71c-8.35-1.1-11.57-3.76-12.24-7a194.47,194.47,0,0,1-20.68.89c-5.52,0-10.87-.11-15.68-.11-2.91,0-5.63,0-8.2,0-8.53,0-15.48-.42-22.68-4.08a30.54,30.54,0,0,1-12.56,6.1,34.47,34.47,0,0,1-8.21,1.08c-14.11,0-18.21-11.37-18.47-19.2-10.38-4.79-28.7-19.77-28.7-19.77s5.8,2.89,10.94,2.89c2.58,0,5-.72,6.44-2.89C40,293,47.78,281.63,56.63,268.67c-10-8.33,3-18.25,5.58-20.46,1.87-1.62,6.24-2.6,9.62-3.14,2.55-5.3,5.19-10.13,7.55-14.19C37.84,221.59,9,202.89,9,177.19c0-10.74,5-21.15,13.93-30.34a77.61,77.61,0,0,1,6.05-37c1,0,22.45,9.21,32.3,13.45.6-.22,1.23-.41,1.84-.63-.58-.55-.91-.88-.91-.88S118.67,48,120.84,43.63s28.23-17.37,32.58-17.37c2.89,0,10.05,4.82,16,4.82a7.47,7.47,0,0,0,7.28-4.82A54.58,54.58,0,0,1,189.14,9m0-9a9,9,0,0,0-5.84,2.16A62.63,62.63,0,0,0,168.71,22a33.93,33.93,0,0,1-6.4-2.26c-3.14-1.34-5.86-2.5-8.89-2.5-3.77,0-10.92,2.71-21.25,8.07-15.91,8.25-18.29,12.13-19.27,14.06-3,4.81-33.78,45.45-54.68,72.82C31.85,100.87,31.16,100.87,29,100.87a9,9,0,0,0-8.25,5.4,86,86,0,0,0-7,37.3C4.73,154,0,165.51,0,177.19c0,26.38,23.84,47.75,65.91,59.58l-.18.34c-4.22,1-7.27,2.44-9.41,4.29l-.44.37c-3.27,2.76-12,10.08-12,20a16.48,16.48,0,0,0,1.63,7.15c-7.3,10.68-12,17.56-14,20.51A21.37,21.37,0,0,1,25,287.5a9,9,0,0,0-9.72,15c1.7,1.4,15.21,12.37,26,18.57,2.29,11.87,10.93,22.44,26.85,22.44a43.92,43.92,0,0,0,10.36-1.34A41.88,41.88,0,0,0,90,337.57c7.33,2.6,14.43,2.85,21.61,2.85l3.91,0,4.29,0c2.28,0,4.67,0,7.21.05,2.74,0,5.57.06,8.47.06,4.54,0,10.15-.06,15.94-.45,3.38,3.36,8.66,5.53,15.8,6.48a85.78,85.78,0,0,0,11.18.78c19.4,0,27.3-7.92,28.43-16,12.36-.78,19.58-6.08,23.53-10.58,10-11.34,8.26-26.78,8-28.5a8.72,8.72,0,0,0-.81-2.73c1-.48,2-1,3-1.48,13.76-7.1,22-15.92,24.37-26.2,2.67-11.4-.23-18.16-3.14-21.83a17.86,17.86,0,0,0-14.34-6.64c-11.05,0-24.07,8.83-25.86,23.1-.29,2.33-3.08,5.76-8.61,9.61a18.71,18.71,0,0,0,1.3-12.75,17.53,17.53,0,0,0-10.15-12.16c14-3.61,24.73-9,32.64-16.33,10.47-9.68,15.78-22.78,15.78-38.92,0-11.88-4.26-23.86-12.37-34.84l1.51-40.84a9,9,0,0,0-13.26-8.26L206.1,114l-36-60c8.3-.32,13.83-3.13,18.74-5.63,1.37-.69,2.66-1.35,4-1.94,10.85-4.84,8.75-20.2,8.06-25.25a114.16,114.16,0,0,0-3.08-14.6A9,9,0,0,0,191.72.38,8.76,8.76,0,0,0,189.14,0Z"/><path class="cls-2" d="M181.65,230s23.89,74.28,34.75,72.1,13-8.68,13-8.68,4.34,33.24-32.58,28.56-134.64-3.7-143.33-5.27-32.58-21.12-32.58-21.12,13,6.51,17.38,0,48.83-71.47,48.83-71.47Z"/><path class="cls-3" d="M230.51,257.54c-1.77,14.16-28.12,24.92-37.82,28.41a118.42,118.42,0,0,0-.89-16.19c6.19-1.44,16-5.18,13.74-14.3-2.2-8.87-12.83-7.77-19.49-6.13-2.07-4.56-4.5-9.17-6.64-13,48.87-5.16,64.13-24.32,64.13-50.44,0-10.73-4.27-21.77-12.49-31.92l1.64-44.09-35.07,18.86c-19.1-9.18-43.81-15.18-73.52-15.6-23.29-.34-44.82,3.52-62.82,10.19C51.43,119.08,30,109.87,29,109.87a77.61,77.61,0,0,0-6.05,37C14,156,9,166.45,9,177.19c0,25.7,28.84,44.4,70.38,53.69-2.36,4.06-5,8.89-7.54,14.19-3.39.54-7.76,1.52-9.63,3.14C59.3,250.72,43,263.17,62,272c-2.78,12.21-2.67,24.17,3.55,33.06-6.65.16-14.15,1.13-15.32,4.64-2.17,6.52,0,30.17,26.06,23.78a30.54,30.54,0,0,0,12.56-6.1c9.37,4.76,18.31,4,30.88,4,10.77,0,24.22.53,36.36-.78.67,3.23,3.89,5.89,12.24,7,18.72,2.48,29.58-1.86,29.58-8.38,0-4.86-1.22-13.34-9.95-16.44a63.15,63.15,0,0,0,4.35-19.34c12.58-2.1,58.56-11.24,63.82-33.69C262.26,233.71,232.69,240.17,230.51,257.54Z"/><path class="cls-2" d="M205.54,130.5s-23.95-6.52-45.64,0-49.92,13-65.12,10.86-32.57-19.55-32.57-19.55S118.67,48,120.84,43.63s28.23-17.37,32.58-17.37,18.26,10.86,23.25,0A54.58,54.58,0,0,1,189.14,9s7.5,25.77,0,29.12S176.5,45.9,165,44.76l-11.54-1.13Z"/><ellipse class="cls-4" cx="132.79" cy="202.17" rx="8.69" ry="5.43"/><path class="cls-1" d="M184.94,224.08s-10.55,13.23-27.55,0-20-17.31-20-17.31,7.63-13.29,23.78-4.6S181.72,224.28,184.94,224.08Z"/><path class="cls-1" d="M80.91,224.08s10.56,13.23,27.56,0,20-17.31,20-17.31-7.64-13.29-23.78-4.6S84.14,224.28,80.91,224.08Z"/><path class="cls-1" d="M133,210.23s55.18,15.82,46.49,37.54c-6.52,13-39.09,13-32.58,30.41s21.72,8.68,21.72,8.68-8.69,15.2-17.37,15.2a21.07,21.07,0,0,1-13.87-5s.84,11.54,7.35,11.54c0,2.17-36.64-9-40-36,1.89-1.9-1.23-11.81-3.4-5.29s0,16.73,0,16.73-29.11-38.05-3.7-60C100.65,219.34,116.91,209.6,133,210.23Z"/><rect class="cls-5" x="182.13" y="168" width="17" height="34"/><rect class="cls-1" x="177.13" y="158" width="28" height="13"/><rect class="cls-5" x="62.13" y="168" width="17" height="34"/><rect class="cls-1" x="57.13" y="158" width="28" height="13"/></g></g></svg>