<svg xmlns="http://www.w3.org/2000/svg" viewBox="0 0 1793.03 722.45"><defs><style>.cls-1{fill:#a4a1ff;}.cls-2{fill:#deccff;}.cls-3{fill:#d0baff;}.cls-4{fill:#15002e;}.cls-5{fill:#fff;}.cls-6{fill:#543ceb;}.cls-7,.cls-8,.cls-9{fill:none;stroke:#fff;stroke-linecap:round;}.cls-7,.cls-8{stroke-miterlimit:10;}.cls-7{stroke-width:6px;}.cls-8,.cls-9{stroke-width:3px;}.cls-9{stroke-linejoin:round;}.cls-10{fill:#c2d6fe;}.cls-11{fill:#e1f1fe;}.cls-12{fill:#3b28ce;}.cls-13{fill:#18bcd0;}.cls-14{fill:#5488eb;}.cls-15{fill:#18dcd0;}.cls-16{fill:#6fefd0;}.cls-17{fill:#0e0029;}</style></defs><g id="Layer_2" data-name="Layer 2"><g id="Layer_1-2" data-name="Layer 1"><path class="cls-1" d="M0,629.69H307S459.33,481.4,868.83,484s581,145.73,581,145.73H1793s-392.7-321-924.2-319.08S0,629.69,0,629.69Z"/><path class="cls-2" d="M0,584.87H307s152.34-148.3,561.84-145.74,581,145.74,581,145.74H1793s-392.7-321-924.2-319.08S0,584.87,0,584.87Z"/><rect class="cls-3" x="1449.84" y="584.87" width="343.19" height="44.83"/><rect class="cls-3" y="584.87" width="306.99" height="44.83"/><path class="cls-1" d="M446,597.78h153.6s76.22-47.31,281.11-46.49,290.71,46.49,290.71,46.49h171.72S1146.6,495.39,880.66,496,446,597.78,446,597.78Z"/><path class="cls-2" d="M446,583.48h153.6S675.77,536.17,880.66,537s290.71,46.49,290.71,46.49h171.72S1146.6,481.09,880.66,481.7,446,583.48,446,583.48Z"/><rect class="cls-3" x="1171.37" y="583.48" width="171.72" height="14.3"/><rect class="cls-3" x="445.95" y="583.48" width="153.6" height="14.3"/><polygon class="cls-1" points="1078.54 536.97 1175.4 522.95 1152.75 514.2 1076.9 525.63 1078.54 536.97"/><rect class="cls-1" x="1165.28" y="549.04" width="97.87" height="16.31" transform="translate(2495.75 934.63) rotate(171.76)"/><polygon class="cls-3" points="1164.62 556.13 1065.98 520.97 1141.83 509.54 1261.48 542.11 1164.62 556.13"/><polygon class="cls-1" points="1219.2 542.44 1202.37 536.93 1215.37 534.98 1235.79 540.04 1219.2 542.44"/><polygon class="cls-1" points="1195.23 534.77 1182.26 530.52 1192.28 529.02 1208.03 532.92 1195.23 534.77"/><polygon class="cls-1" points="1170.34 529.02 1157.37 524.77 1167.39 523.27 1183.14 527.17 1170.34 529.02"/><polygon class="cls-1" points="1147.95 522.02 1134.97 517.77 1145 516.26 1160.74 520.17 1147.95 522.02"/><polygon class="cls-1" points="1174.88 550.19 1158.06 544.68 1171.05 542.73 1191.47 547.79 1174.88 550.19"/><polygon class="cls-1" points="1151.62 543.32 1117.13 532.72 1125.37 530.14 1160.29 541.62 1151.62 543.32"/><polygon class="cls-1" points="1100.57 527.1 1087.6 522.85 1097.62 521.34 1113.37 525.25 1100.57 527.1"/><polygon class="cls-1" points="1183.1 542.32 1166.27 536.81 1179.27 534.86 1199.69 539.92 1183.1 542.32"/><polygon class="cls-1" points="1159.13 534.66 1146.16 530.41 1156.18 528.9 1171.93 532.8 1159.13 534.66"/><polygon class="cls-1" points="1134.24 528.9 1121.27 524.65 1131.29 523.15 1147.04 527.05 1134.24 528.9"/><polyline class="cls-1" points="1065.98 520.97 1164.62 556.13 1166.95 572.28 1067.62 532.32"/><rect class="cls-3" x="596.33" y="47.69" width="545" height="346" rx="30.13"/><rect class="cls-4" x="636.33" y="85.69" width="465" height="270" rx="30.45"/><rect class="cls-1" x="677.66" y="109.69" width="382.33" height="222"/><rect class="cls-5" x="745.66" y="131.69" width="236.67" height="199"/><path class="cls-3" d="M1585.35,535.75,1259.07,399.43a22.35,22.35,0,0,1-13.74-20.63V81.27a22.36,22.36,0,0,1,31-20.63L1602.59,197a22.38,22.38,0,0,1,13.74,20.64V515.12A22.36,22.36,0,0,1,1585.35,535.75Z"/><path class="cls-5" d="M1528.37,494.43,1280.18,390.74a17,17,0,0,1-10.45-15.7V148.72A17,17,0,0,1,1293.29,133l248.19,103.69a17,17,0,0,1,10.45,15.69V478.73A17,17,0,0,1,1528.37,494.43Z"/><polygon class="cls-1" points="1439.95 363.11 1295.71 302.85 1295.71 168.34 1439.95 228.6 1439.95 363.11"/><polygon class="cls-3" points="1439.95 436.11 1295.71 375.85 1295.71 325.34 1439.95 385.6 1439.95 436.11"/><polygon class="cls-1" points="1521.95 468.11 1461.33 438.85 1461.33 237.34 1521.95 266.6 1521.95 468.11"/><path class="cls-1" d="M1245.33,81.27s-3-37.69,69-25.63c0,.11,326.28,136.31,326.28,136.31s13.74,2.53,13.74,20.64V510.12s4,42.69-69,25.63c0,0-2.2-222.91-2.84-288.25a27.6,27.6,0,0,0-16.47-25Z"/><polygon class="cls-1" points="562.33 411.69 340.33 411.69 388.33 384.69 562.33 385.69 562.33 411.69"/><path class="cls-1" d="M153,482.78S406.33,379.41,406.33,372.69v-228c0-11.88-276,104.29-276,111l-.39,211.73C129.94,479.3,141.33,480.69,153,482.78Z"/><polygon class="cls-6" points="179.33 444.69 389.33 354.78 389.33 176.39 179.33 266.31 179.33 444.69"/><polygon class="cls-5" points="179.33 444.69 389.33 354.78 389.33 218.39 179.33 308.31 179.33 444.69"/><polygon class="cls-3" points="199.58 414.69 309.08 367.81 309.08 296.69 199.58 343.58 199.58 414.69"/><polygon class="cls-3" points="317.58 322.69 365.33 302.25 365.33 271.24 317.58 291.68 317.58 322.69"/><polygon class="cls-3" points="317.58 364.69 365.33 344.25 365.33 313.24 317.58 333.68 317.58 364.69"/><rect class="cls-3" x="121.33" y="251.69" width="32" height="231"/><polygon class="cls-3" points="121.33 251.69 384.49 140.96 407.33 145.69 153.33 251.69 121.33 251.69"/><line class="cls-7" x1="369.33" y1="196.33" x2="382.33" y2="207.69"/><line class="cls-7" x1="369.33" y1="215.02" x2="382.33" y2="191.98"/><path class="cls-7" d="M338.81,210l10.64-4.88a2.53,2.53,0,0,1,3.58,2.3v13.88a2.52,2.52,0,0,1-1.65,2.37l-10.65,3.91a2.53,2.53,0,0,1-3.4-2.38v-12.9A2.53,2.53,0,0,1,338.81,210Z"/><line class="cls-7" x1="309.33" y1="233.69" x2="324.33" y2="225.69"/><polygon class="cls-1" points="191.33 271.69 191.33 289.32 291.33 245.55 291.33 229.69 191.33 271.69"/><rect class="cls-1" x="153.33" y="482.69" width="222" height="37"/><polygon class="cls-3" points="375.33 482.69 585.33 371.69 411.33 370.69 153.33 482.69 375.33 482.69"/><polygon class="cls-1" points="248.36 469.69 284.33 451.85 254.53 451.69 210.33 469.69 248.36 469.69"/><polygon class="cls-1" points="299.66 444.69 327.4 430.93 304.42 430.81 270.33 444.69 299.66 444.69"/><polygon class="cls-1" points="353.66 423.69 381.4 409.93 358.42 409.81 324.33 423.69 353.66 423.69"/><polygon class="cls-1" points="401.66 400.69 429.4 386.93 406.42 386.81 372.33 400.69 401.66 400.69"/><polygon class="cls-1" points="350.36 472.69 386.33 454.85 356.52 454.69 312.33 472.69 350.36 472.69"/><polygon class="cls-1" points="400.33 449.69 474.33 414.69 454.98 411.58 380.33 448.69 400.33 449.69"/><polygon class="cls-1" points="509.66 396.69 537.4 382.93 514.42 382.81 480.33 396.69 509.66 396.69"/><polygon class="cls-1" points="329.36 457.69 365.33 439.85 335.52 439.69 291.33 457.69 329.36 457.69"/><polygon class="cls-1" points="380.66 432.69 408.4 418.93 385.42 418.81 351.33 432.69 380.66 432.69"/><polygon class="cls-1" points="434.66 411.69 462.4 397.93 439.42 397.81 405.33 411.69 434.66 411.69"/><polyline class="cls-1" points="585.33 371.69 375.33 482.69 375.33 519.69 585.33 397.69"/><rect class="cls-6" x="686" y="122.69" width="22" height="22"/><rect class="cls-6" x="686" y="157.09" width="22" height="22"/><rect class="cls-6" x="686" y="191.49" width="22" height="22"/><rect class="cls-6" x="683" y="225.89" width="22" height="22"/><rect class="cls-6" x="686" y="260.29" width="22" height="22"/><rect class="cls-6" x="686" y="294.69" width="22" height="22"/><rect class="cls-6" x="714" y="123.69" width="22" height="22"/><rect class="cls-6" x="714" y="158.09" width="22" height="22"/><rect class="cls-6" x="714" y="192.49" width="22" height="22"/><rect class="cls-6" x="714" y="226.89" width="22" height="22"/><rect class="cls-6" x="714" y="261.29" width="22" height="22"/><rect class="cls-6" x="714" y="295.69" width="22" height="22"/><rect class="cls-6" x="999.33" y="123.69" width="43" height="80"/><rect class="cls-6" x="999.33" y="214.69" width="43" height="80"/><rect class="cls-6" x="999.33" y="305.69" width="43" height="18"/><rect class="cls-3" x="745.33" y="109.69" width="51" height="14"/><line class="cls-8" x1="783.33" y1="112.69" x2="791.33" y2="120.69"/><line class="cls-8" x1="783.33" y1="120.69" x2="791.33" y2="112.69"/><rect class="cls-3" x="998.12" y="88.69" width="61.93" height="17"/><line class="cls-8" x1="1044.82" y1="92.34" x2="1054.54" y2="102.05"/><line class="cls-8" x1="1044.82" y1="102.05" x2="1054.54" y2="92.34"/><rect class="cls-9" x="1021.74" y="92.69" width="16.5" height="9"/><line class="cls-9" x1="1003.64" y1="97.19" x2="1015.16" y2="97.19"/><polygon class="cls-1" points="1373.14 447.09 1295.37 470.46 1481.99 547 1465.54 485.69 1373.14 447.09"/><path class="cls-10" d="M881.55,487.35s22.82,24.51,56.91-8c31.73-30.27,31.75-43.2,31.75-43.2s-5.87-4-9.6-7.06c-5.42-4.38-11.46-6.88-31.31,6.09C895.72,457.1,888.61,487.19,881.55,487.35Z"/><path class="cls-11" d="M879.87,481.87s25.45,26.87,60-5.13,40.38-41.45,40.38-41.45-19.1-27.54-52.68-5.61S886.93,481.7,879.87,481.87Z"/><path class="cls-10" d="M1002.43,446.62s123.16,24.23,108.27,73.17c-11.78,29.61-82.76,35.66-65.33,72.31S1094.3,607,1094.3,607s-16.1,34.74-35,36.35-31.15-8.36-31.15-8.36,4,25,18.17,23.77c.4,4.73-81.51-12.71-93.93-70.94,3.76-4.49-4.87-25.5-8.39-10.9s3.11,36.46,3.11,36.46-70.5-77.5-19.2-130C933.63,472.49,967.27,448.25,1002.43,446.62Z"/><polygon class="cls-10" points="1082.66 602.36 1094.3 607 1073.27 625.01 1065.98 613.69 1082.66 602.36"/><path class="cls-11" d="M990.78,442s123.17,24.23,108.27,73.17c-11.77,29.61-82.76,35.66-65.33,72.31s48.94,14.89,48.94,14.89-16.1,34.75-35,36.36a46.14,46.14,0,0,1-31.16-8.36s4,25,18.17,23.77c.4,4.73-81.5-12.71-93.93-70.94,3.77-4.49-4.87-25.5-8.39-10.9s3.11,36.46,3.11,36.46-70.5-77.5-19.2-130C922,467.86,955.62,443.62,990.78,442Z"/><polygon class="cls-12" points="696.75 229.85 693.46 230.77 669.9 220.66 695.12 226.83 696.75 229.85"/><path class="cls-13" d="M952.14,75.8l25.24,2.48c25.24,2.48,36.5-7.23,52.89-14.54s0-63.68,0-63.68h-10.09l1.91,8.37A123.52,123.52,0,0,0,1003,37.81c-10.89,23.74-41.34,0-50.84,0s-66.5,28.49-71.25,38-128.24,171-128.24,171,38,38,71.25,42.74,95-9.5,142.42-23.74,99.81,0,99.81,0Z"/><path class="cls-12" d="M1132.78,254.51l4.28,68.75c18,22.19,27.32,46.35,27.32,69.8,0,57.14-33.39,99-140.26,110.33,4.67,8.39,10,18.47,14.51,28.45,0-.47,11.21,26.44,12.58,44.67,1.36,10.8-3.08,81.93-8.33,94.08,19.09,6.77,14.8,25.58,14.8,36.21,0,14.25-27.44,18.86-68.37,13.45-18.28-2.42-14.67-3.61-16.13-10.68-26.55,2.88-56,1.72-79.53,1.72-27.49,0-47,1.56-67.53-8.84-6.77,5.69-12.22,5.38-24,8.27-12.68,3.11-45.27,3.37-53.25,1.12-27.9-7.88-10.9-37-7.21-48.05,2.57-7.69,19-9.81,33.5-10.15-13.6-19.46-13.83-45.61-7.76-72.31-41.72-19.22-6-46.44.39-52,4.09-3.54,13.65-5.67,21.06-6.85,5.57-11.6,11.33-22.17,16.49-31-90.83-20.31-153.92-61.22-153.92-117.41,0-23.5,11-46.26,30.46-66.36a169.83,169.83,0,0,1,13.24-80.88c2.19,0,49.1,20.14,70.64,29.43,39.37-14.59,86.45-23,137.39-22.31,65,.93,119,14.06,160.8,34.12l51.46-47.19"/><path class="cls-12" d="M1041.54,576.55s27.39,22.59,31.35-6.69-23.44-39.48-45.91-34.69Z"/><path class="cls-14" d="M740.34,648c-11.43,1-21.89,3.62-23.9,9.64-3.28,9.84-2,37.57,17.86,49.16C735.65,689.6,737.58,669.7,740.34,648Z"/><path class="cls-14" d="M763.62,516.36c-7.41,1.18-17,3.31-21,6.86-6.36,5.5-42.11,32.73-.39,51.95-4.63,20.33-5.59,40.35.23,57.34,5.36-38.16,13.28-80.89,25-123.8Q765.51,512.44,763.62,516.36Z"/><path class="cls-6" d="M1026,570.35c-1.37-18.24-12.58-45.14-12.58-44.68-4.53-10-286.42-60.59-291.08-69,66.43-11.53,187.1-5.75,231-23,56-22,176.47-94.4,158.51-116.59l3.57-96.44-76.68,41.25c-41.79-20.07-95.82-33.19-160.8-34.12-50.94-.73-98,7.72-137.39,22.3-21.54-9.29-68.45-29.43-70.64-29.43a169.83,169.83,0,0,0-13.24,80.88c-19.44,20.11-30.46,42.87-30.46,66.36,0,56.2,70.3,97.48,161.13,117.79-5.16,8.89-18.13,19.07-23.71,30.67-7.41,1.18-17,3.31-21,6.86-6.36,5.5-42.11,32.73-.39,51.95-6.07,26.69-5.84,52.85,7.76,72.31-14.55.33-30.93,2.46-33.5,10.15-4.75,14.24,0,66,57,52,11.78-2.89,20.69-7.64,27.46-13.32,20.5,10.4,40,8.83,67.53,8.83,23.57,0,53,1.17,79.53-1.72,1.46,7.08,8.5,12.89,26.78,15.31,40.93,5.41,64.68-4.09,64.68-18.34,0-10.63-2.67-29.18-21.76-36C1022.91,652.28,1027.35,581.14,1026,570.35Z"/><path class="cls-15" d="M1056,265.79s-38.71,28.9-102.71,34.9c-49.31,4.63-119,1-139.52-11.16-28.89-17.12-71.24-42.74-71.24-42.74S866.06,85.3,870.81,75.8s61.74-38,71.24-38,40,23.74,50.85,0A119.34,119.34,0,0,1,1020.18.06s16.39,56.37,0,63.68-27.65,17-52.89,14.54L942.05,75.8Z"/><path class="cls-13" d="M1057.68,251.71a22.84,22.84,0,0,0-1.64,14.08c-.07-.14-13.41-22.35-13.41-22.35Z"/><path class="cls-15" d="M1089,634s-4.74,14.25-28.49,19c-15.27,3-32.89-62.81-43.53-110.26,17.74-5.36,31.24-10.89,31.24-10.89l-12.12-28s-.29-9.6-28.79-8.21c-9.5.47-24.66,4.29-40.66,9.18-56.2,6-139.3.87-186.34-19.18,0,0-99.77,138.81-109.27,153.06s-38,0-38,0,52.24,42.75,71.24,46.19,232.73,1.31,313.47,11.54S1089,634,1089,634Z"/><path class="cls-13" d="M1060.53,653c-15.27,3-32.89-62.81-43.53-110.26,17.74-5.36,31.24-10.89,31.24-10.89l-12.12-28s-.14-4.42-9.14-6.82c0,.17,5.32,44.52-31.13,40.57S933.64,534,933.64,534s75.29,17.27,79.49,13c.4,2.38,14.18,105,24.19,107.87s4.32,21.71-51.84,15.77-95.38,11-124.26,11.52-154.89-7.47-169.89-16.47l-15-9,12.49,21.69c6.1,3.4,11.52,5.84,15.49,6.56,19,3.45,232.73,1.31,313.47,11.54S1089,634,1089,634,1084.28,648.25,1060.53,653Z"/><path class="cls-16" d="M746.71,241.37s47.28,38.57,81,13.24S882,85.83,882,85.83Z"/><path class="cls-17" d="M371.44,159.64c1.56,18.25-11.55,15.52-28,16.93s-20.33.05-21.89-18.2.83-27.83,17.29-29.23S369.89,141.39,371.44,159.64Z"/><rect class="cls-17" x="349.08" y="106.68" width="16.82" height="49" rx="8.41" transform="translate(-9.86 30.86) rotate(-4.88)"/><rect class="cls-17" x="319.74" y="108.08" width="16.82" height="49" rx="8.41" transform="translate(-10.08 28.37) rotate(-4.88)"/><ellipse class="cls-17" cx="318.55" cy="168.83" rx="6.45" ry="5.03" transform="translate(-13.2 27.69) rotate(-4.88)"/><ellipse class="cls-17" cx="374.74" cy="165.08" rx="7.61" ry="6.08" transform="translate(-12.68 32.45) rotate(-4.88)"/><ellipse class="cls-17" cx="340.14" cy="178.39" rx="7.98" ry="6.32" transform="translate(-13.93 29.56) rotate(-4.88)"/><ellipse class="cls-17" cx="361.47" cy="177.8" rx="8.29" ry="5.71" transform="translate(-13.81 31.37) rotate(-4.88)"/><ellipse class="cls-12" cx="346.74" cy="156.87" rx="16.39" ry="14.55" transform="translate(-12.08 30.04) rotate(-4.88)"/><path class="cls-17" d="M1286.49,58.79c-1.73,20.28,12.85,17.25,31.14,18.81s22.59.06,24.32-20.22-.92-30.93-19.21-32.49S1288.23,38.51,1286.49,58.79Z"/><rect class="cls-17" x="1292.65" y="-0.06" width="18.7" height="54.45" rx="9.35" transform="translate(2596.98 164.9) rotate(-175.12)"/><rect class="cls-17" x="1325.26" y="1.48" width="18.7" height="54.45" rx="9.35" transform="translate(2661.94 170.76) rotate(-175.12)"/><ellipse class="cls-17" cx="1345.27" cy="69" rx="5.6" ry="7.16" transform="translate(1162.17 1403.54) rotate(-85.12)"/><ellipse class="cls-17" cx="1282.83" cy="64.84" rx="6.76" ry="8.46" transform="translate(1109.18 1337.51) rotate(-85.12)"/><ellipse class="cls-17" cx="1321.29" cy="79.62" rx="7.03" ry="8.87" transform="translate(1129.64 1389.36) rotate(-85.12)"/><ellipse class="cls-17" cx="1297.58" cy="78.97" rx="6.35" ry="9.21" transform="translate(1108.6 1365.14) rotate(-85.12)"/><ellipse class="cls-12" cx="1313.95" cy="55.71" rx="16.17" ry="18.22" transform="translate(1146.75 1360.17) rotate(-85.12)"/><path class="cls-17" d="M1612.07,241.07c6.42-.41,12.2,8.29,12.9,19.43s-1.65,16-8.07,16.43-14.46-3.82-15.17-15S1605.65,241.48,1612.07,241.07Z"/><path class="cls-17" d="M1640.51,245.73c5.18-.61,10.18,5.63,11.16,13.94s-1,11.05-6.18,11.66-11.62-1.14-12.6-9.45S1635.32,246.34,1640.51,245.73Z"/><ellipse class="cls-17" cx="1605.31" cy="203.28" rx="7.1" ry="8.89" transform="translate(178.34 966.23) rotate(-35.35)"/><path class="cls-17" d="M1651.61,241.08c-1,21.37-15.44,20.48-34.71,19.6S1593,253.37,1594,232s5.21-32.09,24.47-31.21S1652.59,219.71,1651.61,241.08Z"/><rect class="cls-17" x="1611.18" y="196.18" width="57.22" height="19.65" rx="9.82" transform="matrix(0.54, -0.84, 0.84, 0.54, 578.9, 1473.23)"/><rect class="cls-17" x="1588.4" y="191.42" width="57.22" height="19.65" rx="9.82" transform="translate(738.77 1573.8) rotate(-64.48)"/><ellipse class="cls-17" cx="1591.82" cy="212.96" rx="8.37" ry="10.72" transform="translate(170.25 960.2) rotate(-35.35)"/></g></g></svg>