<svg xmlns="http://www.w3.org/2000/svg" viewBox="0 0 1793.03 880.22"><defs><style>.cls-1{fill:#a4a1ff;}.cls-2{fill:#deccff;}.cls-3{fill:#d0baff;}.cls-4{fill:#15002e;}.cls-10,.cls-5,.cls-6{fill:none;}.cls-10,.cls-5{stroke:#fff;}.cls-10,.cls-5,.cls-6,.cls-7{stroke-linecap:round;stroke-miterlimit:10;}.cls-5,.cls-7{stroke-width:11px;}.cls-6{stroke:#18dcd0;stroke-width:12px;}.cls-16,.cls-7{fill:#18dcd0;}.cls-7{stroke:#543ceb;}.cls-8{fill:#543ceb;}.cls-9{fill:#fff;}.cls-10{stroke-width:6px;}.cls-11{fill:#c2d6fe;}.cls-12{fill:#e1f1fe;}.cls-13{fill:#3b28ce;}.cls-14{fill:#18bcd0;}.cls-15{fill:#5488eb;}.cls-17{fill:#6fefd0;}.cls-18{fill:#0e0029;}</style></defs><g id="Layer_2" data-name="Layer 2"><g id="Layer_1-2" data-name="Layer 1"><path class="cls-1" d="M0,787.46H307S459.33,639.17,868.83,641.73s581,145.73,581,145.73H1793s-392.7-321-924.2-319.08S0,787.46,0,787.46Z"/><path class="cls-2" d="M0,742.64H307S459.33,594.34,868.83,596.9s581,145.74,581,145.74H1793s-392.7-321-924.2-319.08S0,742.64,0,742.64Z"/><rect class="cls-3" x="1449.84" y="742.64" width="343.19" height="44.83"/><rect class="cls-3" y="742.64" width="306.99" height="44.83"/><path class="cls-1" d="M446,755.55h153.6s76.22-47.31,281.11-46.49,290.71,46.49,290.71,46.49h171.72S1146.6,653.16,880.66,653.77,446,755.55,446,755.55Z"/><path class="cls-2" d="M446,741.25h153.6s76.22-47.3,281.11-46.49,290.71,46.49,290.71,46.49h171.72S1146.6,638.86,880.66,639.47,446,741.25,446,741.25Z"/><rect class="cls-3" x="1171.37" y="741.25" width="171.72" height="14.3"/><rect class="cls-3" x="445.95" y="741.25" width="153.6" height="14.3"/><polygon class="cls-1" points="1078.54 694.74 1175.4 680.72 1152.75 671.97 1076.9 683.4 1078.54 694.74"/><rect class="cls-1" x="1165.28" y="706.81" width="97.87" height="16.31" transform="translate(2518.36 1248.54) rotate(171.76)"/><polygon class="cls-3" points="1164.62 713.91 1065.98 678.74 1141.83 667.31 1261.48 699.88 1164.62 713.91"/><polygon class="cls-1" points="1219.2 700.21 1202.37 694.7 1215.37 692.75 1235.79 697.81 1219.2 700.21"/><polygon class="cls-1" points="1195.23 692.54 1182.26 688.29 1192.28 686.79 1208.03 690.69 1195.23 692.54"/><polygon class="cls-1" points="1170.34 686.79 1157.37 682.54 1167.39 681.04 1183.14 684.94 1170.34 686.79"/><polygon class="cls-1" points="1147.95 679.79 1134.97 675.54 1145 674.03 1160.74 677.94 1147.95 679.79"/><polygon class="cls-1" points="1174.88 707.97 1158.06 702.45 1171.05 700.5 1191.47 705.56 1174.88 707.97"/><polygon class="cls-1" points="1151.62 701.09 1117.13 690.49 1125.37 687.91 1160.29 699.39 1151.62 701.09"/><polygon class="cls-1" points="1100.57 684.87 1087.6 680.62 1097.62 679.11 1113.37 683.02 1100.57 684.87"/><polygon class="cls-1" points="1183.1 700.09 1166.27 694.58 1179.27 692.63 1199.69 697.69 1183.1 700.09"/><polygon class="cls-1" points="1159.13 692.43 1146.16 688.18 1156.18 686.67 1171.93 690.57 1159.13 692.43"/><polygon class="cls-1" points="1134.24 686.68 1121.27 682.43 1131.29 680.92 1147.04 684.82 1134.24 686.68"/><polyline class="cls-1" points="1065.98 678.74 1164.62 713.91 1166.95 730.05 1067.62 690.09"/><rect class="cls-3" x="596.33" y="205.46" width="545" height="346" rx="30.13"/><rect class="cls-4" x="636.33" y="243.46" width="465" height="270" rx="30.45"/><line class="cls-5" x1="757.49" y1="332.26" x2="802.75" y2="331.73"/><line class="cls-5" x1="756.13" y1="366.13" x2="882.22" y2="366.61"/><line class="cls-5" x1="756.62" y1="397.32" x2="881.43" y2="397.29"/><line class="cls-5" x1="756.78" y1="463.83" x2="838.88" y2="464.2"/><line class="cls-5" x1="879.68" y1="464.38" x2="961.78" y2="464.75"/><line class="cls-6" x1="753.05" y1="298.75" x2="685.67" y2="297.85"/><line class="cls-7" x1="823.29" y1="298.52" x2="788.29" y2="297.9"/><line class="cls-7" x1="765.2" y1="428.36" x2="741.93" y2="427.96"/><line class="cls-7" x1="890.33" y1="332.47" x2="822.95" y2="331.57"/><line class="cls-5" x1="908.83" y1="365.96" x2="1021.22" y2="366.61"/><line class="cls-5" x1="913.83" y1="396.96" x2="1020.43" y2="397.29"/><line class="cls-5" x1="999.68" y1="464.38" x2="1081.78" y2="464.75"/><line class="cls-7" x1="1029.33" y1="332.47" x2="961.95" y2="331.57"/><path class="cls-3" d="M1585.35,693.52,1259.07,557.2a22.35,22.35,0,0,1-13.74-20.63V239a22.36,22.36,0,0,1,31-20.63l326.28,136.31a22.38,22.38,0,0,1,13.74,20.64V672.89A22.36,22.36,0,0,1,1585.35,693.52Z"/><path class="cls-4" d="M1528.37,652.2,1280.18,548.51a17,17,0,0,1-10.45-15.7V306.49a17,17,0,0,1,23.56-15.69l248.19,103.69a17,17,0,0,1,10.45,15.69V636.5A17,17,0,0,1,1528.37,652.2Z"/><path class="cls-1" d="M1245.33,239s-3-37.69,69-25.63c0,.11,326.28,136.31,326.28,136.31s13.74,2.53,13.74,20.64V667.89s4,42.69-69,25.63c0,0-2.2-222.91-2.84-288.25a27.6,27.6,0,0,0-16.47-25Z"/><line class="cls-5" x1="1355.83" y1="393.96" x2="1398.83" y2="411.96"/><line class="cls-5" x1="1355.83" y1="431.96" x2="1474.83" y2="483.96"/><line class="cls-5" x1="1355.83" y1="466.96" x2="1473.83" y2="517.96"/><line class="cls-5" x1="1301.37" y1="518.05" x2="1378.83" y2="551.96"/><line class="cls-5" x1="1399.37" y1="561.05" x2="1476.83" y2="594.96"/><line class="cls-6" x1="1365.33" y1="360.46" x2="1302" y2="332.07"/><line class="cls-7" x1="1431.83" y1="388.96" x2="1399" y2="374.07"/><line class="cls-7" x1="1323.83" y1="487.96" x2="1302" y2="478.07"/><line class="cls-7" x1="1481.33" y1="448.46" x2="1418" y2="420.07"/><polygon class="cls-1" points="562.33 569.46 340.33 569.46 388.33 542.46 562.33 543.46 562.33 569.46"/><path class="cls-1" d="M153,640.55S406.33,537.18,406.33,530.46v-228c0-11.88-276,104.29-276,111l-.39,211.73C129.94,637.08,141.33,638.46,153,640.55Z"/><polygon class="cls-8" points="179.33 602.46 389.33 512.55 389.33 334.16 179.33 424.08 179.33 602.46"/><polygon class="cls-9" points="179.33 602.46 389.33 512.55 389.33 376.16 179.33 466.08 179.33 602.46"/><polygon class="cls-3" points="199.58 572.46 309.08 525.58 309.08 454.46 199.58 501.35 199.58 572.46"/><polygon class="cls-3" points="317.58 480.46 365.33 460.02 365.33 429.01 317.58 449.45 317.58 480.46"/><polygon class="cls-3" points="317.58 522.46 365.33 502.02 365.33 471.01 317.58 491.45 317.58 522.46"/><rect class="cls-3" x="121.33" y="409.46" width="32" height="231"/><polygon class="cls-3" points="121.33 409.46 384.49 298.73 407.33 303.46 153.33 409.46 121.33 409.46"/><line class="cls-10" x1="369.33" y1="354.1" x2="382.33" y2="365.46"/><line class="cls-10" x1="369.33" y1="372.79" x2="382.33" y2="349.75"/><path class="cls-10" d="M338.81,367.79l10.64-4.88a2.53,2.53,0,0,1,3.58,2.31v13.87a2.52,2.52,0,0,1-1.65,2.37l-10.65,3.91a2.53,2.53,0,0,1-3.4-2.38v-12.9A2.53,2.53,0,0,1,338.81,367.79Z"/><line class="cls-10" x1="309.33" y1="391.46" x2="324.33" y2="383.46"/><polygon class="cls-1" points="191.33 429.46 191.33 447.1 291.33 403.32 291.33 387.46 191.33 429.46"/><rect class="cls-1" x="153.33" y="640.46" width="222" height="37"/><polygon class="cls-3" points="375.33 640.46 585.33 529.46 411.33 528.46 153.33 640.46 375.33 640.46"/><polygon class="cls-1" points="248.36 627.46 284.33 609.63 254.53 609.46 210.33 627.46 248.36 627.46"/><polygon class="cls-1" points="299.66 602.46 327.4 588.71 304.42 588.58 270.33 602.46 299.66 602.46"/><polygon class="cls-1" points="353.66 581.46 381.4 567.71 358.42 567.58 324.33 581.46 353.66 581.46"/><polygon class="cls-1" points="401.66 558.46 429.4 544.71 406.42 544.58 372.33 558.46 401.66 558.46"/><polygon class="cls-1" points="350.36 630.46 386.33 612.63 356.52 612.46 312.33 630.46 350.36 630.46"/><polygon class="cls-1" points="400.33 607.46 474.33 572.46 454.98 569.35 380.33 606.46 400.33 607.46"/><polygon class="cls-1" points="509.66 554.46 537.4 540.71 514.42 540.58 480.33 554.46 509.66 554.46"/><polygon class="cls-1" points="329.36 615.46 365.33 597.63 335.52 597.46 291.33 615.46 329.36 615.46"/><polygon class="cls-1" points="380.66 590.46 408.4 576.71 385.42 576.58 351.33 590.46 380.66 590.46"/><polygon class="cls-1" points="434.66 569.46 462.4 555.71 439.42 555.58 405.33 569.46 434.66 569.46"/><polyline class="cls-1" points="585.33 529.46 375.33 640.46 375.33 677.46 585.33 555.46"/><polygon class="cls-1" points="1373.14 604.86 1295.37 628.23 1481.99 704.77 1465.54 643.46 1373.14 604.86"/><path class="cls-11" d="M881.55,645.12s22.82,24.51,56.91-8c31.73-30.26,31.75-43.2,31.75-43.2s-5.87-4-9.6-7.06c-5.42-4.38-11.46-6.88-31.31,6.09C895.72,614.87,888.61,645,881.55,645.12Z"/><path class="cls-12" d="M879.87,639.64s25.45,26.87,60-5.12,40.38-41.46,40.38-41.46-19.1-27.54-52.68-5.6S886.93,639.48,879.87,639.64Z"/><path class="cls-11" d="M1002.43,604.39s123.16,24.24,108.27,73.17c-11.78,29.61-82.76,35.67-65.33,72.31s48.93,14.9,48.93,14.9-16.1,34.74-35,36.35-31.15-8.36-31.15-8.36,4,25,18.17,23.77c.4,4.73-81.51-12.7-93.93-70.93,3.76-4.5-4.87-25.51-8.39-10.91s3.11,36.46,3.11,36.46-70.5-77.5-19.2-130C933.63,630.26,967.27,606,1002.43,604.39Z"/><polygon class="cls-11" points="1082.66 760.13 1094.3 764.77 1073.27 782.78 1065.98 771.46 1082.66 760.13"/><path class="cls-12" d="M990.78,599.76S1114,624,1099.05,672.93c-11.77,29.61-82.76,35.66-65.33,72.31s48.94,14.89,48.94,14.89-16.1,34.75-35,36.36a46.08,46.08,0,0,1-31.16-8.36s4,25,18.17,23.77c.4,4.73-81.5-12.71-93.93-70.94,3.77-4.49-4.87-25.5-8.39-10.9s3.11,36.46,3.11,36.46-70.5-77.5-19.2-130C922,625.63,955.62,601.39,990.78,599.76Z"/><polygon class="cls-13" points="696.75 387.62 693.46 388.54 669.9 378.44 695.12 384.6 696.75 387.62"/><path class="cls-14" d="M952.14,233.57l25.24,2.48c25.24,2.48,36.5-7.23,52.89-14.54s0-63.68,0-63.68h-10.09l1.91,8.37A123.52,123.52,0,0,0,1003,195.58c-10.89,23.74-41.34,0-50.84,0s-66.5,28.49-71.25,38-128.24,171-128.24,171,38,38,71.25,42.74,95-9.49,142.42-23.74,99.81,0,99.81,0Z"/><path class="cls-13" d="M1132.78,412.28l4.28,68.75c18,22.19,27.32,46.35,27.32,69.81,0,57.13-33.39,99-140.26,110.32,4.67,8.39,10,18.47,14.51,28.45,0-.46,11.21,26.44,12.58,44.67,1.36,10.8-3.08,81.93-8.33,94.08,19.09,6.77,14.8,25.58,14.8,36.21,0,14.25-27.44,18.86-68.37,13.45-18.28-2.42-14.67-3.61-16.13-10.68-26.55,2.88-56,1.72-79.53,1.72-27.49,0-47,1.56-67.53-8.84-6.77,5.69-12.22,5.38-24,8.27-12.68,3.11-45.27,3.37-53.25,1.12-27.9-7.88-10.9-37-7.21-48.05,2.57-7.69,19-9.81,33.5-10.15-13.6-19.46-13.83-45.61-7.76-72.31-41.72-19.21-6-46.44.39-52,4.09-3.54,13.65-5.67,21.06-6.85,5.57-11.6,11.33-22.16,16.49-31C714.51,628.94,651.42,588,651.42,531.84c0-23.5,11-46.25,30.46-66.36a169.83,169.83,0,0,1,13.24-80.88c2.19,0,49.1,20.14,70.64,29.43,39.37-14.59,86.45-23,137.39-22.31,65,.93,119,14.06,160.8,34.12l51.46-47.19"/><path class="cls-13" d="M1041.54,734.32s27.39,22.59,31.35-6.69-23.44-39.48-45.91-34.69Z"/><path class="cls-15" d="M740.34,805.76c-11.43,1-21.89,3.62-23.9,9.64-3.28,9.84-2,37.57,17.86,49.16C735.65,847.37,737.58,827.47,740.34,805.76Z"/><path class="cls-15" d="M763.62,674.13c-7.41,1.18-17,3.32-21,6.86-6.36,5.5-42.11,32.73-.39,52-4.63,20.33-5.59,40.35.23,57.34,5.36-38.16,13.28-80.89,25-123.8C766.14,669,764.88,671.53,763.62,674.13Z"/><path class="cls-8" d="M1026,728.12c-1.37-18.24-12.58-45.14-12.58-44.68-4.53-10-286.42-60.59-291.08-69,66.43-11.53,187.1-5.75,231-23,56-22,176.47-94.4,158.51-116.59l3.57-96.43-76.68,41.24c-41.79-20.07-95.82-33.19-160.8-34.12-50.94-.73-98,7.72-137.39,22.31-21.54-9.3-68.45-29.43-70.64-29.43a169.78,169.78,0,0,0-13.24,80.87c-19.44,20.11-30.46,42.87-30.46,66.36,0,56.2,70.3,97.48,161.13,117.79-5.16,8.89-18.13,19.07-23.71,30.67-7.41,1.18-17,3.32-21,6.86-6.36,5.5-42.11,32.73-.39,52-6.07,26.69-5.84,52.85,7.76,72.31-14.55.33-30.93,2.46-33.5,10.15-4.75,14.24,0,66,57,52,11.78-2.89,20.69-7.64,27.46-13.32,20.5,10.4,40,8.83,67.53,8.83,23.57,0,53,1.17,79.53-1.72,1.46,7.08,8.5,12.89,26.78,15.31,40.93,5.41,64.68-4.09,64.68-18.34,0-10.63-2.67-29.18-21.76-35.95C1022.91,810.05,1027.35,738.91,1026,728.12Z"/><path class="cls-16" d="M1056,423.56s-38.71,28.9-102.71,34.9c-49.31,4.63-119,1-139.52-11.16-28.89-17.12-71.24-42.74-71.24-42.74s123.49-161.49,128.24-171,61.74-38,71.24-38,40,23.74,50.85,0a119.34,119.34,0,0,1,27.28-37.75s16.39,56.37,0,63.68-27.65,17-52.89,14.54l-25.24-2.48Z"/><path class="cls-14" d="M1057.68,409.48a22.84,22.84,0,0,0-1.64,14.08c-.07-.14-13.41-22.35-13.41-22.35Z"/><path class="cls-16" d="M1089,791.77s-4.74,14.25-28.49,19c-15.27,3.06-32.89-62.81-43.53-110.25,17.74-5.37,31.24-10.9,31.24-10.9l-12.12-28s-.29-9.59-28.79-8.21c-9.5.47-24.66,4.29-40.66,9.18-56.2,6-139.3.87-186.34-19.18,0,0-99.77,138.82-109.27,153.06s-38,0-38,0,52.24,42.75,71.24,46.19S937,844,1017.78,854.25,1089,791.77,1089,791.77Z"/><path class="cls-14" d="M1060.53,810.77c-15.27,3.06-32.89-62.81-43.53-110.25,17.74-5.37,31.24-10.9,31.24-10.9l-12.12-28s-.14-4.42-9.14-6.82c0,.17,5.32,44.52-31.13,40.57s-62.21-3.61-62.21-3.61,75.29,17.27,79.49,13c.4,2.38,14.18,105.05,24.19,107.87s4.32,21.71-51.84,15.77-95.38,11-124.26,11.52-154.89-7.47-169.89-16.47l-15-9,12.49,21.69c6.1,3.4,11.52,5.84,15.49,6.56,19,3.45,232.73,1.31,313.47,11.54S1089,791.77,1089,791.77,1084.28,806,1060.53,810.77Z"/><path class="cls-17" d="M746.71,399.14s47.28,38.57,81,13.24S882,243.6,882,243.6Z"/><path class="cls-18" d="M371.44,317.41c1.56,18.25-11.55,15.52-28,16.93s-20.33.05-21.89-18.2.83-27.83,17.29-29.23S369.89,299.16,371.44,317.41Z"/><rect class="cls-18" x="349.08" y="264.45" width="16.82" height="49" rx="8.41" transform="translate(-23.27 31.43) rotate(-4.88)"/><rect class="cls-18" x="319.74" y="265.85" width="16.82" height="49" rx="8.41" transform="translate(-23.49 28.94) rotate(-4.88)"/><ellipse class="cls-18" cx="318.55" cy="326.6" rx="6.45" ry="5.03" transform="translate(-26.61 28.26) rotate(-4.88)"/><ellipse class="cls-18" cx="374.74" cy="322.85" rx="7.61" ry="6.08" transform="translate(-26.09 33.02) rotate(-4.88)"/><ellipse class="cls-18" cx="340.14" cy="336.16" rx="7.98" ry="6.32" transform="translate(-27.34 30.13) rotate(-4.88)"/><ellipse class="cls-18" cx="361.47" cy="335.57" rx="8.29" ry="5.71" transform="translate(-27.22 31.94) rotate(-4.88)"/><ellipse class="cls-13" cx="346.74" cy="314.64" rx="16.39" ry="14.55" transform="translate(-25.49 30.61) rotate(-4.88)"/><path class="cls-18" d="M1286.49,216.56c-1.73,20.28,12.85,17.25,31.14,18.81s22.59.06,24.32-20.22-.92-30.93-19.21-32.49S1288.23,196.28,1286.49,216.56Z"/><rect class="cls-18" x="1292.65" y="157.71" width="18.7" height="54.45" rx="9.35" transform="translate(2583.57 479.87) rotate(-175.12)"/><rect class="cls-18" x="1325.26" y="159.26" width="18.7" height="54.45" rx="9.35" transform="matrix(-1, -0.09, 0.09, -1, 2648.53, 485.73)"/><ellipse class="cls-18" cx="1345.27" cy="226.77" rx="5.6" ry="7.16" transform="translate(1004.97 1547.9) rotate(-85.12)"/><ellipse class="cls-18" cx="1282.83" cy="222.61" rx="6.76" ry="8.46" transform="translate(951.98 1481.87) rotate(-85.12)"/><ellipse class="cls-18" cx="1321.29" cy="237.4" rx="7.03" ry="8.87" transform="translate(972.44 1533.72) rotate(-85.12)"/><ellipse class="cls-18" cx="1297.58" cy="236.74" rx="6.35" ry="9.21" transform="translate(951.4 1509.5) rotate(-85.12)"/><ellipse class="cls-13" cx="1313.95" cy="213.48" rx="16.17" ry="18.22" transform="translate(989.55 1504.53) rotate(-85.12)"/><path class="cls-18" d="M1612.07,398.84c6.42-.41,12.2,8.29,12.9,19.43s-1.65,16-8.07,16.43-14.46-3.82-15.17-15S1605.65,399.25,1612.07,398.84Z"/><path class="cls-18" d="M1640.51,403.5c5.18-.61,10.18,5.63,11.16,13.94s-1,11.05-6.18,11.66-11.62-1.14-12.6-9.45S1635.32,404.11,1640.51,403.5Z"/><ellipse class="cls-18" cx="1605.31" cy="361.05" rx="7.1" ry="8.89" transform="translate(87.06 995.31) rotate(-35.35)"/><path class="cls-18" d="M1651.61,398.85c-1,21.37-15.44,20.48-34.71,19.6S1593,411.14,1594,389.77s5.21-32.09,24.47-31.21S1652.59,377.48,1651.61,398.85Z"/><rect class="cls-18" x="1611.18" y="353.95" width="57.22" height="19.65" rx="9.82" transform="translate(446.24 1545.59) rotate(-57.23)"/><rect class="cls-18" x="1588.4" y="349.19" width="57.22" height="19.65" rx="9.82" transform="translate(596.39 1663.6) rotate(-64.48)"/><ellipse class="cls-18" cx="1591.82" cy="370.73" rx="8.37" ry="10.72" transform="translate(78.97 989.29) rotate(-35.35)"/><polygon class="cls-9" points="1076.15 0 1126.15 0 1110.29 127.87 1085.33 127.46 1076.15 0"/><polygon class="cls-12" points="1126.15 0 1138.71 31.1 1121.27 141.7 1100.3 141.7 1085.33 127.46 1110.29 127.87 1126.15 0"/><polygon class="cls-9" points="1085.33 147.7 1108.87 147.7 1105.33 161.46 1089.28 161.46 1085.33 147.7"/><polygon class="cls-12" points="1115.33 158.46 1108.87 169.58 1097.1 169.58 1089.28 161.46 1105.33 161.46 1108.87 147.7 1115.33 158.46"/><polygon class="cls-11" points="1164.33 96.46 1189.33 112.46 1207.33 99.46 1198.33 85.46 1164.33 96.46"/><polygon class="cls-9" points="1164.33 96.46 1164.33 67.39 1227.33 36.46 1239.33 136.46 1196.99 147.7 1207.94 161.46 1189.51 169.58 1177.33 142.46 1201.83 113.47 1198.33 85.46 1164.33 96.46"/><polygon class="cls-12" points="1227.33 36.46 1249.33 76.46 1253.44 154.58 1213.12 154.58 1224.07 169.58 1205.33 178.46 1189.51 169.58 1207.94 161.46 1196.99 147.7 1239.33 136.46 1227.33 36.46"/><polygon class="cls-9" points="1196.62 188.38 1218.5 179.7 1220.29 193.8 1205.38 199.72 1196.62 188.38"/><polygon class="cls-12" points="1228.48 187.32 1226.57 200.04 1215.63 204.38 1205.38 199.72 1220.29 193.8 1218.5 179.7 1228.48 187.32"/></g></g></svg>